<svg id="Layer_1" data-name="Layer 1" xmlns="http://www.w3.org/2000/svg" xmlns:xlink="http://www.w3.org/1999/xlink" viewBox="0 0 2338 1595.2"><defs><style>.cls-1{fill:url(#radial-gradient);}.cls-2{fill:#998675;}.cls-3{fill:#00bbd6;}.cls-3,.cls-4{opacity:0.79;}.cls-4{fill:url(#linear-gradient);}.cls-5{opacity:0.72;}.cls-6{fill:#ccc;}.cls-7{fill:#f2f2f2;}.cls-11,.cls-15,.cls-18,.cls-20,.cls-24,.cls-33,.cls-34,.cls-37,.cls-38,.cls-41,.cls-42,.cls-50,.cls-51,.cls-52,.cls-65,.cls-68,.cls-74,.cls-8{fill:none;}.cls-8{stroke:#b3b3b3;stroke-width:2px;}.cls-11,.cls-14,.cls-15,.cls-17,.cls-18,.cls-19,.cls-20,.cls-24,.cls-33,.cls-34,.cls-37,.cls-38,.cls-41,.cls-42,.cls-50,.cls-51,.cls-52,.cls-65,.cls-68,.cls-74,.cls-8{stroke-miterlimit:10;}.cls-9{fill:gray;}.cls-10{fill:#b3b3b3;}.cls-11{stroke:#666;stroke-width:0.82px;}.cls-12{fill:#736357;}.cls-13{fill:#1a1a1a;}.cls-14,.cls-17,.cls-19{fill:#e6e6e6;}.cls-14,.cls-15,.cls-17,.cls-18,.cls-19,.cls-20{stroke:#1a1a1a;}.cls-14{stroke-width:3.62px;}.cls-15{stroke-width:4.9px;}.cls-16,.cls-49,.cls-54{fill:#b3e6e6;}.cls-17{stroke-width:9.01px;}.cls-18{stroke-width:9px;}.cls-19{stroke-width:4.27px;}.cls-20{stroke-width:5.78px;}.cls-21{fill:#3d3430;}.cls-22{fill:#534741;}.cls-23{fill:#cfc1ab;}.cls-24,.cls-68{stroke:#3d3430;}.cls-24{stroke-width:2.43px;}.cls-25{fill:#0071bc;}.cls-26{fill:#c7b299;}.cls-27{fill:#959a8f;}.cls-28{fill:#acdee0;}.cls-29{fill:#009245;}.cls-30{fill:#006837;}.cls-31{fill:#333;}.cls-32{fill:#ff0;}.cls-33,.cls-34,.cls-37,.cls-38,.cls-41,.cls-42{stroke:#e6e6e6;stroke-linecap:round;}.cls-33{stroke-width:2.46px;}.cls-34{stroke-width:3.7px;}.cls-35{fill:url(#radial-gradient-2);}.cls-36{fill:url(#radial-gradient-3);}.cls-37{stroke-width:1.68px;}.cls-38{stroke-width:2.52px;}.cls-39{fill:url(#radial-gradient-4);}.cls-40{fill:url(#radial-gradient-5);}.cls-41{stroke-width:1.45px;}.cls-42{stroke-width:2.18px;}.cls-43{fill:url(#radial-gradient-6);}.cls-44{fill:url(#radial-gradient-7);}.cls-45{opacity:0.59;}.cls-46{fill:#ef7c32;}.cls-47{fill:#a17a94;}.cls-48{fill:#f9a01b;}.cls-49{opacity:0.61;}.cls-50,.cls-51,.cls-52{stroke:#29abe2;}.cls-50{stroke-width:0.75px;}.cls-51{stroke-width:0.85px;}.cls-52{stroke-width:0.61px;}.cls-53,.cls-67{fill:#fff;}.cls-53{opacity:0.14;}.cls-54{opacity:0.6;}.cls-55{fill:#00af64;}.cls-56{fill:#007042;}.cls-57{fill:#8dc63f;}.cls-58{fill:#39b54a;}.cls-59{fill:#8cc63f;}.cls-60{fill:#39eb8e;}.cls-61{fill:#22b573;}.cls-62{fill:#ff7bac;}.cls-63{fill:#93278f;}.cls-64{fill:#999;}.cls-65{stroke:#ccc;stroke-width:0.55px;}.cls-66{fill:#736962;}.cls-68{stroke-width:1.18px;}.cls-69{fill:#4d4d4d;}.cls-70{fill:#ff1d25;}.cls-71{fill:#fbb03b;}.cls-72{fill:red;}.cls-73{fill:#662d91;}.cls-74{stroke:#000;stroke-width:1.67px;}.cls-75{fill:#65696a;}.cls-76{fill:#00a7c8;}.cls-77{fill:#ff7000;}.cls-78{fill:#53a530;}</style><radialGradient id="radial-gradient" cx="1139.47" cy="646" r="554.36" gradientUnits="userSpaceOnUse"><stop offset="0" stop-color="#89deff"/><stop offset="1" stop-color="#94c1ee"/></radialGradient><linearGradient id="linear-gradient" x1="1098.25" y1="619" x2="1098.25" y2="1030" gradientUnits="userSpaceOnUse"><stop offset="0" stop-color="#29abe2"/><stop offset="0.16" stop-color="#29a7df"/><stop offset="0.32" stop-color="#279ad4"/><stop offset="0.49" stop-color="#2686c3"/><stop offset="0.66" stop-color="#2369ab"/><stop offset="0.82" stop-color="#1f438b"/><stop offset="0.99" stop-color="#1b1666"/><stop offset="1" stop-color="#1b1464"/></linearGradient><radialGradient id="radial-gradient-2" cx="1389.55" cy="3405.16" r="37.34" gradientTransform="translate(734.5 -2243.9) rotate(22.1)" gradientUnits="userSpaceOnUse"><stop offset="0" stop-color="#fff" stop-opacity="0"/><stop offset="0.26" stop-color="#f8f8f8" stop-opacity="0.27"/><stop offset="0.77" stop-color="#ebebeb" stop-opacity="0.79"/><stop offset="1" stop-color="#e6e6e6"/></radialGradient><radialGradient id="radial-gradient-3" cx="1389.45" cy="3413.75" r="25.21" xlink:href="#radial-gradient-2"/><radialGradient id="radial-gradient-4" cx="1441.54" cy="3453.72" r="25.42" xlink:href="#radial-gradient-2"/><radialGradient id="radial-gradient-5" cx="1441.48" cy="3459.57" r="17.16" xlink:href="#radial-gradient-2"/><radialGradient id="radial-gradient-6" cx="1345.34" cy="3484.05" r="21.96" xlink:href="#radial-gradient-2"/><radialGradient id="radial-gradient-7" cx="1345.28" cy="3489.1" r="14.83" xlink:href="#radial-gradient-2"/></defs><title>.svg</title><rect class="cls-1" x="456" y="262" width="1367" height="768"/><path id="_Path_" data-name="&lt;Path&gt;" class="cls-2" d="M1823,1030H456V688.8h0c438.9-170.7,887.8-175.6,1327.5-14.5l39.5,14.5Z"/><path id="_Path_2" data-name="&lt;Path&gt;" class="cls-3" d="M1737.5,1030H457V701.6l22.2,9.5c165.4,70.9,385.6,28.9,578.6-15l55.3-12.6c132-30,279.1-32.1,413.8-6l210.6,40.8Z"/><path id="_Path_3" data-name="&lt;Path&gt;" class="cls-4" d="M458.5,1030H1738V708.5l-22.3,10.6c-225.2,34.1-385.2-10.7-578-59.3l-55.3-14c-131.9-33.3-278.8-35.7-413.4-6.7L458.5,684.4Z"/><g class="cls-5"><g id="_Group_" data-name="&lt;Group&gt;"><path id="_Path_4" data-name="&lt;Path&gt;" class="cls-6" d="M1707.6,1461.4s-3.4,37.3-33.5,42.1c0,0-15.4-5.1-10.2-33.2S1707.6,1461.4,1707.6,1461.4Z"/><path id="_Path_5" data-name="&lt;Path&gt;" class="cls-7" d="M1816.2,1440.5a50.1,50.1,0,0,0-57.8-49.4c-13.5-3.8-31.9-6-56.9-6-58.8,0-145.7,35.1-186.1,64.1h-.2c-6.7,3.8-33.4,28.5-49,43.1a39.4,39.4,0,0,0-21.9-3.4,2.5,2.5,0,0,1-2-.6,13.8,13.8,0,0,1-3.8-4.6,2.7,2.7,0,0,0-4.5-.8,1.8,1.8,0,0,0-.6,2c1.1,2.3-3.5,19.9,16.8,21.1a2.7,2.7,0,0,1,2.1,4.2c-2.3,3.6-4.3,9-.3,14.3,6.3,8.4,12,5.9,17.4,9a2.8,2.8,0,0,0,2.8,0c1-.7,2.1-1.7,1.3-2.7s-9.5-1.9-6-12.6c2.4-7,6-13.3,5.7-18.1l79.2-11.2c26.5-.4,58.7-2.8,89.8-4.7,3.3,8.4,9.4,10.5,9.4,10.5a34,34,0,0,0,21.2-12.1c10.1-.4,19.7-.7,28.7-.7,17.4,0,31.6-1.1,43.2-3a70.2,70.2,0,0,0,21.5,3.3c19.5,0,42.1-6.7,50.3-20.6a43.2,43.2,0,0,0,3.2-6.9C1821.1,1450.6,1816.2,1445.5,1816.2,1440.5Z"/><circle id="_Path_6" data-name="&lt;Path&gt;" cx="1787.9" cy="1428.6" r="4.6"/><path id="_Path_7" data-name="&lt;Path&gt;" class="cls-8" d="M1817.7,1455.8s-19,7.2-39-1.5"/></g><g id="_Group_2" data-name="&lt;Group&gt;"><path id="_Path_8" data-name="&lt;Path&gt;" class="cls-9" d="M1616.4,1492.9s-1.4,15.3-13.8,17.3c0,0-6.3-2.1-4.2-13.7S1616.4,1492.9,1616.4,1492.9Z"/><path id="_Path_9" data-name="&lt;Path&gt;" class="cls-10" d="M1661,1484.3a20.6,20.6,0,0,0-20.6-20.6l-3.1.2c-5.6-1.5-13.2-2.4-23.5-2.4-24.1,0-59.9,14.4-76.5,26.4h-.1c-2.7,1.6-13.7,11.7-20.1,17.7a16.7,16.7,0,0,0-9-1.4.8.8,0,0,1-.8-.2,5.1,5.1,0,0,1-1.6-1.9,1.2,1.2,0,0,0-1.9-.4,1,1,0,0,0-.2.9c.4.9-1.5,8.2,6.9,8.7a1.1,1.1,0,0,1,.9,1.7c-1,1.5-1.8,3.7-.2,5.9s5,2.4,7.2,3.7a1.1,1.1,0,0,0,1.1,0c.5-.3.9-.7.6-1.2s-3.9-.8-2.5-5.1,2.5-5.5,2.4-7.5l32.5-4.6c10.9-.2,24.2-1.2,37-1.9a6.9,6.9,0,0,0,3.8,4.3,14.3,14.3,0,0,0,8.8-5l11.7-.3a109.7,109.7,0,0,0,17.8-1.2,28,28,0,0,0,8.8,1.3c8.1,0,17.4-2.7,20.7-8.4a10.8,10.8,0,0,0,1.3-2.9C1663,1488.4,1661,1486.3,1661,1484.3Z"/><circle id="_Path_10" data-name="&lt;Path&gt;" cx="1649.4" cy="1479.4" r="1.9"/><path id="_Path_11" data-name="&lt;Path&gt;" class="cls-11" d="M1661.6,1490.6a23.2,23.2,0,0,1-16-.7"/></g></g><g id="_Group_3" data-name="&lt;Group&gt;"><path class="cls-12" d="M700.1,1047c-17.3,18.1-32.4-17.2-57.5-17.2s-25,20.4-50.1,20.4-25.1-20.4-50.2-20.4-25.1,20.4-50.2,20.4-27.5,4.6-41.8-16c-20.6-29.6-18.5-30.2-18.5-66.2s20.3-36,20.3-72.1-20.3-36-20.3-72,20.3-36,20.3-72-42.4-53.1-17.5-79.1c18.7-19.5,28.7,26.4,53.8,36.3s32.6-8.9,57.6,1,17.6,28.8,42.7,38.7,32.6-8.9,57.7,1,22.7,13,38.1,35.1S703,805.2,703,831.3s-20.3,26.1-20.3,52.2S703,909.6,703,935.6s-26.9,29.7-20,54.9C691.4,1021.2,718.2,1028.2,700.1,1047Z"/></g><g id="_Group_4" data-name="&lt;Group&gt;"><path id="_Path_12" data-name="&lt;Path&gt;" class="cls-13" d="M629.9,748.8l-8.7,5.2a1.3,1.3,0,0,0,.2,2.4l8.5,3.5a1.4,1.4,0,0,0,1.9-1.1l1.2-8.5a1.3,1.3,0,0,0-1.1-1.5l-1.1-.2A1,1,0,0,0,629.9,748.8Z"/><path id="_Path_13" data-name="&lt;Path&gt;" class="cls-13" d="M642.2,750.6l6.8,7.5a1.4,1.4,0,0,1-.9,2.3l-9.2.8a1.3,1.3,0,0,1-1.4-1.6l1.2-8.4a1.4,1.4,0,0,1,1.6-1.2l1.1.2A1.2,1.2,0,0,1,642.2,750.6Z"/><path id="_Path_14" data-name="&lt;Path&gt;" class="cls-13" d="M652.4,702.4a63.8,63.8,0,0,1,7.7,33.7c-1,19.5-7.9-6.3-7.9-6.3Z"/><path id="_Path_15" data-name="&lt;Path&gt;" class="cls-14" d="M653.7,730.9c-3.4,23.1-11.8,24.9-21,23.6s-15.9-5.5-12.4-28.6,13.7-40.7,22.9-39.4S657.2,707.8,653.7,730.9Z"/><ellipse id="_Path_16" data-name="&lt;Path&gt;" class="cls-13" cx="647.9" cy="680.2" rx="16.7" ry="14.3" transform="translate(-268.2 888.2) rotate(-59.2)"/><path id="_Path_17" data-name="&lt;Path&gt;" class="cls-15" d="M623.1,715.1s11.3-14.9,21.2-13.6,11.3,12.2,12.3,19.2"/><path id="_Path_18" data-name="&lt;Path&gt;" class="cls-16" d="M662.5,674.9"/><path id="_Path_19" data-name="&lt;Path&gt;" class="cls-13" d="M654.7,685.6s8.5,6.2,8.9,17c0,0-11-12.6-13.7-12.1Z"/><circle id="_Path_20" data-name="&lt;Path&gt;" class="cls-7" cx="649.2" cy="676.8" r="3.5"/><circle id="_Path_21" data-name="&lt;Path&gt;" class="cls-7" cx="658.2" cy="682.2" r="3.5"/><circle id="_Path_22" data-name="&lt;Path&gt;" cx="649.2" cy="676.8" r="2.5"/><circle id="_Path_23" data-name="&lt;Path&gt;" cx="658.2" cy="682.2" r="2.5"/><path id="_Path_24" data-name="&lt;Path&gt;" class="cls-7" d="M637.9,672.1a1.9,1.9,0,0,1,3.1.2c1.7,2.7,4.6,8,4.1,11.3s1.2,6,2.5,8.1a1.9,1.9,0,0,1-1.5,2.9c-2.5.1-6-.6-9.3-4.7C632.1,684.1,635.1,675.7,637.9,672.1Z"/><path id="_Path_25" data-name="&lt;Path&gt;" class="cls-13" d="M627,700.1a64.2,64.2,0,0,1-1.1,34.6c-5.9,18.6-6.1-8.1-6.1-8.1Z"/></g><g id="_Group_5" data-name="&lt;Group&gt;"><path class="cls-12" d="M1305.4,1031.4c45.5,28.7,48.4,18.8,102.2,18.8s53.8-20.4,107.6-20.4,53.8,20.4,107.6,20.4,53.8-20.4,107.6-20.4,73,52.7,114.1,18c34.8-29.4-16.7-53.3-16.7-98.8s20.3-45.5,20.3-91-20.3-45.5-20.3-91,20.3-45.5,20.3-91,10.2-49-18.1-84.7c-22.4-28.3-28.1-16.5-64.2-16.5s-36.1,20.4-72.2,20.4-36.1-20.4-72.2-20.4-36.1,20.4-72.2,20.4-47.1-38-77.7-18.8c-19.2,12.1,15.6,31.3,15.6,54.1s-20.3,22.7-20.3,45.5,20.3,22.7,20.3,45.5-20.3,22.7-20.3,45.5,27.9,28,19.6,49.2c-10.4,26.8-35.2,12.8-52.9,35.6s-1.6,35.2-19.3,57.9-33.7,10.3-51.4,33.1,1.7,42.6-21.4,59.8S1281,1016,1305.4,1031.4Z"/></g><g id="_Group_6" data-name="&lt;Group&gt;"><path id="_Path_26" data-name="&lt;Path&gt;" class="cls-13" d="M34.7,868.1l-11.6,9.5a2,2,0,0,0,.8,3.6l13.3,3.1a2,2,0,0,0,2.5-1.9V869.7a2,2,0,0,0-2-2.1H36A2.4,2.4,0,0,0,34.7,868.1Z"/><path id="_Path_27" data-name="&lt;Path&gt;" class="cls-13" d="M53.2,868.1l11.7,9.5a2.1,2.1,0,0,1-.8,3.6l-13.4,3.1a2,2,0,0,1-2.5-1.9V869.7a2.1,2.1,0,0,1,2.1-2.1h1.6A2.1,2.1,0,0,1,53.2,868.1Z"/><path id="_Path_28" data-name="&lt;Path&gt;" class="cls-13" d="M24,795S8.1,814,5.3,842.9s13.1-7.5,13.1-7.5Z"/><path id="_Path_29" data-name="&lt;Path&gt;" class="cls-13" d="M63.7,795s15.8,19,18.6,47.9-13-7.5-13-7.5Z"/><path id="_Path_30" data-name="&lt;Path&gt;" class="cls-17" d="M71.6,836.6c0,34.7-13.1,39.2-28.3,39.2s-27-4.5-27-39.2S28.7,773.7,44,773.7,71.6,801.9,71.6,836.6Z"/><ellipse id="_Path_31" data-name="&lt;Path&gt;" class="cls-13" cx="44" cy="766.4" rx="21.3" ry="24.8"/><path id="_Path_32" data-name="&lt;Path&gt;" class="cls-18" d="M14.7,821S26,795.8,41.4,795.5,68.5,810.9,71.5,821"/><path id="_Path_33" data-name="&lt;Path&gt;" class="cls-16" d="M29.3,748.5"/><path id="_Path_34" data-name="&lt;Path&gt;" class="cls-13" d="M31.1,768.1s-15.6,1.4-24.3,15c0,0,23.7-7.8,26.7-5Z"/><circle id="_Path_35" data-name="&lt;Path&gt;" class="cls-7" cx="44.8" cy="761.1" r="5.2"/><circle id="_Path_36" data-name="&lt;Path&gt;" class="cls-7" cx="29.3" cy="761.1" r="5.2"/><circle id="_Path_37" data-name="&lt;Path&gt;" cx="44.8" cy="761.1" r="3.8"/><circle id="_Path_38" data-name="&lt;Path&gt;" cx="29.3" cy="761.1" r="3.8"/><path id="_Path_39" data-name="&lt;Path&gt;" class="cls-7" d="M62.8,763.7a2.7,2.7,0,0,0-4-2.1c-4.3,2.2-12,6.6-13.9,11.3s-6.1,6.8-9.4,8.4a2.9,2.9,0,0,0-.3,4.9c3.1,2,8.3,3.8,15.5,1.1C61.1,783.5,63.7,770.4,62.8,763.7Z"/></g><g id="_Group_7" data-name="&lt;Group&gt;"><path id="_Path_40" data-name="&lt;Path&gt;" class="cls-13" d="M519.2,719.2l8.9,7.2a1.6,1.6,0,0,1-.7,2.7l-10,2.4a1.6,1.6,0,0,1-2-1.5v-9.6a1.6,1.6,0,0,1,1.6-1.5h1.2A1.7,1.7,0,0,1,519.2,719.2Z"/><path id="_Path_41" data-name="&lt;Path&gt;" class="cls-13" d="M505.2,719.2l-8.8,7.2a1.6,1.6,0,0,0,.6,2.7l10.1,2.4A1.5,1.5,0,0,0,509,730v-9.6a1.5,1.5,0,0,0-1.5-1.5h-1.3A1.9,1.9,0,0,0,505.2,719.2Z"/><path id="_Path_42" data-name="&lt;Path&gt;" class="cls-13" d="M527.4,663.9a72.1,72.1,0,0,1,14.1,36.3c2.1,21.8-9.9-5.7-9.9-5.7Z"/><path id="_Path_43" data-name="&lt;Path&gt;" class="cls-13" d="M497.3,663.9a72.1,72.1,0,0,0-14.1,36.3c-2.1,21.8,9.9-5.7,9.9-5.7Z"/><path id="_Path_44" data-name="&lt;Path&gt;" class="cls-19" d="M491.3,695.4c0,26.3,9.9,29.7,21.5,29.7s20.3-3.4,20.3-29.7-9.3-47.6-20.9-47.6S491.3,669.1,491.3,695.4Z"/><ellipse id="_Path_45" data-name="&lt;Path&gt;" class="cls-13" cx="512.2" cy="642.3" rx="16.1" ry="18.8"/><path id="_Path_46" data-name="&lt;Path&gt;" class="cls-20" d="M535.2,683.6s-9.1-19.1-21.4-19.4-21.7,11.7-24.1,19.4"/><path id="_Path_47" data-name="&lt;Path&gt;" class="cls-16" d="M523.3,628.7"/><path id="_Path_48" data-name="&lt;Path&gt;" class="cls-13" d="M522,643.5s11.8,1.1,18.4,11.4c0,0-18-5.9-20.3-3.8Z"/><circle id="_Path_49" data-name="&lt;Path&gt;" class="cls-7" cx="511.6" cy="638.2" r="3.9"/><circle id="_Path_50" data-name="&lt;Path&gt;" class="cls-7" cx="523.3" cy="638.2" r="3.9"/><circle id="_Path_51" data-name="&lt;Path&gt;" cx="511.6" cy="638.2" r="2.9"/><circle id="_Path_52" data-name="&lt;Path&gt;" cx="523.3" cy="638.2" r="2.9"/><path id="_Path_53" data-name="&lt;Path&gt;" class="cls-7" d="M498,640.2a2,2,0,0,1,3-1.6c3.3,1.7,9.1,5,10.6,8.6s4.6,5.1,7,6.3a2.2,2.2,0,0,1,.3,3.7c-2.4,1.5-6.3,2.9-11.8.8C499.3,655.2,497.3,645.3,498,640.2Z"/></g><path class="cls-21" d="M146,1214l30.8,17.2a6.1,6.1,0,0,0,8.4-3l2.3-5.1a6.1,6.1,0,0,0-3.2-8.3l-33.1-12a6.2,6.2,0,0,0-7.6,3.3h0A6.1,6.1,0,0,0,146,1214Z"/><path class="cls-21" d="M144.8,1228.8l30.7,17.2a6,6,0,0,0,8.4-3l2.4-5.1a5.9,5.9,0,0,0-3.3-8.2l-33.1-12.1a6.3,6.3,0,0,0-7.6,3.3h0A6.2,6.2,0,0,0,144.8,1228.8Z"/><path id="_Path_54" data-name="&lt;Path&gt;" class="cls-22" d="M48.3,1206.9c55.6,32.8,105.2,46.1,119.3,15.1,13.4-29.2-42.7-58.4-84.1-79.1-76.9-38.6-22.9,3.3-32.6,21S-34.8,1157.8,48.3,1206.9Z"/><path id="_Path_55" data-name="&lt;Path&gt;" class="cls-12" d="M26,1123.5s5.8-2.5,9.1-1.6-1.8,2.2-2.1,3.1S27.5,1126.2,26,1123.5Z"/><path id="_Path_56" data-name="&lt;Path&gt;" class="cls-12" d="M2,1168.5s1.5,6.2,4.2,8.2.7-2.8,1.3-3.6S5.1,1168.1,2,1168.5Z"/><path id="_Path_57" data-name="&lt;Path&gt;" class="cls-23" d="M15.8,1183.6c15.7,8.9,30.7.3,39.6-15.4s8.4-32.7-7.3-41.6-34.6-1.8-43.5,13.9S0,1174.7,15.8,1183.6Z"/><ellipse id="_Path_58" data-name="&lt;Path&gt;" cx="32.1" cy="1138.3" rx="3.2" ry="5.1" transform="translate(-942.1 548.6) rotate(-57.2)"/><path id="_Path_59" data-name="&lt;Path&gt;" class="cls-24" d="M35.8,1155.2s7.5,1.1,12.9-3.7"/><path id="_Path_60" data-name="&lt;Path&gt;" class="cls-24" d="M35.7,1154.3s5.8,4.8,5.8,12.1"/><ellipse id="_Path_61" data-name="&lt;Path&gt;" cx="19.5" cy="1161.1" rx="3.2" ry="5.1" transform="translate(-967.1 548.5) rotate(-57.2)"/><path id="_Path_62" data-name="&lt;Path&gt;" d="M30.6,1153.9l2.3,4.3a1.8,1.8,0,0,0,3.1-.1v-.6a7.2,7.2,0,0,1,2.2-4.3l.5-.4a1.7,1.7,0,0,0-1.9-2.5l-5.1,1.1A1.7,1.7,0,0,0,30.6,1153.9Z"/><path id="_Path_63" data-name="&lt;Path&gt;" class="cls-21" d="M78.7,1139.8h.7a37.8,37.8,0,0,1,18.4,9.2l1.2,1s-23.7,16.9-27.6,15.4-8.6-4.5-5.1-10.7S78.7,1139.8,78.7,1139.8Z"/><path id="_Path_64" data-name="&lt;Path&gt;" class="cls-21" d="M43.6,1204.7l.5.5a40.3,40.3,0,0,0,18.3,9.5l1.6.3s-.3-29.1-3.8-31.3-8.8-4.4-11.8,2.1S43.6,1204.7,43.6,1204.7Z"/><path id="_Path_65" data-name="&lt;Path&gt;" class="cls-25" d="M1238.9,443.6c2.9-19.4,1.6-18.4-1.4-19.1s-2.7-1.6-9.5,16.6-3.5,19.1.8,20.1h.3C1232.1,462,1236,462.8,1238.9,443.6Z"/><path id="_Path_66" data-name="&lt;Path&gt;" class="cls-25" d="M1267.8,446.2c.6-19.6,1.7-18.4,4.8-18.6s2.9-1.1,6.4,18,.1,19.5-4.4,19.7h-.3C1271.3,465.5,1267.3,465.6,1267.8,446.2Z"/><g id="_Rectangle_" data-name="&lt;Rectangle&gt;"><path class="cls-26" d="M1375.4,444.4a709,709,0,0,1-231.7-19.7l2.1-11.5a700.4,700.4,0,0,0,229.8,20.4C1375.5,437.2,1375.5,440.8,1375.4,444.4Z"/></g><path id="_Path_67" data-name="&lt;Path&gt;" class="cls-27" d="M2205.4,1149.1s38.1,14.1,67.6-6.7c0,0-.9-10.1-2-21.2-.8-8.4-4-17.9,5.5-21.1,27.9-9.1,29.1-17,24.1-18.5s-24.5.5-24.5.5-6-25.2-39.9-19.2c-29.5,5.3-30.4,45.8-30.4,45.8s-28.8,14.1-25.7,35.7c0,0,17.6-17.9,29.7-12.1C2209.8,1132.3,2203.1,1144.9,2205.4,1149.1Z"/><ellipse id="_Path_68" data-name="&lt;Path&gt;" cx="2258.8" cy="1082.9" rx="2.4" ry="3.5"/><g id="_Group_8" data-name="&lt;Group&gt;"><path class="cls-28" d="M2199.7,1146.6a6.7,6.7,0,0,0,1.8,5.9,14.4,14.4,0,0,0,5.3,3.3,30.7,30.7,0,0,0,6.1,1.8q3.2.6,6.3.9,6.5.6,12.9.6c4.3,0,8.7-.1,13-.3s8.6-.6,12.8-1.3a66.2,66.2,0,0,0,12.4-3.1,36.6,36.6,0,0,0,5.6-2.8,16.4,16.4,0,0,0,4.4-4.3,9.8,9.8,0,0,0,1.6-5.8,7.8,7.8,0,0,0-.7-3,6,6,0,0,0-.9-1.3,2.4,2.4,0,0,0-1.3-.9,2.3,2.3,0,0,1,1.5.7,6.3,6.3,0,0,1,1.1,1.2,12.7,12.7,0,0,1,1.3,3.2,10.8,10.8,0,0,1-1.2,6.8,16.9,16.9,0,0,1-4.5,5.1,32.7,32.7,0,0,1-5.9,3.5l-3.1,1.3-3.2,1-6.5,1.5a118.5,118.5,0,0,1-13.2,1.5,129.4,129.4,0,0,1-26.4-1,43.9,43.9,0,0,1-12.8-3.8,14.6,14.6,0,0,1-5.3-4.3,6.8,6.8,0,0,1-1.4-3.1A6.2,6.2,0,0,1,2199.7,1146.6Z"/></g><g id="_Group_9" data-name="&lt;Group&gt;"><path class="cls-28" d="M2192.9,1151.9a7,7,0,0,0,.2,3.8,9.4,9.4,0,0,0,1.9,3.2,18.8,18.8,0,0,0,6.3,4,43.8,43.8,0,0,0,7.3,2.1c2.4.4,5,.9,7.5,1.1,5.1.5,10.2.7,15.4.7s10.3-.1,15.4-.4,10.2-.8,15.3-1.6a73.6,73.6,0,0,0,14.7-3.7,31.3,31.3,0,0,0,6.6-3.3,19.5,19.5,0,0,0,5.3-5,12.3,12.3,0,0,0,2-6.9,11.8,11.8,0,0,0-.9-3.7,5.3,5.3,0,0,0-1.1-1.5,2.5,2.5,0,0,0-1.6-1,2.5,2.5,0,0,1,1.8.8,5,5,0,0,1,1.4,1.5,9.8,9.8,0,0,1,1.4,3.7,12.3,12.3,0,0,1-1.3,8,20.2,20.2,0,0,1-5.4,6.2,35.6,35.6,0,0,1-7,4.1c-1.2.6-2.5,1-3.7,1.5l-3.8,1.2q-3.9,1-7.8,1.8a117.9,117.9,0,0,1-15.7,1.8c-10.4.5-21,.5-31.4-1.1a51.3,51.3,0,0,1-15.2-4.6,17.1,17.1,0,0,1-6.3-5,10.4,10.4,0,0,1-1.7-3.7A7.8,7.8,0,0,1,2192.9,1151.9Z"/></g><path class="cls-12" d="M1358.9,390s35.7,105.6-4,201.4c0,0,55.3-12.1,67.6,19.1,0,0-23-180.7-49.2-224.3S1358.9,390,1358.9,390Z"/><path id="_Path_69" data-name="&lt;Path&gt;" class="cls-29" d="M1408.5,394.4a153.1,153.1,0,0,1-48.1-18.2,146.8,146.8,0,0,1,99.5,18.7A151,151,0,0,1,1408.5,394.4Z"/><path id="_Path_70" data-name="&lt;Path&gt;" class="cls-30" d="M1394.7,401.6a105.4,105.4,0,0,1-33.9-25.3,102,102,0,0,1,75.3,34.6A106.5,106.5,0,0,1,1394.7,401.6Z"/><path id="_Path_71" data-name="&lt;Path&gt;" class="cls-30" d="M1399.5,384.5a107,107,0,0,1-40.8-11.5,101.2,101.2,0,0,1,82.7,5.3A105.9,105.9,0,0,1,1399.5,384.5Z"/><path id="_Path_72" data-name="&lt;Path&gt;" class="cls-29" d="M1407,376.9a155.9,155.9,0,0,1-50.8-7.1,148.9,148.9,0,0,1,101.1-3.5A155.1,155.1,0,0,1,1407,376.9Z"/><path id="_Path_73" data-name="&lt;Path&gt;" class="cls-29" d="M1335.2,399.6a119.3,119.3,0,0,0,30.3-26.9,115.8,115.8,0,0,0-68.1,41.8A119.5,119.5,0,0,0,1335.2,399.6Z"/><path id="_Path_74" data-name="&lt;Path&gt;" class="cls-30" d="M1347.5,400.1a85,85,0,0,0,17.9-28.3,80.1,80.1,0,0,0-45.8,46.8A84.2,84.2,0,0,0,1347.5,400.1Z"/><path id="_Path_75" data-name="&lt;Path&gt;" class="cls-30" d="M1334.5,388.7a84.7,84.7,0,0,0,28.9-16.8,84.5,84.5,0,0,0-33.3,3.5,83.5,83.5,0,0,0-28.9,16.8A84.5,84.5,0,0,0,1334.5,388.7Z"/><path id="_Path_76" data-name="&lt;Path&gt;" class="cls-29" d="M1329.2,378.6a121.4,121.4,0,0,0,39.5-9.2,117.4,117.4,0,0,0-79.8,4.4A122.4,122.4,0,0,0,1329.2,378.6Z"/><path class="cls-12" d="M1162,394.2s-38.4,104.6-1.1,201.5c0,0-55-13.5-68,17.4,0,0,27.5-180.2,54.8-223S1162,394.2,1162,394.2Z"/><path id="_Path_77" data-name="&lt;Path&gt;" class="cls-29" d="M1112.3,397.3a150.9,150.9,0,0,0,48.5-16.9,146.5,146.5,0,0,0-99.9,16.2A152.8,152.8,0,0,0,1112.3,397.3Z"/><path id="_Path_78" data-name="&lt;Path&gt;" class="cls-30" d="M1125.9,404.9a105.6,105.6,0,0,0,34.5-24.5,101.9,101.9,0,0,0-76.1,32.8A106.6,106.6,0,0,0,1125.9,404.9Z"/><path id="_Path_79" data-name="&lt;Path&gt;" class="cls-30" d="M1121.6,387.7a106.5,106.5,0,0,0,41-10.5,101.9,101.9,0,0,0-82.8,3.2A106.1,106.1,0,0,0,1121.6,387.7Z"/><path id="_Path_80" data-name="&lt;Path&gt;" class="cls-29" d="M1114.2,379.9a154.8,154.8,0,0,0,51-5.9,149.6,149.6,0,0,0-101-6A154.9,154.9,0,0,0,1114.2,379.9Z"/><path id="_Path_81" data-name="&lt;Path&gt;" class="cls-29" d="M1185.4,404.4a119.5,119.5,0,0,1-29.6-27.7,120.6,120.6,0,0,1,37.3,15.8,118.8,118.8,0,0,1,29.7,27.7A120.6,120.6,0,0,1,1185.4,404.4Z"/><path id="_Path_82" data-name="&lt;Path&gt;" class="cls-30" d="M1173.1,404.6a85.6,85.6,0,0,1-17.2-28.7,79.6,79.6,0,0,1,44.6,47.9A84.9,84.9,0,0,1,1173.1,404.6Z"/><path id="_Path_83" data-name="&lt;Path&gt;" class="cls-30" d="M1186.4,393.5a84.1,84.1,0,0,1-28.5-17.5,80.5,80.5,0,0,1,61.7,21.9A83.8,83.8,0,0,1,1186.4,393.5Z"/><path id="_Path_84" data-name="&lt;Path&gt;" class="cls-29" d="M1192,383.5a121.2,121.2,0,0,1-39.3-10.1,117,117,0,0,1,79.6,6.4A121.7,121.7,0,0,1,1192,383.5Z"/><g id="_Group_10" data-name="&lt;Group&gt;"><g id="_Group_11" data-name="&lt;Group&gt;"><path id="_Path_85" data-name="&lt;Path&gt;" class="cls-25" d="M1294.3,139.1c-.7,7.9-5.9,7.6-11.7,7s-10.2-1-9.5-8.9,6-13.9,11.9-13.3C1293.6,124.6,1295,131.2,1294.3,139.1Z"/><path id="_Path_86" data-name="&lt;Path&gt;" class="cls-31" d="M1283.3,174.2s3.8.2,4,3.8a7,7,0,0,1-2.1,5.6S1287.4,177.9,1283.3,174.2Z"/><path id="_Path_87" data-name="&lt;Path&gt;" class="cls-31" d="M1273,173.3s3.8.2,4,3.8a7,7,0,0,1-2.1,5.6S1277.1,176.9,1273,173.3Z"/><path id="_Path_88" data-name="&lt;Path&gt;" class="cls-25" d="M1292,157.9c-1.1-19.7-3.1-18.7-8.6-19.1s-5.2-1.5-11.4,17.3-.1,19.5,7.9,20.3h.5C1285.9,176.9,1293.1,177.4,1292,157.9Z"/><path id="_Path_89" data-name="&lt;Path&gt;" class="cls-25" d="M1277.4,144.3s-5.1-.9-9.7,5.9-9.3,13.7-7.7,14.1,9.4,2.2,12.3-.8S1277.4,144.3,1277.4,144.3Z"/><path id="_Path_90" data-name="&lt;Path&gt;" class="cls-25" d="M1290.2,145.7s2.5.1,2.8,7.6.5,15-.3,15-4.8.3-5.4-3.2S1290.2,145.7,1290.2,145.7Z"/><path id="_Path_91" data-name="&lt;Path&gt;" class="cls-32" d="M1287.9,135.8s-2.2.6-2.4,1.1,1.1,2.6,2.4,2.8a6.8,6.8,0,0,0,2.9-.2Z"/><path id="_Path_92" data-name="&lt;Path&gt;" class="cls-31" d="M1287.2,136s5-2.8,8.2-1.7,3.9,5.8,3.9,5.8l-9.9-.4S1286.5,137.9,1287.2,136Z"/><circle id="_Path_93" data-name="&lt;Path&gt;" cx="1282.3" cy="131.2" r="1.4"/><circle id="_Path_94" data-name="&lt;Path&gt;" cx="1291.6" cy="132" r="1.4"/></g><g id="_Group_12" data-name="&lt;Group&gt;"><path id="_Path_95" data-name="&lt;Path&gt;" class="cls-25" d="M1305.3,140.1c-.7,7.9,4.4,8.5,10.2,9s10.2.8,10.9-7.1-3.4-14.7-9.3-15.3C1308.5,126,1306,132.2,1305.3,140.1Z"/><path id="_Path_96" data-name="&lt;Path&gt;" class="cls-31" d="M1309.8,176.6s-3.7-.5-4.6,3a7.1,7.1,0,0,0,1.1,5.9S1305.1,179.5,1309.8,176.6Z"/><path id="_Path_97" data-name="&lt;Path&gt;" class="cls-31" d="M1320.1,177.5s-3.7-.5-4.6,3a7.1,7.1,0,0,0,1.1,5.9S1315.4,180.4,1320.1,177.5Z"/><path id="_Path_98" data-name="&lt;Path&gt;" class="cls-25" d="M1304.1,159c4.6-19.2,6.4-17.8,11.9-17.3s5.4-.5,8.1,19.1-3.3,19.2-11.3,18.5h-.5C1306.8,178.8,1299.6,178,1304.1,159Z"/><path id="_Path_99" data-name="&lt;Path&gt;" class="cls-25" d="M1321,148.2s5.2,0,8.4,7.6,6.8,15.1,5.1,15.2-9.6.5-12-3S1321,148.2,1321,148.2Z"/><path id="_Path_100" data-name="&lt;Path&gt;" class="cls-25" d="M1308.1,147.3s-2.5-.4-4.1,7-3.2,14.6-2.4,14.8,4.7,1.2,5.9-2.2S1308.1,147.3,1308.1,147.3Z"/><path id="_Path_101" data-name="&lt;Path&gt;" class="cls-32" d="M1310.9,136.9s2.2-.1,2.6.3-.2,2.7-1.3,3.4a6.1,6.1,0,0,1-2.8.7Z"/><path id="_Path_102" data-name="&lt;Path&gt;" class="cls-31" d="M1311.6,136.9s-5.6-1.1-8.3,1-1.8,6.8-1.8,6.8l9.2-3.6S1312.9,138.4,1311.6,136.9Z"/><circle id="_Path_103" data-name="&lt;Path&gt;" cx="1318.5" cy="134.4" r="1.4"/><circle id="_Path_104" data-name="&lt;Path&gt;" cx="1309.2" cy="133.6" r="1.4"/></g></g><g id="_Group_13" data-name="&lt;Group&gt;"><path id="_Path_105" data-name="&lt;Path&gt;" class="cls-33" d="M748.4,1461.3a51,51,0,0,1-7.7,22.7c-7.2,10.8-13.6,27.4-9.8,36.1"/><path id="_Path_106" data-name="&lt;Path&gt;" class="cls-34" d="M728.1,1453.1a49.5,49.5,0,0,0-10.1,21.7c-2.4,12.7-9.5,29.1-18.2,32.7"/><path id="_Path_107" data-name="&lt;Path&gt;" class="cls-34" d="M739.8,1459.4s-10.7,17.2-9.7,30.5-5.1,24.7-14.8,26.2"/><path id="_Path_108" data-name="&lt;Path&gt;" class="cls-34" d="M746.3,1459.3s-5,20.3-13.8,25.5-19.8,10.7-23.9,17.8-3,9.4-3,9.4"/><path id="_Path_109" data-name="&lt;Path&gt;" class="cls-34" d="M723.4,1449.5s-10.4,11.5-3.5,25,2.4,33.4-3.6,38.6"/><path id="_Path_110" data-name="&lt;Path&gt;" class="cls-34" d="M733.7,1456.6s.7,18.2-11,24.6-21.1,5.7-26,17.1"/><path id="_Path_111" data-name="&lt;Path&gt;" class="cls-35" d="M768.9,1461.5c-5,12.3-18,4.5-35.3-2.5s-32.5-10.7-27.5-23,23.1-16.7,40.5-9.6S773.9,1449.1,768.9,1461.5Z"/><path id="_Path_112" data-name="&lt;Path&gt;" class="cls-36" d="M757.5,1460.4c-3.4,8.4-12.2,3.1-23.9-1.7s-21.9-7.1-18.6-15.5,15.7-11.2,27.4-6.5S760.8,1452.1,757.5,1460.4Z"/></g><g id="_Group_14" data-name="&lt;Group&gt;"><path id="_Path_113" data-name="&lt;Path&gt;" class="cls-37" d="M776.9,1517.1a34.1,34.1,0,0,1-5.3,15.4c-4.9,7.4-9.2,18.7-6.6,24.6"/><path id="_Path_114" data-name="&lt;Path&gt;" class="cls-38" d="M763.1,1511.5a33.6,33.6,0,0,0-6.9,14.7c-1.6,8.7-6.4,19.9-12.4,22.3"/><path id="_Path_115" data-name="&lt;Path&gt;" class="cls-38" d="M771.1,1515.8s-7.4,11.7-6.6,20.7-3.5,16.9-10.1,17.9"/><path id="_Path_116" data-name="&lt;Path&gt;" class="cls-38" d="M775.5,1515.7s-3.4,13.8-9.5,17.4-13.4,7.2-16.2,12.1-2,6.4-2,6.4"/><path id="_Path_117" data-name="&lt;Path&gt;" class="cls-38" d="M759.9,1509s-7.1,7.9-2.4,17.1,1.7,22.7-2.4,26.2"/><path id="_Path_118" data-name="&lt;Path&gt;" class="cls-38" d="M766.9,1513.9s.5,12.4-7.5,16.7-14.3,3.9-17.7,11.6"/><path id="_Path_119" data-name="&lt;Path&gt;" class="cls-39" d="M790.9,1517.2c-3.4,8.4-12.3,3.1-24.1-1.7s-22.1-7.3-18.7-15.7,15.7-11.3,27.6-6.5S794.3,1508.8,790.9,1517.2Z"/><path id="_Path_120" data-name="&lt;Path&gt;" class="cls-40" d="M783.1,1516.5c-2.3,5.6-8.3,2.1-16.3-1.2s-14.9-4.9-12.6-10.5,10.6-7.7,18.6-4.4S785.4,1510.8,783.1,1516.5Z"/></g><g id="_Group_15" data-name="&lt;Group&gt;"><path id="_Path_121" data-name="&lt;Path&gt;" class="cls-41" d="M675.9,1506.5a28.9,28.9,0,0,1-4.5,13.3c-4.3,6.4-8,16.2-5.7,21.3"/><path id="_Path_122" data-name="&lt;Path&gt;" class="cls-42" d="M664,1501.7a29.2,29.2,0,0,0-6,12.7c-1.4,7.5-5.5,17.2-10.7,19.3"/><path id="_Path_123" data-name="&lt;Path&gt;" class="cls-42" d="M670.9,1505.4s-6.3,10.1-5.7,17.9-3,14.6-8.7,15.5"/><path id="_Path_124" data-name="&lt;Path&gt;" class="cls-42" d="M674.7,1505.4s-2.9,11.9-8.2,15-11.6,6.2-14,10.4-1.7,5.5-1.7,5.5"/><path id="_Path_125" data-name="&lt;Path&gt;" class="cls-42" d="M661.2,1499.6s-6.1,6.7-2,14.7,1.4,19.6-2.1,22.7"/><path id="_Path_126" data-name="&lt;Path&gt;" class="cls-42" d="M667.3,1503.8s.4,10.7-6.5,14.4-12.4,3.4-15.3,10.1"/><path id="_Path_127" data-name="&lt;Path&gt;" class="cls-43" d="M688,1506.6c-2.9,7.3-10.6,2.7-20.8-1.5s-19.1-6.2-16.2-13.5,13.6-9.7,23.9-5.6S690.9,1499.4,688,1506.6Z"/><path id="_Path_128" data-name="&lt;Path&gt;" class="cls-44" d="M681.3,1506c-2,4.9-7.2,1.8-14.1-1s-12.9-4.2-10.9-9.1,9.2-6.6,16.1-3.8S683.2,1501.1,681.3,1506Z"/></g><g id="_Group_16" data-name="&lt;Group&gt;" class="cls-45"><path id="_Path_129" data-name="&lt;Path&gt;" class="cls-46" d="M1185.6,1543.2l22.6-13.1a1.2,1.2,0,0,1,1.8,1.1v26a1.3,1.3,0,0,1-1.8,1.1l-22.6-13.1A1.1,1.1,0,0,1,1185.6,1543.2Z"/><path id="_Path_130" data-name="&lt;Path&gt;" class="cls-46" d="M1173.2,1533.2s10-9.7,22.1-8.3a1.2,1.2,0,0,1,.8,1.7l-2.5,7Z"/><ellipse id="_Path_131" data-name="&lt;Path&gt;" class="cls-47" cx="1184.6" cy="1543.9" rx="18.7" ry="13.9"/><circle id="_Path_132" data-name="&lt;Path&gt;" class="cls-6" cx="1174.1" cy="1540" r="3.4"/><circle id="_Path_133" data-name="&lt;Path&gt;" cx="1173.8" cy="1540" r="1.8"/><ellipse id="_Path_134" data-name="&lt;Path&gt;" class="cls-47" cx="1165.6" cy="1544.2" rx="1.3" ry="2.4" transform="translate(-595.5 2345.4) rotate(-77.4)"/><ellipse id="_Path_135" data-name="&lt;Path&gt;" class="cls-47" cx="1165.8" cy="1546.7" rx="2.4" ry="1.3" transform="translate(-147.8 123.4) rotate(-5.7)"/><path id="_Path_136" data-name="&lt;Path&gt;" class="cls-48" d="M1182.6,1543.9s3.2,1.4,8.5-.6c0,0,6.6,3.2,4,6C1190,1554.7,1182.6,1543.9,1182.6,1543.9Z"/></g><g id="_Group_17" data-name="&lt;Group&gt;" class="cls-45"><path id="_Path_137" data-name="&lt;Path&gt;" class="cls-46" d="M1122.5,1579.9l-22.6-13a1.2,1.2,0,0,0-1.8,1V1594a1.2,1.2,0,0,0,1.8,1l22.6-13A1.2,1.2,0,0,0,1122.5,1579.9Z"/><path id="_Path_138" data-name="&lt;Path&gt;" class="cls-46" d="M1134.9,1570s-10-9.8-22.1-8.3a1.3,1.3,0,0,0-.9,1.7l2.6,7Z"/><ellipse id="_Path_139" data-name="&lt;Path&gt;" class="cls-47" cx="1123.5" cy="1580.7" rx="18.7" ry="13.9"/><circle id="_Path_140" data-name="&lt;Path&gt;" class="cls-6" cx="1134" cy="1576.7" r="3.4"/><circle id="_Path_141" data-name="&lt;Path&gt;" cx="1134.3" cy="1576.7" r="1.8"/><ellipse id="_Path_142" data-name="&lt;Path&gt;" class="cls-47" cx="1142.5" cy="1581" rx="2.4" ry="1.3" transform="translate(-317 286.9) rotate(-12.6)"/><ellipse id="_Path_143" data-name="&lt;Path&gt;" class="cls-47" cx="1142.2" cy="1583.5" rx="1.3" ry="2.4" transform="translate(-546.8 2562.8) rotate(-84.3)"/><path id="_Path_144" data-name="&lt;Path&gt;" class="cls-48" d="M1125.5,1580.6s-3.3,1.5-8.5-.5c0,0-6.6,3.2-4,6C1118.1,1591.5,1125.5,1580.6,1125.5,1580.6Z"/></g><path id="_Path_145" data-name="&lt;Path&gt;" class="cls-49" d="M2151,541.9H1991V483.2h0a299.6,299.6,0,0,0,159.7.1h.3Z"/><path id="_Path_146" data-name="&lt;Path&gt;" class="cls-50" d="M2151,469.2v63.3c-66.6,20.2-160,.8-160,.8V468.5"/><ellipse id="_Path_147" data-name="&lt;Path&gt;" class="cls-51" cx="2071" cy="468.5" rx="80.1" ry="8.5"/><ellipse id="_Path_148" data-name="&lt;Path&gt;" class="cls-52" cx="2240.7" cy="477.1" rx="58" ry="6.1"/><path id="_Path_149" data-name="&lt;Path&gt;" class="cls-50" d="M2182.8,477.2V524s67.8,14.1,116-.5V477.6"/><path id="_Path_150" data-name="&lt;Path&gt;" class="cls-53" d="M2150.2,469a1.9,1.9,0,0,0,.2-.7c0-4.7-35.8-8.5-80-8.5s-79.8,3.8-79.8,8.5v64.6s93.4,19.4,160-.8V469Z"/><path id="_Path_151" data-name="&lt;Path&gt;" class="cls-25" d="M1990.6,532.1v34.8s86.6,27.4,160.8-.4v-34S2078.7,553.2,1990.6,532.1Z"/><path id="_Path_152" data-name="&lt;Path&gt;" class="cls-54" d="M2298.7,531.8h-116V489.3h0a216.4,216.4,0,0,0,115.7,0h.3Z"/><path id="_Path_153" data-name="&lt;Path&gt;" class="cls-53" d="M2298.4,477.4c.2-.1.2-.3.2-.5,0-3.4-25.9-6.1-57.7-6.1s-57.8,2.7-57.8,6.1c0,.1.1.2.1.3v46.4s67.4,14,115.6-.6V477.4Z"/><g id="_Group_18" data-name="&lt;Group&gt;"><g id="_Group_19" data-name="&lt;Group&gt;"><path id="_Path_154" data-name="&lt;Path&gt;" class="cls-55" d="M2003.6,535.2a6.4,6.4,0,0,1-2.5-3.1,7.1,7.1,0,0,1-.5-4.3,11.7,11.7,0,0,1,1.8-4.1l.7-.8a2.7,2.7,0,0,1,.7-.8c.4-.5,1-.9,1.5-1.4a25,25,0,0,1,3.5-2.1l3.1-1.4a3.4,3.4,0,0,0,.8-.9,4.7,4.7,0,0,0,.4-1.4c.2-1.2.2-2.5.3-3.8a4.1,4.1,0,0,0,.5.9,5.9,5.9,0,0,1,.4.8,6.6,6.6,0,0,1,.6,2,4,4,0,0,1,.1,2.2,4.3,4.3,0,0,1-1.2,2.3,6.6,6.6,0,0,1-1.7,1.4l-1.6,1-1.5.9-1.4,1.1-1.3,1.1-1.2,1.1a14.5,14.5,0,0,0-1.7,2.6A8.7,8.7,0,0,0,2003.6,535.2Z"/><path id="_Path_155" data-name="&lt;Path&gt;" class="cls-56" d="M2004.7,535.3a5.5,5.5,0,0,1-2.2-.2,5.8,5.8,0,0,1-2.1-1,8.6,8.6,0,0,1-3.2-3.6l-.3-.6c-.1-.2-.1-.4-.2-.6a3.4,3.4,0,0,1-.4-1.2,5.1,5.1,0,0,1-.2-1.3v-1.3c0-.3.1-.5.1-.7l.2-.7a9.3,9.3,0,0,1,.4-1.3,19.6,19.6,0,0,1,1.2-2.1l1.1-1.6c.1-.1.2-.2.2-.3s.1-.2.1-.3a.4.4,0,0,0,.1-.3c.1,0,.1-.1.1-.2v-.8a.4.4,0,0,1-.1-.3.4.4,0,0,1-.1-.3v-.2h-.1c0-.1-.1-.2-.1-.3l-.2-.3a.1.1,0,0,1-.1-.1h-.2a.2.2,0,0,0-.2-.2l-.3-.2-.3-.2a4.7,4.7,0,0,0-1.7-.4h-1.9a4,4,0,0,0-1.7.9,2.8,2.8,0,0,1,1.2-1.9,7.2,7.2,0,0,1,2.1-1.2,7.4,7.4,0,0,1,2.6-.2,5.1,5.1,0,0,1,2.6.9l.6.5.5.5.2.3.2.3.4.6.3.7.3.7c0,.3.1.5.1.8s0,.5,0,.8v.4c0,.2,0,.3-.1.4a2.4,2.4,0,0,1-.2.8l-.2.7-.3.6-1.3,1.9a8.5,8.5,0,0,0-1.4,2.9,1.7,1.7,0,0,0-.1.7v.8c0,.3.1.6.1.9s.1.3.1.4v.5a8.9,8.9,0,0,0,1.5,3.3A10.8,10.8,0,0,0,2004.7,535.3Z"/><path id="_Path_156" data-name="&lt;Path&gt;" class="cls-55" d="M2003.7,535.1a3.7,3.7,0,0,0,1.6-1l.9-1.4c.2-.4.4-1,.6-1.5s.1-.3.2-.4v-.2c0-.1,0-.1.1-.2a3.9,3.9,0,0,1,.6-1.1,4.7,4.7,0,0,1,1.9-1.8,4.6,4.6,0,0,1,2.5-.6,5.8,5.8,0,0,1,4,1.9,12.4,12.4,0,0,0-3.7.6,3.8,3.8,0,0,0-2.1,1.6l-.3.6-.2.2v.3l-.3.5a7.5,7.5,0,0,1-1.4,1.7,4.5,4.5,0,0,1-2.1,1.2A2.6,2.6,0,0,1,2003.7,535.1Z"/><path id="_Path_157" data-name="&lt;Path&gt;" class="cls-57" d="M2019.1,521.7l-3.6-.3a9,9,0,0,0-3,.2l-.4.3a.1.1,0,0,0-.1.1l-.2.2-1,1.2-.3.5c-.1.1-.1.2-.2.5s-.2,1.1-.4,1.7v-.4a4.1,4.1,0,0,1-.3,1.6,9.4,9.4,0,0,1-.4,1.6,18.3,18.3,0,0,1-1.4,2.8,10.4,10.4,0,0,1-2.2,2.5,6.5,6.5,0,0,1-2.9,1.1,12.4,12.4,0,0,0,1.7-2.3,23.4,23.4,0,0,0,.9-2.4c.2-.9.4-1.8.5-2.6a6.9,6.9,0,0,0,.2-1.3,8.3,8.3,0,0,0,.2-1.3V525c.2-.5.3-1,.5-1.7a6.1,6.1,0,0,1,.5-1.2,8.6,8.6,0,0,1,.7-1,9.6,9.6,0,0,1,1.5-1.4c0-.1.3-.3.5-.4l.6-.4,1.3-.4a8.2,8.2,0,0,1,2.3.2l1.9.7A11.4,11.4,0,0,1,2019.1,521.7Z"/></g><g id="_Group_20" data-name="&lt;Group&gt;"><path id="_Path_158" data-name="&lt;Path&gt;" class="cls-58" d="M2056.6,541.2a2.2,2.2,0,0,0,1.4,0,3.4,3.4,0,0,0,1.5-.7,8.3,8.3,0,0,0,2.5-3.2l.2-.5c.1-.2.1-.4.2-.6s.3-.7.4-1.1l.3-1.3c0-.4.1-.9.1-1.3s.1-.5.1-.7v-.7a5.3,5.3,0,0,0-.1-1.3,13.2,13.2,0,0,0-.5-2.3c-.2-.7-.4-1.2-.5-1.7s-.1-.3-.1-.4a.4.4,0,0,0-.1-.3v-.9c0-.1.1-.2.1-.3s.1-.2.1-.3.1-.2.1-.3v-.2h0l.2-.3c0-.1.1-.1.1-.2h.1a.1.1,0,0,1,.1-.1c.1-.1.1-.2.2-.2l.2-.2h.2a1.5,1.5,0,0,1,1.1-.2,2.7,2.7,0,0,1,1.2.3,2.4,2.4,0,0,1,1,1.2,3.5,3.5,0,0,0-.5-2.1,4.2,4.2,0,0,0-1.2-1.4,2.5,2.5,0,0,0-1.6-.6,2.7,2.7,0,0,0-1.8.7l-.4.3-.4.5-.2.3-.2.2-.3.6-.3.6a2.5,2.5,0,0,1-.2.7c-.1.2-.1.5-.2.8s-.1.5-.1.8v2.3c0,.2.1.4.1.6s.4,1.5.6,2.1a11.1,11.1,0,0,1,.5,3v.8c0,.2-.1.5-.1.7a2.9,2.9,0,0,1-.2.9.6.6,0,0,1-.1.4v.4a10.7,10.7,0,0,1-1.3,3.1A7.3,7.3,0,0,1,2056.6,541.2Z"/><path id="_Path_159" data-name="&lt;Path&gt;" class="cls-55" d="M2057.3,541.1a2.2,2.2,0,0,1-.9-1.2,5.7,5.7,0,0,1-.4-1.4l-.3-1.6v-.7c-.1,0-.1-.1-.1-.2s-.1-.8-.2-1.2a6.3,6.3,0,0,0-1-2,2.3,2.3,0,0,0-1.6-.8,3,3,0,0,0-2.7,1.4,7,7,0,0,1,2.3,1,4,4,0,0,1,1.1,1.9c0,.1.1.4.1.6a.3.3,0,0,0,.1.2v.3a.9.9,0,0,1,.1.5,5.4,5.4,0,0,0,.8,1.9,2.8,2.8,0,0,0,1.2,1.4A1.2,1.2,0,0,0,2057.3,541.1Z"/><path id="_Path_160" data-name="&lt;Path&gt;" class="cls-57" d="M2049.1,526h2.3a4.3,4.3,0,0,1,1.9.6c.1.1.2.2.2.3h.1v.2a12.1,12.1,0,0,1,.5,1.4l.2.5v.5c0,.4.1,1.1.1,1.7v1.3c0,.5.1,1,.1,1.6s.3,2,.5,3a12.7,12.7,0,0,0,1.1,2.6,2.9,2.9,0,0,0,1.8,1.5,11.3,11.3,0,0,1-.8-2.4,23,23,0,0,1-.3-2.6,22.6,22.6,0,0,1,0-2.6,5.6,5.6,0,0,1,0-1.3V529c-.1-.4-.1-.8-.2-1.2a3.6,3.6,0,0,0-.4-1.1,7.7,7.7,0,0,0-.7-1.6l-.3-.4a1,1,0,0,0-.4-.5l-.7-.5a3.9,3.9,0,0,0-1.5-.1l-1.3.5A7.7,7.7,0,0,0,2049.1,526Z"/><path id="_Path_161" data-name="&lt;Path&gt;" class="cls-55" d="M2057.3,541.2a5.6,5.6,0,0,0,2-2.8,11.2,11.2,0,0,0,.8-4.2,18.5,18.5,0,0,0-.6-4.2l-.4-.9-.3-.9a10.9,10.9,0,0,1-.8-1.5,13.7,13.7,0,0,0-2-2.6,15.2,15.2,0,0,1-1.8-1.8,1.9,1.9,0,0,1-.4-.9,6.6,6.6,0,0,1-.1-1.5c0-1.1.2-2.4.3-3.7a2,2,0,0,0-.4.8,2,2,0,0,0-.4.8,9.6,9.6,0,0,0-.7,1.8,14.6,14.6,0,0,0-.3,2.2,6.6,6.6,0,0,0,.5,2.5,6.2,6.2,0,0,0,1,1.6l.9,1.1a10.5,10.5,0,0,0,.8,1.1,8189045598211.2,8189045598211.2,0,0,0,1.4,2.4l.6,1.3a9,9,0,0,1,.8,2.8A13.1,13.1,0,0,1,2057.3,541.2Z"/></g><g id="_Group_21" data-name="&lt;Group&gt;"><path id="_Path_162" data-name="&lt;Path&gt;" class="cls-55" d="M2138.8,536a6.7,6.7,0,0,0,2.5-3.2,7,7,0,0,0,.5-4.3,11.2,11.2,0,0,0-1.8-4,4127314027082,4127314027082,0,0,0-1.4-1.6,10,10,0,0,0-1.5-1.4,18.6,18.6,0,0,0-3.5-2.2l-3.1-1.4a2,2,0,0,1-.8-.8,5.4,5.4,0,0,1-.4-1.5c-.2-1.1-.2-2.4-.3-3.7l-.5.8-.4.9a10.7,10.7,0,0,0-.7,1.9,5.9,5.9,0,0,0,0,2.3,4.3,4.3,0,0,0,1.2,2.3,10.5,10.5,0,0,0,1.7,1.4l1.6,1,1.5.9,1.4,1,1.3,1.1,1.1,1.2a9.3,9.3,0,0,1,1.8,2.6A8.7,8.7,0,0,1,2138.8,536Z"/><path id="_Path_163" data-name="&lt;Path&gt;" class="cls-58" d="M2137.7,536.1a8.3,8.3,0,0,0,2.2-.3,7.8,7.8,0,0,0,2.1-.9,8.8,8.8,0,0,0,3.2-3.7l.3-.5c.1-.2.1-.4.2-.6a5.6,5.6,0,0,0,.4-1.2,5.1,5.1,0,0,0,.2-1.3v-1.4c0-.2-.1-.4-.1-.7l-.2-.6a5,5,0,0,0-.4-1.3,19.6,19.6,0,0,0-1.2-2.1,14.2,14.2,0,0,0-1.1-1.6c-.1-.2-.2-.3-.2-.4a.4.4,0,0,1-.1-.3c-.1-.1-.1-.1-.1-.2a.3.3,0,0,1-.1-.2c0-.1-.1-.2,0-.3V518c.1-.1.1-.2.1-.4s.1-.2.1-.3h.1c0-.1,0-.1.1-.2s.1-.2.1-.3.2-.1.2-.2.1-.1.1-.2h.2l.2-.2.3-.2.3-.2,1.7-.4a6.5,6.5,0,0,1,1.9.2,2.6,2.6,0,0,1,1.7.9,2.8,2.8,0,0,0-1.2-2,5.3,5.3,0,0,0-2.1-1.1,5.7,5.7,0,0,0-2.6-.3,5.2,5.2,0,0,0-2.6,1l-.6.5-.5.5-.2.3-.2.3-.4.6-.3.6-.3.7c0,.3-.1.6-.1.8a2.7,2.7,0,0,0,0,.9v.4a.8.8,0,0,0,.1.4,1.9,1.9,0,0,0,.2.7l.2.7.3.6,1.3,1.9a8.9,8.9,0,0,1,1.4,3,1.5,1.5,0,0,1,.1.7v.8c0,.3-.1.5-.1.8s-.1.3-.1.5v.4a8.2,8.2,0,0,1-1.5,3.3A9.7,9.7,0,0,1,2137.7,536.1Z"/><path id="_Path_164" data-name="&lt;Path&gt;" class="cls-30" d="M2138.7,535.8a3.7,3.7,0,0,1-1.6-1l-.9-1.3a10.1,10.1,0,0,0-.7-1.5c0-.2-.1-.3-.1-.5v-.4a6,6,0,0,0-.6-1.1,4.7,4.7,0,0,0-1.9-1.8,4.5,4.5,0,0,0-2.5-.5,5.1,5.1,0,0,0-4,1.9,12.4,12.4,0,0,1,3.7.6,3.4,3.4,0,0,1,2.1,1.6l.3.6c.1,0,.1.1.2.2v.2l.2.5a9,9,0,0,0,1.5,1.8,4.3,4.3,0,0,0,2.1,1.1A2.6,2.6,0,0,0,2138.7,535.8Z"/><path id="_Path_165" data-name="&lt;Path&gt;" class="cls-29" d="M2123.3,522.4l3.6-.3a8.6,8.6,0,0,1,3,.3l.4.2h.1l.2.2a14.7,14.7,0,0,0,1,1.3l.3.4c0,.2.1.3.2.5a13.6,13.6,0,0,0,.4,1.7v-.3a4.1,4.1,0,0,0,.3,1.6,8.3,8.3,0,0,0,.4,1.5,15.5,15.5,0,0,0,1.4,2.9,8.4,8.4,0,0,0,2.2,2.4,4.6,4.6,0,0,0,2.9,1.1,11.8,11.8,0,0,1-1.7-2.2,25,25,0,0,1-.9-2.5,20,20,0,0,1-.5-2.6,2960821817966.4,2960821817966.4,0,0,0-.4-2.6h0v-.2c-.2-.6-.3-1.1-.5-1.8l-.5-1.2a8.6,8.6,0,0,0-.7-1l-1.5-1.4-.5-.4-.6-.3a3.7,3.7,0,0,0-1.4-.4,5.3,5.3,0,0,0-2.2.2,6.2,6.2,0,0,0-1.9.7A11.6,11.6,0,0,0,2123.3,522.4Z"/></g><g id="_Group_22" data-name="&lt;Group&gt;"><path id="_Path_166" data-name="&lt;Path&gt;" class="cls-55" d="M2111.4,539.4a11.1,11.1,0,0,0,2.4-5,20.3,20.3,0,0,0,.3-7,26.8,26.8,0,0,0-2-6.6,9.1,9.1,0,0,0-.7-1.4l-.7-1.3-1.6-2.3a30.5,30.5,0,0,0-3.6-3.6c-1.2-1-2.5-1.7-3.2-2.4a3.2,3.2,0,0,1-.8-1.4,7.8,7.8,0,0,1-.5-2.4c-.3-1.9-.3-4-.5-6.1-.1.4-.3.9-.4,1.4s-.3.9-.4,1.4a26.5,26.5,0,0,0-.6,3,15.2,15.2,0,0,0,0,3.7,11.4,11.4,0,0,0,1.3,3.8,16.6,16.6,0,0,0,1.9,2.3l1.6,1.7,1.6,1.6c.5.5.9,1.1,1.4,1.7l1.3,1.8a21.4,21.4,0,0,1,1.3,1.9,32.5,32.5,0,0,1,1.8,4.3A22.2,22.2,0,0,1,2111.4,539.4Z"/><path id="_Path_167" data-name="&lt;Path&gt;" class="cls-58" d="M2110.3,539.4a3.4,3.4,0,0,0,2.2-.2,5.1,5.1,0,0,0,2.1-1.5,12.8,12.8,0,0,0,3.1-5.8l.2-.8c.1-.3.1-.6.2-1l.3-1.9a13.6,13.6,0,0,0,.2-2.1,17,17,0,0,0-.1-2.2c0-.4-.1-.7-.1-1.1l-.2-1.1a16,16,0,0,0-.5-2.1c-.4-1.3-.9-2.5-1.3-3.5l-1.2-2.6a1.4,1.4,0,0,1-.2-.6c-.1-.1-.1-.3-.2-.4s0-.3-.1-.4v-1.2c0-.2.1-.3.1-.5v-.5a1.1,1.1,0,0,0,.1-.5v-.3c0-.1,0-.1.1-.2s.1-.3.1-.5l.2-.4v-.4l.3-.3.2-.3.4-.3a2.8,2.8,0,0,1,1.6-.5,3.3,3.3,0,0,1,1.9.3,3.6,3.6,0,0,1,1.8,1.5,6.6,6.6,0,0,0-1.3-3.2,6.9,6.9,0,0,0-2.2-2,4.7,4.7,0,0,0-2.6-.5,4.2,4.2,0,0,0-2.6,1.5,1.8,1.8,0,0,0-.5.7l-.5.8-.2.5-.2.4-.4,1a3.6,3.6,0,0,0-.2,1.1l-.3,1.1a6.2,6.2,0,0,1-.1,1.3v2a1.3,1.3,0,0,0,.1.6,4.3,4.3,0,0,0,.2,1.2l.3,1.2.3,1c.5,1.2,1,2.2,1.3,3.1a14.3,14.3,0,0,1,1.6,4.8,4.9,4.9,0,0,1,.1,1.2,5.3,5.3,0,0,1,.1,1.3c0,.4-.1.9-.1,1.4v1.4a18,18,0,0,1-1.3,5.2A13,13,0,0,1,2110.3,539.4Z"/><path id="_Path_168" data-name="&lt;Path&gt;" class="cls-30" d="M2111.3,539.1a3.8,3.8,0,0,1-1.6-1.7,11.2,11.2,0,0,1-1-2.2c-.2-.8-.5-1.6-.7-2.5a6.4,6.4,0,0,1-.2-.7v-.3a.8.8,0,0,0-.1-.4l-.6-1.8a8.3,8.3,0,0,0-2-3,3.7,3.7,0,0,0-2.6-1,4.7,4.7,0,0,0-3.9,2.9,10,10,0,0,1,3.8,1.1,5.8,5.8,0,0,1,2.1,2.7,4.2,4.2,0,0,0,.4,1c0,.1.1.3.1.4l.2.4a2.4,2.4,0,0,0,.2.8,19.9,19.9,0,0,0,1.6,2.9,5.3,5.3,0,0,0,2.2,2A1.7,1.7,0,0,0,2111.3,539.1Z"/><path id="_Path_169" data-name="&lt;Path&gt;" class="cls-57" d="M2095.3,516.7l3.6-.3a5.6,5.6,0,0,1,3,.6l.4.4c.1,0,.1.1.1.2s.1,0,.2.3l1.1,2,.3.8a4.5,4.5,0,0,0,.2.8c.1.7.3,1.8.5,2.8v-.6c.1,1,.3,1.8.4,2.6s.3,1.7.5,2.5a36.8,36.8,0,0,0,1.5,4.7,19.1,19.1,0,0,0,2.3,4,5.2,5.2,0,0,0,3.1,2,14.6,14.6,0,0,1-1.8-3.8,23.4,23.4,0,0,1-1.1-4c-.2-1.4-.5-2.8-.7-4.2s-.1-1.4-.2-2.1a16.5,16.5,0,0,1-.2-2.1v-.5c-.2-.9-.3-1.8-.5-2.9s-.3-1.3-.6-2a12.6,12.6,0,0,0-.7-1.6c-.6-1-1.1-1.7-1.6-2.4s-.3-.4-.5-.7l-.7-.6a3.8,3.8,0,0,0-1.3-.6,4.4,4.4,0,0,0-2.3.2,8.1,8.1,0,0,0-1.8,1A11.4,11.4,0,0,0,2095.3,516.7Z"/></g><g id="_Group_23" data-name="&lt;Group&gt;"><path id="_Path_170" data-name="&lt;Path&gt;" class="cls-29" d="M2025.4,538.9a10.6,10.6,0,0,0,2.4-5,20.3,20.3,0,0,0,.3-7,24.8,24.8,0,0,0-2-6.5,6.1,6.1,0,0,0-.7-1.4c-.2-.5-.5-.9-.7-1.3l-1.6-2.3a21.2,21.2,0,0,0-3.6-3.7,37.8,37.8,0,0,1-3.2-2.4,2.7,2.7,0,0,1-.8-1.4,7.8,7.8,0,0,1-.5-2.4,56.8,56.8,0,0,1-.4-6.1,7.8,7.8,0,0,0-.5,1.4c-.1.5-.3.9-.4,1.4a28.4,28.4,0,0,0-.6,3.1,14.4,14.4,0,0,0,0,3.6,10.7,10.7,0,0,0,1.3,3.8,13.3,13.3,0,0,0,1.9,2.4l1.6,1.6,1.6,1.6c.5.5.9,1.1,1.4,1.7l1.3,1.8,1.3,2a24.1,24.1,0,0,1,1.8,4.3A21.8,21.8,0,0,1,2025.4,538.9Z"/><path id="_Path_171" data-name="&lt;Path&gt;" class="cls-59" d="M2024.3,539a4.2,4.2,0,0,0,2.2-.3,5.1,5.1,0,0,0,2.1-1.5,13,13,0,0,0,3.1-5.7l.2-.9c.1-.3.1-.6.2-.9a10.8,10.8,0,0,0,.3-1.9,14.9,14.9,0,0,0,.2-2.1,15.5,15.5,0,0,0-.1-2.2c0-.4-.1-.8-.1-1.2l-.2-1.1a16,16,0,0,0-.5-2.1c-.4-1.3-.9-2.4-1.3-3.4s-.9-1.9-1.2-2.7-.1-.4-.2-.5-.1-.3-.2-.5,0-.3-.1-.4v-.4c0-.1-.1-.2-.1-.4v-.4a4.3,4.3,0,0,0,.1-.5v-.5a.7.7,0,0,0,.1-.5v-.3a.3.3,0,0,1,.1-.2c0-.1.1-.3.1-.4l.2-.4c0-.1.1-.2.1-.3h.1l.3-.4.3-.3.3-.2a2.3,2.3,0,0,1,1.6-.6,4.2,4.2,0,0,1,1.9.3,3.3,3.3,0,0,1,1.8,1.6,7,7,0,0,0-1.3-3.3,5.6,5.6,0,0,0-2.2-1.9,4,4,0,0,0-2.6-.6,4.2,4.2,0,0,0-2.6,1.5l-.5.7-.5.8-.2.5-.2.5-.4.9a3.6,3.6,0,0,0-.2,1.1l-.3,1.1a5.7,5.7,0,0,1-.1,1.3v2a1.3,1.3,0,0,0,.1.6,5.9,5.9,0,0,0,.2,1.3l.3,1.1.3,1c.5,1.3,1,2.3,1.4,3.2a16.9,16.9,0,0,1,1.5,4.7,4.9,4.9,0,0,1,.1,1.2,5.7,5.7,0,0,1,.1,1.3,7.1,7.1,0,0,1-.1,1.4v1.4a17.9,17.9,0,0,1-1.3,5.3A14.2,14.2,0,0,1,2024.3,539Z"/><path id="_Path_172" data-name="&lt;Path&gt;" class="cls-55" d="M2025.3,538.6a4.1,4.1,0,0,1-1.6-1.6,16,16,0,0,1-1-2.3c-.2-.7-.5-1.6-.7-2.5s-.1-.4-.2-.6v-.4a.4.4,0,0,0-.1-.3l-.6-1.9a7.9,7.9,0,0,0-2-2.9,4.5,4.5,0,0,0-2.6-1.1,4.9,4.9,0,0,0-3.9,3,10,10,0,0,1,3.8,1.1,5.3,5.3,0,0,1,2.1,2.7,6.9,6.9,0,0,0,.4,1,1,1,0,0,1,.1.3l.2.4c.1.3.1.6.2.8a21.1,21.1,0,0,0,1.6,3,5,5,0,0,0,2.2,1.9A1.7,1.7,0,0,0,2025.3,538.6Z"/><path id="_Path_173" data-name="&lt;Path&gt;" class="cls-60" d="M2009.3,516.3l3.6-.4a5.6,5.6,0,0,1,3,.6l.4.4c.1.1.1.1.1.2l.2.3,1.1,2a3.4,3.4,0,0,0,.3.8c.1.3.1.5.2.8s.3,1.8.5,2.8v-.6c.1,1,.3,1.8.4,2.6s.3,1.7.5,2.5a33.7,33.7,0,0,0,1.5,4.8,22,22,0,0,0,2.3,4,5,5,0,0,0,3.1,1.9,14.1,14.1,0,0,1-1.8-3.7,27.5,27.5,0,0,1-1.1-4.1c-.2-1.3-.5-2.7-.6-4.2a15.2,15.2,0,0,1-.3-2.1,16.8,16.8,0,0,1-.2-2v-.6c-.2-.9-.3-1.7-.5-2.9a7,7,0,0,0-.6-1.9,14.7,14.7,0,0,0-.7-1.7l-1.6-2.3a2.3,2.3,0,0,0-.5-.7c-.2-.2-.4-.5-.7-.6a2.8,2.8,0,0,0-1.3-.7,4,4,0,0,0-2.2.2,7.2,7.2,0,0,0-1.9,1.1A11.6,11.6,0,0,0,2009.3,516.3Z"/></g><g id="_Group_24" data-name="&lt;Group&gt;"><path id="_Path_174" data-name="&lt;Path&gt;" class="cls-57" d="M2089.8,515.5c-1.2.2-2.4.3-3.6.6a5.4,5.4,0,0,0-2.7,1.4l-.3.5v.5c-.2.8-.4,1.6-.5,2.3s-.1.6-.1.8v.8c.1.7.2,1.8.3,2.8v-.5l.3,2.6a21.1,21.1,0,0,1,.2,2.5,41,41,0,0,1-.2,5,21.2,21.2,0,0,1-1.1,4.5,4.8,4.8,0,0,1-2.4,2.6,18.7,18.7,0,0,0,.7-4,29.5,29.5,0,0,0-.1-4.2c-.1-1.4-.3-2.8-.5-4.2a16.6,16.6,0,0,0-.3-2.2l-.3-2v-.5c-.1-1-.2-1.8-.3-3v-2q.2-1,.3-1.8c.3-1,.6-1.8.9-2.6a4.7,4.7,0,0,1,.3-.9l.5-.7a2.6,2.6,0,0,1,1.1-1,3.6,3.6,0,0,1,2.2-.4,5.4,5.4,0,0,1,2.1.5A12.9,12.9,0,0,1,2089.8,515.5Z"/><path id="_Path_175" data-name="&lt;Path&gt;" class="cls-55" d="M2080.3,541.6a10.9,10.9,0,0,1-3.6-4.2,17.7,17.7,0,0,1-2.1-6.6,26.4,26.4,0,0,1,.1-6.9l.3-1.5a8.3,8.3,0,0,1,.4-1.5,19.9,19.9,0,0,1,.9-2.6,24,24,0,0,1,2.5-4.5,37.8,37.8,0,0,0,2.4-3.2,2.6,2.6,0,0,0,.4-1.5,10.9,10.9,0,0,0-.1-2.5c-.3-1.8-.8-3.9-1.3-5.9l.9,1.1.7,1.3a24.4,24.4,0,0,1,1.4,2.8,16.1,16.1,0,0,1,1,3.5,8.7,8.7,0,0,1-.3,4,12.6,12.6,0,0,1-1.1,2.8l-1.2,2-1,1.9c-.4.7-.7,1.4-1,2s-.5,1.4-.8,2.2l-.6,2.2a17.6,17.6,0,0,0-.6,4.6A22.8,22.8,0,0,0,2080.3,541.6Z"/><path id="_Path_176" data-name="&lt;Path&gt;" class="cls-56" d="M2081.5,541.3a3.7,3.7,0,0,1-2.3.4,5.9,5.9,0,0,1-2.4-.9,13.6,13.6,0,0,1-4.5-4.7l-.4-.8-.5-.8-.8-1.8c-.2-.6-.5-1.2-.7-2a16,16,0,0,1-.5-2.1,4.3,4.3,0,0,1-.2-1.1v-1.1a17,17,0,0,1-.1-2.2c0-1.3.2-2.6.3-3.7s.4-2,.5-2.9v-1c.1-.2,0-.3,0-.4v-.4a385339219122.9,385339219122.9,0,0,1-.2-.8,4.3,4.3,0,0,1-.1-.5c-.1-.1-.1-.3-.2-.4l-.3-.5v-.2a.3.3,0,0,0-.1-.2l-.3-.5-.3-.3v-.2h-.2l-.3-.3-.4-.2h-.4a3.2,3.2,0,0,0-1.7-.2,5.3,5.3,0,0,0-1.7.8,3.8,3.8,0,0,0-1.4,2,7.6,7.6,0,0,1,.4-3.4,8.9,8.9,0,0,1,1.6-2.5,3.7,3.7,0,0,1,2.3-1.2,4.3,4.3,0,0,1,3,.7,1.8,1.8,0,0,0,.7.5l.7.7.3.4.3.4.6.8.6,1a9.3,9.3,0,0,0,.5,1c.1.4.3.8.4,1.2s.2.9.4,1.3v.6c0,.3.1.5.1.7s.1.9.1,1.3v2.2a27.5,27.5,0,0,1-.5,3.4,17.2,17.2,0,0,0-.2,5,5,5,0,0,0,.2,1.2l.3,1.2.4,1.3.3.7.2.7a24,24,0,0,0,2.7,4.7A12.6,12.6,0,0,0,2081.5,541.3Z"/><path id="_Path_177" data-name="&lt;Path&gt;" class="cls-55" d="M2080.4,541.3a4,4,0,0,0,1.1-2,9.9,9.9,0,0,0,.3-2.4,24.4,24.4,0,0,0,.1-2.7v-1.4c.1-.6.1-1.3.2-1.9a8.5,8.5,0,0,1,1.1-3.4,3.9,3.9,0,0,1,2.2-1.7,4.5,4.5,0,0,1,4.5,1.8,9.9,9.9,0,0,0-3.3,2.1,5.2,5.2,0,0,0-1.3,3.1,3.7,3.7,0,0,0-.1,1.1v1.6a27.2,27.2,0,0,1-.7,3.3,5.3,5.3,0,0,1-1.6,2.4A1.7,1.7,0,0,1,2080.4,541.3Z"/></g><g id="_Group_25" data-name="&lt;Group&gt;"><path id="_Path_178" data-name="&lt;Path&gt;" class="cls-55" d="M2037.8,539.9a6.4,6.4,0,0,1-1.5-3.1,10.3,10.3,0,0,1-.1-4.3,13.1,13.1,0,0,1,1.2-4.1c.1-.3.3-.5.4-.8a5.6,5.6,0,0,1,.5-.8,7.1,7.1,0,0,1,1-1.4,12.1,12.1,0,0,1,2.2-2.3c.7-.6,1.5-1,2-1.5a2.8,2.8,0,0,0,.5-.8q.1-.6.3-1.5c.1-1.2.2-2.5.2-3.8a3.2,3.2,0,0,1,.3.9l.3.8a12.5,12.5,0,0,1,.3,1.9,8.8,8.8,0,0,1,0,2.3,5.7,5.7,0,0,1-.8,2.3,11.8,11.8,0,0,1-1.1,1.5l-1.1,1-.9,1-.9,1-.8,1.1-.8,1.2a21.8,21.8,0,0,0-1.1,2.7A13.7,13.7,0,0,0,2037.8,539.9Z"/><path id="_Path_179" data-name="&lt;Path&gt;" class="cls-60" d="M2038.5,539.9a3.4,3.4,0,0,1-1.4-.1,3.8,3.8,0,0,1-1.3-1,9.7,9.7,0,0,1-1.9-3.5v-.6a.7.7,0,0,1-.1-.5,5,5,0,0,1-.2-1.2,5.3,5.3,0,0,1-.1-1.3v-1.4c0-.2.1-.4.1-.6V529l.3-1.3.8-2.2.8-1.6c0-.1.1-.2.1-.3s.1-.2.1-.3V523c.1-.1.1-.1.1-.2v-1.1a.4.4,0,0,1-.1-.3v-.2a.1.1,0,0,1-.1-.1.4.4,0,0,0-.1-.3c0-.1-.1-.2-.1-.3a.1.1,0,0,0-.1-.1h0c-.1-.1-.1-.2-.2-.2l-.2-.2c0-.1-.1-.1-.2-.2a1.7,1.7,0,0,0-1-.3,2.3,2.3,0,0,0-1.1.2,2.4,2.4,0,0,0-1.2.9,7,7,0,0,1,.8-2,5.3,5.3,0,0,1,1.4-1.2,2.2,2.2,0,0,1,1.6-.3,2.4,2.4,0,0,1,1.6.9c.1.1.2.3.4.4l.3.6v.5l.2.6c.1.2.1.5.2.7s.1.4.1.7a1.9,1.9,0,0,1,.1.8v1.2c0,.1-.1.3-.1.4s-.1.5-.1.8l-.2.7a1.4,1.4,0,0,0-.2.6l-.8,1.9a9.6,9.6,0,0,0-1,3,1.5,1.5,0,0,0-.1.7v1.6a.9.9,0,0,0,.1.5v.4a15.9,15.9,0,0,0,.8,3.3A10,10,0,0,0,2038.5,539.9Z"/><path id="_Path_180" data-name="&lt;Path&gt;" class="cls-55" d="M2037.9,539.7a3.2,3.2,0,0,0,1-1l.6-1.4a8.3,8.3,0,0,0,.4-1.5l.2-.4v-.3a.3.3,0,0,1,.1-.2,4.9,4.9,0,0,1,.4-1.1,4.7,4.7,0,0,1,1.2-1.8,2.3,2.3,0,0,1,1.6-.7,2.9,2.9,0,0,1,2.4,1.8,6.9,6.9,0,0,0-2.3.7,3.3,3.3,0,0,0-1.3,1.7l-.3.6v.5a.8.8,0,0,0-.2.5,16.2,16.2,0,0,1-1,1.8,3.7,3.7,0,0,1-1.3,1.2A1.1,1.1,0,0,1,2037.9,539.7Z"/><path id="_Path_181" data-name="&lt;Path&gt;" class="cls-59" d="M2047.8,525.9l-2.2-.2a3.8,3.8,0,0,0-1.9.4.2.2,0,0,0-.2.2.1.1,0,0,0-.1.1c0,.1,0,.1-.1.2l-.7,1.3-.2.5c0,.1-.1.2-.1.4s-.2,1.1-.3,1.8v-.4a7.8,7.8,0,0,1-.2,1.6l-.3,1.6c-.3,1-.6,1.9-1,2.9a8,8,0,0,1-1.4,2.4,2.7,2.7,0,0,1-1.9,1.2,7,7,0,0,0,1.1-2.3,21.7,21.7,0,0,0,.7-2.4c.2-.9.3-1.8.4-2.6s.1-.9.2-1.4.1-.9.1-1.2v-.4l.4-1.8c.1-.3.2-.8.3-1.2s.3-.7.5-1a8.5,8.5,0,0,1,.9-1.4c.1-.1.2-.3.4-.4a.8.8,0,0,1,.4-.4c.3-.2.5-.4.8-.4a3.2,3.2,0,0,1,1.4.1l1.2.7A6.3,6.3,0,0,1,2047.8,525.9Z"/></g><g id="_Group_26" data-name="&lt;Group&gt;"><path id="_Path_182" data-name="&lt;Path&gt;" class="cls-60" d="M2093,540.9a6.4,6.4,0,0,1-1.5-3.1,12.2,12.2,0,0,1-.2-4.3,16.4,16.4,0,0,1,1.2-4.1l.5-.8a5.9,5.9,0,0,1,.4-.8l1-1.4a12.5,12.5,0,0,1,2.3-2.3,18.1,18.1,0,0,0,1.9-1.5,1.7,1.7,0,0,0,.6-.8q.2-.6.3-1.5c.1-1.2.1-2.5.2-3.8l.3.9a2.4,2.4,0,0,1,.2.8,12.9,12.9,0,0,1,.4,1.9,8.8,8.8,0,0,1,0,2.3,5.7,5.7,0,0,1-.8,2.3,6.5,6.5,0,0,1-1.2,1.5l-1,1-.9,1-.9,1-.8,1.1-.8,1.2a9,9,0,0,0-1.1,2.7A13.7,13.7,0,0,0,2093,540.9Z"/><path id="_Path_183" data-name="&lt;Path&gt;" class="cls-58" d="M2093.7,540.9a3.3,3.3,0,0,1-1.4-.1,3.8,3.8,0,0,1-1.3-.9,9.5,9.5,0,0,1-1.9-3.6v-.5c-.1-.2-.1-.4-.2-.6a5,5,0,0,0-.2-1.2,5.6,5.6,0,0,1,0-1.3,3.3,3.3,0,0,1,0-1.4,1.3,1.3,0,0,1,.1-.6V530l.3-1.3a11.3,11.3,0,0,1,.8-2.2l.7-1.6.2-.3a.4.4,0,0,1,.1-.3V524c0-.1.1-.1.1-.2V523c-.1-.1,0-.2-.1-.3v-.5h0a.4.4,0,0,1-.1-.3c0-.1-.1-.2-.1-.3h-.1a.1.1,0,0,0-.1-.1v-.2l-.2-.2-.2-.2a1.7,1.7,0,0,0-1-.3,2.5,2.5,0,0,0-1.2.2,2.3,2.3,0,0,0-1.1.9,5,5,0,0,1,.8-2,5.3,5.3,0,0,1,1.4-1.2,2.2,2.2,0,0,1,1.6-.3,2.6,2.6,0,0,1,1.6.9l.3.4.3.6.2.2v.3l.2.6c.1.2.1.5.2.7s.1.4.1.7a2.5,2.5,0,0,0,.1.8v1.6c-.1.2-.1.5-.2.8v.7l-.3.6a8.4,8.4,0,0,1-.8,1.9,9.3,9.3,0,0,0-.9,3,1.5,1.5,0,0,0-.1.7v.8a2.1,2.1,0,0,0,0,.8v.9a11.4,11.4,0,0,0,.8,3.3A6.8,6.8,0,0,0,2093.7,540.9Z"/><path id="_Path_184" data-name="&lt;Path&gt;" class="cls-61" d="M2093.1,540.7a3.2,3.2,0,0,0,1-1,5.8,5.8,0,0,0,.5-1.4,8.8,8.8,0,0,0,.5-1.5c0-.2.1-.3.1-.4v-.5a4.9,4.9,0,0,0,.4-1.1,6.4,6.4,0,0,1,1.3-1.8,2.3,2.3,0,0,1,1.6-.7,3.1,3.1,0,0,1,2.4,1.8,6.9,6.9,0,0,0-2.3.7,3.4,3.4,0,0,0-1.4,1.7c-.1.2-.1.4-.2.6v.5a4.3,4.3,0,0,0-.1.5,16.2,16.2,0,0,1-1,1.8,3.2,3.2,0,0,1-1.4,1.2A1,1,0,0,1,2093.1,540.7Z"/><path id="_Path_185" data-name="&lt;Path&gt;" class="cls-57" d="M2103,526.9l-2.3-.2a3.2,3.2,0,0,0-1.8.4l-.3.2h0c-.1.1-.1.1-.1.2l-.7,1.3c-.1.2-.2.3-.2.5a2,2,0,0,0-.1.5c-.1.4-.2,1-.4,1.7v-.4a10,10,0,0,0-.2,1.6,9.4,9.4,0,0,1-.4,1.6,16.1,16.1,0,0,1-.9,2.9,10.8,10.8,0,0,1-1.4,2.4,3.6,3.6,0,0,1-1.9,1.3,12.8,12.8,0,0,0,1.1-2.4,16.8,16.8,0,0,0,.7-2.4c.1-.9.3-1.8.4-2.6s.1-.9.1-1.4.1-.9.2-1.2v-.4c.1-.5.2-1,.3-1.8a4.9,4.9,0,0,1,.4-1.1,3.7,3.7,0,0,1,.5-1.1,8.5,8.5,0,0,1,.9-1.4c0-.1.2-.3.3-.4l.5-.4a1.2,1.2,0,0,1,.8-.4,3.3,3.3,0,0,1,1.4.1,4.1,4.1,0,0,1,1.1.7A6.5,6.5,0,0,1,2103,526.9Z"/></g></g><g id="_Group_27" data-name="&lt;Group&gt;"><g id="_Group_28" data-name="&lt;Group&gt;"><path id="_Compound_Path_" data-name="&lt;Compound Path&gt;" class="cls-62" d="M2272.1,525.5a1.6,1.6,0,0,1-1.6-1.1c0-.1-1.4-5.7-1.3-6.8h0c0-.4,0-3.7-.2-6.6a1.8,1.8,0,0,1,1.7-1.8,1.7,1.7,0,0,1,1.7,1.7c.2,3.9.2,6.3.2,7a48.6,48.6,0,0,0,1.1,5.5,1.6,1.6,0,0,1-1.1,2Zm.5-7.6v0Z"/></g><g id="_Group_29" data-name="&lt;Group&gt;"><path id="_Path_186" data-name="&lt;Path&gt;" class="cls-62" d="M2273.6,526.9h-.2a1.8,1.8,0,0,1-1.5-1.9l.8-6c.1-.2.7-4.9,1.4-7.3s-.8-4.1-2.1-6.4a1.8,1.8,0,0,1,.7-2.3,1.7,1.7,0,0,1,2.3.7c.8,1.4,3.1,6.1,2.3,8.9a66.9,66.9,0,0,0-1.2,6.9l-.8,5.9A1.7,1.7,0,0,1,2273.6,526.9Z"/></g><g id="_Group_30" data-name="&lt;Group&gt;"><path id="_Path_187" data-name="&lt;Path&gt;" class="cls-62" d="M2275.3,527.1a1.2,1.2,0,0,1-.8-.2,1.7,1.7,0,0,1-.7-2.3s2.4-4.3,3.2-6.4a41.4,41.4,0,0,0,1.4-7.2,1.7,1.7,0,1,1,3.3.3,39.4,39.4,0,0,1-1.5,8.1c-1,2.3-3.3,6.7-3.4,6.9A1.8,1.8,0,0,1,2275.3,527.1Z"/></g></g><g id="_Group_31" data-name="&lt;Group&gt;"><g id="_Group_32" data-name="&lt;Group&gt;"><path id="_Compound_Path_2" data-name="&lt;Compound Path&gt;" class="cls-59" d="M2246.5,524.8a1.7,1.7,0,0,1-1.6-1.2s-1.4-5.7-1.3-6.8h0c0-.5,0-3.8-.2-6.7a1.7,1.7,0,0,1,1.7-1.7,1.7,1.7,0,0,1,1.7,1.6c.2,4,.2,6.3.2,7a44.6,44.6,0,0,0,1.1,5.5,1.6,1.6,0,0,1-1.1,2.1Zm.5-7.6h0Z"/></g><g id="_Group_33" data-name="&lt;Group&gt;"><path id="_Path_188" data-name="&lt;Path&gt;" class="cls-59" d="M2248,526.1h-.2a1.8,1.8,0,0,1-1.5-1.9l.8-5.9c.1-.2.7-5,1.4-7.4s-.9-4.1-2.1-6.4a1.6,1.6,0,0,1,.7-2.2,1.6,1.6,0,0,1,2.3.7c.8,1.3,3.1,6.1,2.3,8.8s-1.2,6.9-1.2,6.9l-.8,6A1.7,1.7,0,0,1,2248,526.1Z"/></g><g id="_Group_34" data-name="&lt;Group&gt;"><path id="_Path_189" data-name="&lt;Path&gt;" class="cls-59" d="M2249.7,526.4l-.8-.2a1.8,1.8,0,0,1-.7-2.3c0-.1,2.4-4.4,3.2-6.5a39.7,39.7,0,0,0,1.4-7.2,1.7,1.7,0,0,1,1.8-1.5,1.8,1.8,0,0,1,1.5,1.9c-.1.6-.6,5.7-1.5,8s-3.3,6.7-3.4,6.9A1.6,1.6,0,0,1,2249.7,526.4Z"/></g></g><g id="_Group_35" data-name="&lt;Group&gt;"><g id="_Group_36" data-name="&lt;Group&gt;"><path id="_Compound_Path_3" data-name="&lt;Compound Path&gt;" class="cls-63" d="M2210.1,525.1a1.8,1.8,0,0,1-1.1-2.1c.2-.6,1.1-4.7,1.2-5.5s0-3.1.1-7a1.8,1.8,0,0,1,1.8-1.6,1.7,1.7,0,0,1,1.6,1.7c-.1,2.9-.2,6.2-.2,6.7h0c.2,1.1-1.2,6.8-1.3,6.8a1.6,1.6,0,0,1-1.6,1.1Zm.1-7.4h0Z"/></g><g id="_Group_37" data-name="&lt;Group&gt;"><path id="_Path_190" data-name="&lt;Path&gt;" class="cls-63" d="M2209.1,526.5h.2a1.7,1.7,0,0,0,1.5-1.9l-.8-5.9c0-.2-.7-5-1.3-7.4s.8-4.1,2-6.4a1.8,1.8,0,0,0-.7-2.3,1.8,1.8,0,0,0-2.3.7c-.7,1.4-3.1,6.1-2.3,8.9s1.2,6.9,1.2,6.9l.9,6A1.6,1.6,0,0,0,2209.1,526.5Z"/></g><g id="_Group_38" data-name="&lt;Group&gt;"><path id="_Path_191" data-name="&lt;Path&gt;" class="cls-63" d="M2207.4,526.8a1.1,1.1,0,0,0,.8-.3,1.5,1.5,0,0,0,.7-2.2c0-.1-2.4-4.4-3.2-6.5a40.7,40.7,0,0,1-1.3-7.2,1.7,1.7,0,1,0-3.4.4c.1.5.6,5.6,1.6,8s3.3,6.7,3.4,6.9A1.7,1.7,0,0,0,2207.4,526.8Z"/></g></g><g id="_Group_39" data-name="&lt;Group&gt;"><path id="_Path_192" data-name="&lt;Path&gt;" class="cls-64" d="M2205.1,525.5c-.4,2.9-6.4,2.1-11.8,1.4s-9.7-3.8-9.3-6.8,5.2-4.7,10.7-3.9S2205.5,522.5,2205.1,525.5Z"/><path id="_Path_193" data-name="&lt;Path&gt;" class="cls-9" d="M2210.8,527.7c-.2,1.7-3.5,1.2-6.6.8s-5.3-2.1-5-3.7,2.8-2.6,5.9-2.2S2211,526.1,2210.8,527.7Z"/><path id="_Path_194" data-name="&lt;Path&gt;" class="cls-64" d="M2277.9,525.8c.4,3,6.3,2.2,11.8,1.4s9.6-3.7,9.2-6.7-5.2-4.7-10.6-4S2277.5,522.9,2277.9,525.8Z"/><path id="_Path_195" data-name="&lt;Path&gt;" class="cls-64" d="M2272.2,528.1c.2,1.6,3.5,1.2,6.5.8s5.4-2.1,5.1-3.7-2.8-2.7-5.9-2.2S2272,526.5,2272.2,528.1Z"/><path id="_Path_196" data-name="&lt;Path&gt;" class="cls-64" d="M2208.8,524.6c-.2,3,5.8,3.4,11.3,3.8s10.2-1.7,10.4-4.7-4.1-5.7-9.6-6.1S2209,521.7,2208.8,524.6Z"/><path id="_Path_197" data-name="&lt;Path&gt;" class="cls-9" d="M2216.5,527.3c-.1,1.6,3.2,1.8,6.3,2.1s5.6-1,5.7-2.6-2.2-3.2-5.3-3.4S2216.6,525.6,2216.5,527.3Z"/><path id="_Path_198" data-name="&lt;Path&gt;" class="cls-9" d="M2212.3,527.4c-.2,1.1,2,1.4,4,1.7s3.7-.4,3.8-1.5-1.3-2.1-3.3-2.4S2212.4,526.3,2212.3,527.4Z"/><path id="_Path_199" data-name="&lt;Path&gt;" class="cls-6" d="M2206.6,526.7c-.1,1,2,1.3,4,1.6s3.7-.4,3.9-1.4-1.4-2.2-3.4-2.5S2206.8,525.6,2206.6,526.7Z"/><path id="_Path_200" data-name="&lt;Path&gt;" class="cls-64" d="M2224.3,527.8c-.1,1.1,2,1.4,4,1.6s3.7-.3,3.9-1.4-1.4-2.2-3.4-2.4S2224.5,526.7,2224.3,527.8Z"/><path id="_Path_201" data-name="&lt;Path&gt;" class="cls-9" d="M2267.2,527.4c-.1,1.1,2,1.4,4,1.7s3.8-.4,3.9-1.5-1.3-2.1-3.3-2.4S2267.4,526.3,2267.2,527.4Z"/><path id="_Path_202" data-name="&lt;Path&gt;" class="cls-64" d="M2236.7,526.9c-.2,3,5.8,3.4,11.3,3.8s10.2-1.8,10.4-4.8-4.1-5.6-9.7-6S2236.9,523.9,2236.7,526.9Z"/><path id="_Path_203" data-name="&lt;Path&gt;" class="cls-9" d="M2230.7,528c-.2,1.6,3.2,1.8,6.2,2s5.6-.9,5.7-2.6-2.2-3.1-5.3-3.3S2230.8,526.3,2230.7,528Z"/><path id="_Path_204" data-name="&lt;Path&gt;" class="cls-9" d="M2254.4,528c-.1,1.6,3.2,1.8,6.2,2s5.7-.9,5.8-2.6-2.3-3.1-5.4-3.3S2254.5,526.3,2254.4,528Z"/><path id="_Path_205" data-name="&lt;Path&gt;" class="cls-6" d="M2262.3,527.4c-.1,1.1,2,1.4,4,1.7s3.8-.4,3.9-1.5-1.3-2.1-3.3-2.4S2262.5,526.3,2262.3,527.4Z"/></g><path id="_Path_206" data-name="&lt;Path&gt;" class="cls-25" d="M2182.4,523.2v25.2s62.5,19.8,116.4-.3V523.5S2246.3,538.5,2182.4,523.2Z"/><path class="cls-2" d="M1823,811.6l-258.5,28.2a412.5,412.5,0,0,0-252.2,123.8l-64,66.4H1823Z"/><path id="_Path_207" data-name="&lt;Path&gt;" class="cls-23" d="M2134.5,760.5c22.1,2.8,60.2-8.2,59.6-16.2a5.6,5.6,0,0,0-4.7-5.6,8.9,8.9,0,0,0-7.7,1.6c-14.7,10.6-50.9,7.7-50.9,7.7Z"/><g id="_Group_40" data-name="&lt;Group&gt;"><path id="_Path_208" data-name="&lt;Path&gt;" class="cls-65" d="M2195,751.8s-12.1-1.7-28.1,8.8"/><path id="_Path_209" data-name="&lt;Path&gt;" class="cls-65" d="M2195,751.9s-12.2.4-26.1,13.5"/><path id="_Path_210" data-name="&lt;Path&gt;" class="cls-65" d="M2194.2,752s-11.9,2.6-23.1,18.2"/><path id="_Path_211" data-name="&lt;Path&gt;" class="cls-66" d="M2196.1,733.8s15.7-9.7,28.8-2.6,29.9,44.5,45.7,48.6,46.7-6.7,48.6-19.4c0,0-3-16.5-2.6-18.7s21.3,12.7,21.3,20.9,3.4,51.3-38.2,59.5c-19.1,3.8-39.1,4.4-55.1,3.8a43.7,43.7,0,0,1-39.7-29c-3.7-10.4-8.5-21.9-14-30.9-18,.7-15.8-13.8-19.9-15Z"/><path id="_Path_212" data-name="&lt;Path&gt;" class="cls-66" d="M2244.4,798.5c-7.9,23,13.2,39.2,17,41.9a1.7,1.7,0,0,0,1.2.4l33.1-3.9a1.8,1.8,0,0,0,.7-3.3c-13.6-7.8-29.1-32.5-32.3-37.8a1.8,1.8,0,0,0-1.8-.8l-16.5,2.3A1.6,1.6,0,0,0,2244.4,798.5Z"/><path id="_Path_213" data-name="&lt;Path&gt;" class="cls-66" d="M2236.5,791c-2.9,23.5-23.5,32.9-27.1,34.4a1.2,1.2,0,0,1-1,0l-21.6-12.6c-1.1-.6-.6-2.9.7-3.3,12.3-3.5,32.1-22.3,36.3-26.4.5-.4,1.1-.6,1.5-.3l10.6,6.7C2236.4,789.7,2236.6,790.3,2236.5,791Z"/><circle id="_Path_214" data-name="&lt;Path&gt;" cx="2204.1" cy="742.5" r="3.9"/><circle id="_Path_215" data-name="&lt;Path&gt;" class="cls-67" cx="2205.7" cy="741.4" r="1.3"/><path id="_Path_216" data-name="&lt;Path&gt;" class="cls-68" d="M2190.9,766s11-.1,13.3-9.9"/><circle id="_Path_217" data-name="&lt;Path&gt;" class="cls-21" cx="2173.7" cy="750.9" r="2.3"/><path id="_Path_218" data-name="&lt;Path&gt;" class="cls-65" d="M2185.1,751.8s12.1-1.7,28,8.8"/><path id="_Path_219" data-name="&lt;Path&gt;" class="cls-65" d="M2185,751.9s12.2.4,26.1,13.5"/><path id="_Path_220" data-name="&lt;Path&gt;" class="cls-65" d="M2185.8,752s12,2.6,23.1,18.2"/></g><g id="_Group_41" data-name="&lt;Group&gt;"><path id="_Path_221" data-name="&lt;Path&gt;" class="cls-31" d="M2153.3,832.8h-17.9a2.8,2.8,0,0,1-2.7-2.8v-9.3h12.5a9.8,9.8,0,0,1,9.9,9.8v.5A1.8,1.8,0,0,1,2153.3,832.8Z"/><path id="_Path_222" data-name="&lt;Path&gt;" class="cls-31" d="M2061.7,820.4l5.6-17a2.9,2.9,0,0,1,3.5-1.8l8.8,3-3.9,11.9a9.9,9.9,0,0,1-12.4,6.2h-.5A1.8,1.8,0,0,1,2061.7,820.4Z"/><path id="_Path_223" data-name="&lt;Path&gt;" class="cls-69" d="M2108.2,820.5l-36,.3,3.3-17.7h13a11.9,11.9,0,0,0,11.9-10.5l.5-4.2h24.4v15A17.1,17.1,0,0,1,2108.2,820.5Z"/><path id="_Path_224" data-name="&lt;Path&gt;" class="cls-69" d="M2149.8,794.5l.3,27.5-17.7-.3V811.5c0-3.8-4.5-7.1-10.5-7.6l-4.2-.3v-20h15C2142.2,783.6,2149.8,788.5,2149.8,794.5Z"/><path id="_Rectangle_2" data-name="&lt;Rectangle&gt;" class="cls-70" d="M2121.7,740.1h0a20.9,20.9,0,0,1,20.9,20.9v18.9a13.5,13.5,0,0,1-13.5,13.5h-14.8a13.5,13.5,0,0,1-13.5-13.5V761a20.9,20.9,0,0,1,20.9-20.9Z" transform="translate(180.7 -383) rotate(10.8)"/><ellipse id="_Path_225" data-name="&lt;Path&gt;" class="cls-23" cx="2128.7" cy="723.4" rx="16.4" ry="19.7"/><ellipse id="_Path_226" data-name="&lt;Path&gt;" class="cls-21" cx="2124.7" cy="722.3" rx="2.3" ry="4.2"/><ellipse id="_Path_227" data-name="&lt;Path&gt;" class="cls-21" cx="2136.1" cy="719.9" rx="2.3" ry="4.2"/><path id="_Path_228" data-name="&lt;Path&gt;" class="cls-71" d="M2135.6,707.5s-10.6,15.8-20.2,17.2c0,0-1.4,20.6,10.6,23.2,0,0-18.2-.5-23.9-7.2s-2.5-44,21.1-46.6,30.8,29.9,28.5,46.4L2142,735S2144.8,710,2135.6,707.5Z"/><path id="_Path_229" data-name="&lt;Path&gt;" class="cls-62" d="M2126.6,731.6l9.9-3.5s-.2,8.1-4.6,8.5S2126.6,731.6,2126.6,731.6Z"/><path id="_Path_230" data-name="&lt;Path&gt;" class="cls-23" d="M2107.7,754.9c7.9,16.2,32.3,37.1,37.4,33.2a4.6,4.6,0,0,0,1.7-5.7,7.6,7.6,0,0,0-4.5-4.6c-13.6-5.2-27.7-30.9-27.7-30.9Z"/><path id="_Rectangle_3" data-name="&lt;Rectangle&gt;" class="cls-72" d="M2113.2,746.7h0a7.5,7.5,0,0,1,7.5,7.5v9.4a0,0,0,0,1,0,0h-15a0,0,0,0,1,0,0v-9.4a7.5,7.5,0,0,1,7.5-7.5Z" transform="translate(-103.5 1104.7) rotate(-28.6)"/></g><path id="_Path_231" data-name="&lt;Path&gt;" class="cls-73" d="M541.5,18l-6.3-1.1v-.8h0l6.3-1.1a1.1,1.1,0,1,0-.4-2.2l-6.2,1.1-.3-.9,5.5-3.1a1.2,1.2,0,0,0,.4-1.6h0a1.2,1.2,0,0,0-1.6-.4l-5.4,3.1-.5-.7,3.9-4.8A1.1,1.1,0,1,0,535.2,4l-3.9,4.7-.9-.5,2.1-5.8a1.1,1.1,0,0,0-.6-1.4,1.2,1.2,0,0,0-1.5.7l-2,5.7-1-.2V1.1A1.1,1.1,0,0,0,526.2,0,1.2,1.2,0,0,0,525,1.1V7.2l-.9.2L522,1.7a1.1,1.1,0,0,0-1.4-.7,1.1,1.1,0,0,0-.7,1.4L522,8.2l-.8.5L517.3,4a1.1,1.1,0,0,0-1.8,1.4l4,4.8-.6.7-5.4-3.1a1.1,1.1,0,0,0-1.5.4h0a1.2,1.2,0,0,0,.4,1.6l5.5,3.1-.3.9-6.3-1.1a1.1,1.1,0,1,0-.3,2.2l6.3,1.1h0v.8L511,18a1.1,1.1,0,0,0-1,1.3h0a1.1,1.1,0,0,0,1.3.9l6.5-1.1.3.7-5.7,3.3a1.2,1.2,0,0,0-.4,1.6,1.1,1.1,0,0,0,1.5.4l5.8-3.3.5.5-4.3,5.2a1,1,0,0,0,.2,1.5h0a1,1,0,0,0,1.6-.1l4.3-5.1.6.3-2.3,6.4a1.1,1.1,0,0,0,.7,1.4,1.2,1.2,0,0,0,1.5-.7l2.2-6.3h.7v6.8a1.2,1.2,0,0,0,1.2,1.1,1.1,1.1,0,0,0,1.2-1.1V25h.7l2.3,6.3a1.2,1.2,0,0,0,1.5.7,1,1,0,0,0,.6-1.4l-2.3-6.4.7-.3,4.3,5.1a1,1,0,0,0,1.6.1h0a1,1,0,0,0,.1-1.5l-4.2-5.2.5-.5,5.7,3.3a1.2,1.2,0,0,0,1.2-2l-5.7-3.3.3-.7,6.4,1.1a1.1,1.1,0,0,0,1.3-.9h0A1.1,1.1,0,0,0,541.5,18Z"/><g id="_Group_42" data-name="&lt;Group&gt;"><path id="_Path_232" data-name="&lt;Path&gt;" class="cls-70" d="M614.1,13.4a2.5,2.5,0,0,1,1.6.6,27.3,27.3,0,0,1,8.6-9.6,17.1,17.1,0,0,0-5.9-1.1A16.9,16.9,0,0,0,609,6.2a33.9,33.9,0,0,1,3.9,7.5A2.1,2.1,0,0,1,614.1,13.4Z"/><path id="_Path_233" data-name="&lt;Path&gt;" class="cls-58" d="M612.8,18.5a2.5,2.5,0,0,1-1.4-2.4v-.5a24,24,0,0,0-8-2.8,16.3,16.3,0,0,0-1.5,7,16.6,16.6,0,0,0,7.9,14.1C609.5,29.8,609.5,23.1,612.8,18.5Z"/><path id="_Path_234" data-name="&lt;Path&gt;" class="cls-32" d="M616.7,15.8c0,.1.1.2.1.3a2.8,2.8,0,0,1-1.2,2.3,32,32,0,0,1,9.7,16.3,16.4,16.4,0,0,0,9.5-14.9,15.7,15.7,0,0,0-.7-4.9C630.9,14.3,625.4,14.1,616.7,15.8Z"/><path id="_Path_235" data-name="&lt;Path&gt;" class="cls-67" d="M615.8,18.1a2,2,0,0,0,1-2c0-.1-.1-.2-.1-.3,8.7-1.7,14.2-1.5,17.4-.9a16.8,16.8,0,0,0-9.8-10.5,27.3,27.3,0,0,0-8.6,9.6,2.5,2.5,0,0,0-1.6-.6,2.1,2.1,0,0,0-1.2.3A33.9,33.9,0,0,0,609,6.2a17.8,17.8,0,0,0-5.6,6.6,24,24,0,0,1,8,2.8v.5a2.5,2.5,0,0,0,1.4,2.4c-3.3,4.6-3.3,11.3-3,15.4a16.6,16.6,0,0,0,8.6,2.4,15.9,15.9,0,0,0,6.9-1.6A33.7,33.7,0,0,0,615.8,18.1Z"/></g><g id="_Group_43" data-name="&lt;Group&gt;"><circle id="_Path_236" data-name="&lt;Path&gt;" cx="726.4" cy="25.1" r="16.5"/><circle id="_Path_237" data-name="&lt;Path&gt;" class="cls-67" cx="722.7" cy="21.1" r="10.7"/><circle id="_Path_238" data-name="&lt;Path&gt;" class="cls-74" cx="721.8" cy="17.3" r="3.1"/><circle id="_Path_239" data-name="&lt;Path&gt;" class="cls-74" cx="720.1" cy="24.5" r="4"/><g id="_Group_44" data-name="&lt;Group&gt;"><path class="cls-69" d="M737.7,15a17.5,17.5,0,0,1,4,7.3,20.2,20.2,0,0,1,.4,4.3,16,16,0,0,1-1,4.2,15.9,15.9,0,0,1-5.1,6.6,14.1,14.1,0,0,1-7.8,2.9,17.5,17.5,0,0,0,7.2-3.6,16.9,16.9,0,0,0,4.5-6.4,12.9,12.9,0,0,0,.8-7.8A21.9,21.9,0,0,0,737.7,15Z"/></g></g><g id="_Group_45" data-name="&lt;Group&gt;"><g id="_Group_46" data-name="&lt;Group&gt;"><polygon id="_Path_240" data-name="&lt;Path&gt;" class="cls-75" points="125.8 237.5 128.5 237.5 132.4 247.8 136.4 237.5 139.2 237.5 133.9 251.8 131.2 251.8 125.8 237.5"/></g><g id="_Group_47" data-name="&lt;Group&gt;"><polygon id="_Path_241" data-name="&lt;Path&gt;" class="cls-75" points="225.3 237.5 227.9 237.5 231.8 247.8 235.8 237.5 238.6 237.5 233.3 251.8 230.6 251.8 225.3 237.5"/></g><g id="_Group_48" data-name="&lt;Group&gt;"><path id="_Compound_Path_4" data-name="&lt;Compound Path&gt;" class="cls-75" d="M199,251.9a7.4,7.4,0,1,1,7.3-7.4A7.3,7.3,0,0,1,199,251.9Zm0-12a4.7,4.7,0,1,0,4.6,4.6A4.7,4.7,0,0,0,199,239.9Z"/></g><g id="_Group_49" data-name="&lt;Group&gt;"><path id="_Path_242" data-name="&lt;Path&gt;" class="cls-75" d="M182.4,251.9a7.4,7.4,0,1,1,6.2-11.2l-2.3,1.4a4.4,4.4,0,0,0-3.9-2.2,4.7,4.7,0,0,0,0,9.3,4.7,4.7,0,0,0,4.2-2.6l2.4,1.2A7.4,7.4,0,0,1,182.4,251.9Z"/></g><g id="_Group_50" data-name="&lt;Group&gt;"><path id="_Compound_Path_5" data-name="&lt;Compound Path&gt;" class="cls-75" d="M247.6,251.9a7.4,7.4,0,0,1,0-14.7,7.2,7.2,0,0,1,6.2,3.5,7.4,7.4,0,0,1,1,3.7v1.3l-11.6-.2a4.6,4.6,0,0,0,4.5,3.7,4.7,4.7,0,0,0,4.2-2.6l2.4,1.2A7.4,7.4,0,0,1,247.6,251.9Zm-4.3-9h8.6a4.1,4.1,0,0,0-.4-.9,4.4,4.4,0,0,0-3.9-2.2A4.6,4.6,0,0,0,243.3,242.9Z"/></g><path id="_Compound_Path_6" data-name="&lt;Compound Path&gt;" class="cls-75" d="M155.4,244.5a7.3,7.3,0,1,0-14.5,0,7.2,7.2,0,0,0,7.1,7.4,7,7,0,0,0,4.6-1.7v1.6h2.6v-6.9C155.2,244.8,155.4,244.7,155.4,244.5Zm-7.2,4.7a4.7,4.7,0,1,1,4.6-4.7A4.7,4.7,0,0,1,148.2,249.2Z"/><path id="_Compound_Path_7" data-name="&lt;Compound Path&gt;" class="cls-75" d="M150,270.8a13,13,0,1,0-13.1,13,12.5,12.5,0,0,0,8.2-3v3.1h4.8V271.6C149.9,271.3,150,271,150,270.8ZM137,279a8.3,8.3,0,1,1,8.2-8.2A8.3,8.3,0,0,1,137,279Z"/><path id="_Compound_Path_8" data-name="&lt;Compound Path&gt;" class="cls-75" d="M236.5,270.8a13,13,0,1,0-13,13,12.5,12.5,0,0,0,8.2-3v3.1h4.8V270.8ZM223.6,279a8.3,8.3,0,1,1,8.2-8.2A8.3,8.3,0,0,1,223.6,279Z"/><path id="_Compound_Path_9" data-name="&lt;Compound Path&gt;" class="cls-75" d="M179.4,270.8a13,13,0,1,0-13.1,13,12.5,12.5,0,0,0,8.2-3v11.6h4.8V271.6C179.3,271.3,179.4,271,179.4,270.8Zm-13,8.2a8.3,8.3,0,1,1,8.2-8.2A8.3,8.3,0,0,1,166.4,279Z"/><g id="_Group_51" data-name="&lt;Group&gt;"><path id="_Path_243" data-name="&lt;Path&gt;" class="cls-75" d="M171.6,251.8H169V241.7c0-.5-.8-2.5-3.8-2.5s-3.3,2.5-3.3,2.9v9.7H159V242c.1-1.9,1.4-5.4,6.1-5.4s6.5,3.3,6.5,5.1Z"/></g><g id="_Group_52" data-name="&lt;Group&gt;"><path id="_Path_244" data-name="&lt;Path&gt;" class="cls-75" d="M260.6,251.8h-2.7V242a5.7,5.7,0,0,1,1.8-3.8,7.4,7.4,0,0,1,5.5-1.6v2.6c-4-.2-4.5,2.4-4.5,2.9Z"/></g><g id="_Group_53" data-name="&lt;Group&gt;"><path id="_Path_245" data-name="&lt;Path&gt;" class="cls-75" d="M246.1,283.5h-5.3V267.9a9.6,9.6,0,0,1,3-6.4c2.3-2.1,5.5-3.1,9.4-2.9l-.2,5.3c-6.1-.2-6.9,3.3-6.9,4.1Z"/></g><g id="_Group_54" data-name="&lt;Group&gt;"><path id="_Path_246" data-name="&lt;Path&gt;" class="cls-75" d="M215.8,252.6c-4.7,0-6.6-3.3-6.6-5.1v-10h2.9v10c0,.5.9,2.4,3.9,2.4s3.5-2.4,3.5-2.8v-9.6H222v9.7C221.9,249.1,220.5,252.6,215.8,252.6Z"/></g><g id="_Group_55" data-name="&lt;Group&gt;"><path id="_Path_247" data-name="&lt;Path&gt;" class="cls-75" d="M280.4,283.8A11.6,11.6,0,0,1,268.1,272c0-1.9-.1-14.2-.1-14.2h4.9s.1,12.3.1,14.2a6.9,6.9,0,0,0,2,5,7.4,7.4,0,0,0,5.6,1.9c6.2-.1,6.7-6.1,6.7-6.9V258.3h4.8v13.9c-.1,3.9-2.7,11.4-11.5,11.6Z"/></g><g id="_Group_56" data-name="&lt;Group&gt;"><path id="_Path_248" data-name="&lt;Path&gt;" class="cls-75" d="M195.4,283.8a12.2,12.2,0,0,1-8.8-3.3,11.9,11.9,0,0,1-3.5-8.5V257.8h4.8s.1,12.3.1,14.2a6.9,6.9,0,0,0,2,5,7.5,7.5,0,0,0,5.6,1.9c6.2-.1,6.7-6.1,6.7-6.9V258.3h4.8v13.9c-.1,3.9-2.7,11.4-11.5,11.6Z"/></g><path id="_Path_249" data-name="&lt;Path&gt;" class="cls-75" d="M335.1,269.7a12.9,12.9,0,0,0-3.6-9.1,11.2,11.2,0,0,0-8-3,9.9,9.9,0,0,0-8.1,4.2l-1-1.2a11.2,11.2,0,0,0-8-3c-8.1.2-10.5,7.9-10.6,11.9v13.9h5.4V269.6c0-.5.3-6.5,5.3-6.6a5.2,5.2,0,0,1,4.2,1.5,7.3,7.3,0,0,1,2,5.2c0,1.9.1,14.2.1,14.2h5.3v-.6h.2V269.6c0-.5.3-6.5,5.3-6.6a5.1,5.1,0,0,1,4.2,1.5,7.3,7.3,0,0,1,2,5.2c0,1.9.1,14.2.1,14.2h5.3S335.2,271.6,335.1,269.7Z"/><g id="_Group_57" data-name="&lt;Group&gt;"><rect id="_Path_250" data-name="&lt;Path&gt;" class="cls-75" x="258.1" y="258.2" width="5.2" height="25.58"/></g></g><path id="_Path_251" data-name="&lt;Path&gt;" class="cls-76" d="M366.8,225.7s-.3-10.9-14.3-7.8c0,0-12.5,4.8-5.1,21.1,0,0,5.1,8.1,13.1,12.9,0,0,13.3-8.4,16-19.9s1.8-17.6-3.6-23.2-25.1-10.3-30.5,10.9a8.7,8.7,0,0,0,3.7-4.2c1.4-3.2,16.4-10.3,22.4,1.2s-3.7,19.3-7.6,15.9S359.8,220.8,366.8,225.7Z"/><path id="_Path_252" data-name="&lt;Path&gt;" class="cls-77" d="M324.8,251.4c-4.4-2.1-17.8-10.1-18.4-31.6,0-.5.7-.8,1-.4l2.7,4.7a2.5,2.5,0,0,0,3.9.5l3-3.2a.6.6,0,0,1,1,.3l-.5,6.5a2.4,2.4,0,0,0,2.4,2.6l13.8.9c.5,0,1.8,1.2-.2,2.1l-8.1,3.8c-2.7,1.4-3.8,4-2.6,6.8l2.8,6.2A.6.6,0,0,1,324.8,251.4Z"/><path id="_Path_253" data-name="&lt;Path&gt;" class="cls-78" d="M375.3,205.4s-5-13.7-21.8-19.4-34.1,3.6-41.2,14.6-3.8,15.2-1.5,15.4,3.7-2.5,3.6-7.5,8.4-8.5,12.6-7.9,10.3,2.4,12.3,10.1c0,0,.6,1.9-.8,1s-3.9-4.2-9.7-4.2-9.9,6.9-9.5,7.3,3.1-1.8,5.9-1.2,5.9.6,10,5c0,0,2,1.8,3,1.8s.4-2.9,2.6-8.4.4-10.4-1.1-11.6-7.4-5.5-17.1-1.3c0,0-.8-.3-.7-.8s4.4-3.6,10.4-3.2,8.3,1.6,11.7,5.8,6.3,3,7.1,1.5.6-4.5-3.3-7a23,23,0,0,0-15.4-3.4,26.7,26.7,0,0,0-11.6,4.2s-.7.5-1.2,0,1.4-2.3,5.5-4.2,15.8-4.7,24,.3,8.4,7,12.5,7.6S370.3,201,375.3,205.4Z"/><path id="_Path_254" data-name="&lt;Path&gt;" class="cls-78" d="M342.6,168.3s.6,3.7,8.9,5.4,12.1,4.7,10.9,13.9c0,0-1.8-3.7-9-4.9s-10.6-4.1-11.1-8.8S342.6,168.3,342.6,168.3Z"/></svg>