<svg id="Layer_1" data-name="Layer 1" xmlns="http://www.w3.org/2000/svg" viewBox="0 0 75.2 62.6"><defs><style>.cls-1{fill:#0071bc;}.cls-2{fill:#333;}.cls-3{fill:#ff0;}</style></defs><title> </title><g id="_Group_" data-name="&lt;Group&gt;"><g id="_Group_2" data-name="&lt;Group&gt;"><path id="_Path_" data-name="&lt;Path&gt;" class="cls-1" d="M34.6,15.3c-.7,7.9-5.9,7.5-11.7,7s-10.2-1-9.5-8.9S19.4-.5,25.3,0C34,.8,35.3,7.4,34.6,15.3Z"/><path id="_Path_2" data-name="&lt;Path&gt;" class="cls-2" d="M23.6,50.4s3.8.2,4.1,3.7a7.4,7.4,0,0,1-2.2,5.7S27.7,54,23.6,50.4Z"/><path id="_Path_3" data-name="&lt;Path&gt;" class="cls-2" d="M13.3,49.4s3.8.3,4.1,3.8a7.4,7.4,0,0,1-2.2,5.7S17.4,53.1,13.3,49.4Z"/><path id="_Path_4" data-name="&lt;Path&gt;" class="cls-1" d="M32.3,34.1c-1.1-19.8-3.1-18.7-8.6-19.2s-5.2-1.4-11.3,17.4-.2,19.5,7.8,20.2h.5C26.2,53.1,33.4,53.6,32.3,34.1Z"/><path id="_Path_5" data-name="&lt;Path&gt;" class="cls-1" d="M17.7,20.4s-5.1-.9-9.7,6S-1.3,40.1.3,40.5s9.4,2.2,12.3-.9S17.7,20.4,17.7,20.4Z"/><path id="_Path_6" data-name="&lt;Path&gt;" class="cls-1" d="M30.5,21.8s2.6.2,2.8,7.7.5,15-.3,15-4.8.3-5.4-3.2S30.5,21.8,30.5,21.8Z"/><path id="_Path_7" data-name="&lt;Path&gt;" class="cls-3" d="M28.2,12s-2.2.6-2.4,1.1,1.1,2.5,2.4,2.8a6.2,6.2,0,0,0,2.9-.3Z"/><path id="_Path_8" data-name="&lt;Path&gt;" class="cls-2" d="M27.5,12.2s5-2.8,8.2-1.8,3.9,5.9,3.9,5.9l-9.9-.4S26.8,14,27.5,12.2Z"/><circle id="_Path_9" data-name="&lt;Path&gt;" cx="22.6" cy="7.3" r="1.4"/><circle id="_Path_10" data-name="&lt;Path&gt;" cx="31.9" cy="8.2" r="1.4"/></g><g id="_Group_3" data-name="&lt;Group&gt;"><path id="_Path_11" data-name="&lt;Path&gt;" class="cls-1" d="M45.6,16.3c-.7,7.9,4.4,8.4,10.2,9s10.2.8,10.9-7.1S63.3,3.4,57.4,2.9C48.8,2.1,46.3,8.4,45.6,16.3Z"/><path id="_Path_12" data-name="&lt;Path&gt;" class="cls-2" d="M50.1,52.7s-3.7-.4-4.6,3a7.2,7.2,0,0,0,1.1,6S45.4,55.6,50.1,52.7Z"/><path id="_Path_13" data-name="&lt;Path&gt;" class="cls-2" d="M60.4,53.7s-3.7-.5-4.6,3a7.1,7.1,0,0,0,1.1,5.9S55.7,56.5,60.4,53.7Z"/><path id="_Path_14" data-name="&lt;Path&gt;" class="cls-1" d="M44.4,35.2c4.7-19.3,6.4-17.9,11.9-17.4s5.4-.4,8.1,19.2S61.1,56.2,53.1,55.5h-.5C47.1,54.9,39.9,54.1,44.4,35.2Z"/><path id="_Path_15" data-name="&lt;Path&gt;" class="cls-1" d="M61.3,24.3s5.2.1,8.4,7.6,6.8,15.2,5.1,15.3-9.6.5-12-3S61.3,24.3,61.3,24.3Z"/><path id="_Path_16" data-name="&lt;Path&gt;" class="cls-1" d="M48.4,23.4s-2.5-.3-4.1,7-3.2,14.7-2.4,14.9,4.7,1.1,5.9-2.2S48.4,23.4,48.4,23.4Z"/><path id="_Path_17" data-name="&lt;Path&gt;" class="cls-3" d="M51.2,13.1s2.3-.1,2.6.3-.2,2.7-1.3,3.4a6.1,6.1,0,0,1-2.8.7Z"/><path id="_Path_18" data-name="&lt;Path&gt;" class="cls-2" d="M51.9,13.1s-5.6-1.1-8.3.9-1.8,6.9-1.8,6.9l9.3-3.6S53.2,14.6,51.9,13.1Z"/><circle id="_Path_19" data-name="&lt;Path&gt;" cx="58.8" cy="10.6" r="1.4"/><circle id="_Path_20" data-name="&lt;Path&gt;" cx="49.5" cy="9.8" r="1.4"/></g></g></svg>