<svg id="Layer_1" data-name="Layer 1" xmlns="http://www.w3.org/2000/svg" viewBox="0 0 254 124.2"><defs><style>.cls-1{fill:#65696a;}.cls-2{fill:#00a7c8;}.cls-3{fill:#ff7000;}.cls-4{fill:#53a530;}</style></defs><title> </title><g id="_Group_" data-name="&lt;Group&gt;"><g id="_Group_2" data-name="&lt;Group&gt;"><polygon id="_Path_" data-name="&lt;Path&gt;" class="cls-1" points="1.9 69.3 4.5 69.3 8.5 79.5 12.4 69.3 15.2 69.3 9.9 83.5 7.2 83.5 1.9 69.3"/></g><g id="_Group_3" data-name="&lt;Group&gt;"><polygon id="_Path_2" data-name="&lt;Path&gt;" class="cls-1" points="101.3 69.3 104 69.3 107.9 79.5 111.8 69.3 114.6 69.3 109.3 83.5 106.6 83.5 101.3 69.3"/></g><g id="_Group_4" data-name="&lt;Group&gt;"><path id="_Compound_Path_" data-name="&lt;Compound Path&gt;" class="cls-1" d="M75,83.6a7.3,7.3,0,1,1,7.3-7.3A7.3,7.3,0,0,1,75,83.6Zm0-11.9a4.6,4.6,0,0,0-4.6,4.6A4.7,4.7,0,0,0,75,80.9a4.6,4.6,0,0,0,4.6-4.6A4.5,4.5,0,0,0,75,71.7Z"/></g><g id="_Group_5" data-name="&lt;Group&gt;"><path id="_Path_3" data-name="&lt;Path&gt;" class="cls-1" d="M58.4,83.6a7.3,7.3,0,1,1,0-14.6,7.2,7.2,0,0,1,6.2,3.4l-2.2,1.4a4.9,4.9,0,0,0-4-2.1,4.6,4.6,0,0,0-4.6,4.6,4.6,4.6,0,0,0,8.8,2L65,79.5A7.4,7.4,0,0,1,58.4,83.6Z"/></g><g id="_Group_6" data-name="&lt;Group&gt;"><path id="_Compound_Path_2" data-name="&lt;Compound Path&gt;" class="cls-1" d="M123.6,83.6a7.3,7.3,0,1,1,0-14.6,7.2,7.2,0,0,1,6.2,3.4,7.1,7.1,0,0,1,1,3.7v1.3H119.1a4.6,4.6,0,0,0,4.5,3.6,4.7,4.7,0,0,0,4.2-2.6l2.4,1.2A7.3,7.3,0,0,1,123.6,83.6Zm-4.3-9h8.6a4,4,0,0,0-.3-.9,4.9,4.9,0,0,0-4-2.1A4.7,4.7,0,0,0,119.3,74.6Z"/></g><path id="_Compound_Path_3" data-name="&lt;Compound Path&gt;" class="cls-1" d="M31.4,76.3a7.3,7.3,0,1,0-7.3,7.3,6.4,6.4,0,0,0,4.5-1.7v1.7h2.7v-7C31.3,76.5,31.4,76.4,31.4,76.3Zm-7.2,4.6a4.7,4.7,0,0,1-4.6-4.6,4.7,4.7,0,0,1,9.3,0A4.7,4.7,0,0,1,24.2,80.9Z"/><path id="_Compound_Path_4" data-name="&lt;Compound Path&gt;" class="cls-1" d="M26,102.5a13,13,0,1,0-13.1,13,12.6,12.6,0,0,0,8.2-2.9v3h4.8V103.3C25.9,103.1,26,102.8,26,102.5Zm-13,8.3a8.3,8.3,0,1,1,8.3-8.3A8.3,8.3,0,0,1,13,110.8Z"/><path id="_Compound_Path_5" data-name="&lt;Compound Path&gt;" class="cls-1" d="M112.6,102.5a13,13,0,1,0-13.1,13,12.6,12.6,0,0,0,8.2-2.9v3h4.8V103.3C112.5,103.1,112.6,102.8,112.6,102.5Zm-13,8.3a8.3,8.3,0,1,1,8.3-8.3A8.3,8.3,0,0,1,99.6,110.8Z"/><path id="_Compound_Path_6" data-name="&lt;Compound Path&gt;" class="cls-1" d="M55.4,102.5a13,13,0,1,0-13.1,13,12.6,12.6,0,0,0,8.2-2.9v11.6h4.8V103.3C55.3,103.1,55.4,102.8,55.4,102.5Zm-13,8.3a8.3,8.3,0,1,1,8.3-8.3A8.3,8.3,0,0,1,42.4,110.8Z"/><g id="_Group_7" data-name="&lt;Group&gt;"><path id="_Path_4" data-name="&lt;Path&gt;" class="cls-1" d="M47.6,83.5H45v-10c0-.6-.7-2.5-3.7-2.5s-3.4,2.5-3.4,2.9v9.6H35V73.7a5.7,5.7,0,0,1,6.1-5.4c4.7,0,6.5,3.4,6.5,5.2Z"/></g><g id="_Group_8" data-name="&lt;Group&gt;"><path id="_Path_5" data-name="&lt;Path&gt;" class="cls-1" d="M136.7,83.5h-2.8V73.8a5.4,5.4,0,0,1,1.8-3.8,7.6,7.6,0,0,1,5.5-1.7V71c-4.1-.2-4.5,2.3-4.5,2.9Z"/></g><g id="_Group_9" data-name="&lt;Group&gt;"><path id="_Path_6" data-name="&lt;Path&gt;" class="cls-1" d="M122.1,115.2h-5.3V99.6a9.4,9.4,0,0,1,3.1-6.4c2.2-2,5.4-3,9.4-2.8l-.3,5.3c-6.1-.3-6.9,3.2-6.9,4Z"/></g><g id="_Group_10" data-name="&lt;Group&gt;"><path id="_Path_7" data-name="&lt;Path&gt;" class="cls-1" d="M91.8,84.4c-4.6,0-6.6-3.4-6.6-5.2V69.3h2.9v9.9c0,.6.9,2.5,3.9,2.5s3.6-2.5,3.6-2.9V69.3h2.5V79C98,80.9,96.5,84.4,91.8,84.4Z"/></g><g id="_Group_11" data-name="&lt;Group&gt;"><path id="_Path_8" data-name="&lt;Path&gt;" class="cls-1" d="M156.4,115.6a12.4,12.4,0,0,1-8.8-3.4,11.9,11.9,0,0,1-3.5-8.4V89.6H149v14.2a7.3,7.3,0,0,0,2.1,5,7.5,7.5,0,0,0,5.5,1.9c6.2-.2,6.7-6.1,6.7-6.9V90h4.9v13.9c-.1,3.9-2.7,11.5-11.5,11.6Z"/></g><g id="_Group_12" data-name="&lt;Group&gt;"><path id="_Path_9" data-name="&lt;Path&gt;" class="cls-1" d="M71.4,115.6a12,12,0,0,1-12.3-11.8V89.6H64v14.2a7.3,7.3,0,0,0,2.1,5,7.6,7.6,0,0,0,5.6,1.9c6.1-.2,6.6-6.1,6.7-6.9V90h4.9v13.9c-.1,3.9-2.6,11.5-11.4,11.6Z"/></g><path id="_Path_10" data-name="&lt;Path&gt;" class="cls-1" d="M211.2,101.4a12.7,12.7,0,0,0-3.7-9,10.6,10.6,0,0,0-8-3,9.7,9.7,0,0,0-8,4.2,4.3,4.3,0,0,0-1.1-1.2,10.6,10.6,0,0,0-8-3c-8.1.2-10.4,7.8-10.5,11.9v13.8h5.3V101.4c0-.5.3-6.6,5.4-6.7a5.6,5.6,0,0,1,4.1,1.5,7.6,7.6,0,0,1,2,5.2c0,2,.1,14.3.1,14.3h5.4s-.1,0-.1-.5h.2V101.4c0-.6.3-6.6,5.4-6.7a5.6,5.6,0,0,1,4.1,1.5,7.6,7.6,0,0,1,2,5.2c0,2,.1,14.2.1,14.2h5.4S211.2,103.4,211.2,101.4Z"/><g id="_Group_13" data-name="&lt;Group&gt;"><rect id="_Path_11" data-name="&lt;Path&gt;" class="cls-1" x="134.1" y="90" width="5.2" height="25.58"/></g></g><path id="_Path_12" data-name="&lt;Path&gt;" class="cls-2" d="M242.8,57.5s-.3-11-14.3-7.9c0,0-12.4,4.8-5.1,21.1,0,0,5.1,8.2,13.1,13,0,0,13.4-8.4,16.1-19.9s1.7-17.7-3.7-23.3-25.1-10.3-30.4,11a9.4,9.4,0,0,0,3.6-4.3c1.5-3.2,16.4-10.3,22.4,1.2s-3.7,19.4-7.6,15.9S235.9,52.5,242.8,57.5Z"/><path id="_Path_13" data-name="&lt;Path&gt;" class="cls-3" d="M200.8,83.1c-4.3-2-17.8-10.1-18.4-31.5,0-.6.7-.9,1-.4l2.7,4.7a2.4,2.4,0,0,0,3.9.4l3-3.2a.6.6,0,0,1,1,.4l-.5,6.4a2.6,2.6,0,0,0,2.4,2.7l13.8.8c.5,0,1.8,1.2-.2,2.1l-8.1,3.9a5,5,0,0,0-2.6,6.7l2.8,6.3C201.8,82.9,201.3,83.3,200.8,83.1Z"/><path id="_Path_14" data-name="&lt;Path&gt;" class="cls-4" d="M251.3,37.1s-5-13.7-21.7-19.4-34.2,3.7-41.3,14.6-3.8,15.3-1.5,15.4,3.8-2.5,3.7-7.4,8.3-8.6,12.5-8,10.4,2.4,12.3,10.1c0,0,.6,2-.7,1.1s-4-4.2-9.8-4.2-9.8,6.9-9.4,7.3,3-1.8,5.8-1.3,5.9.7,10,5.1c0,0,2.1,1.8,3.1,1.7s.3-2.8,2.6-8.4.4-10.3-1.2-11.6-7.3-5.4-17.1-1.3c0,0-.8-.3-.7-.8s4.5-3.5,10.5-3.1,8.2,1.5,11.6,5.7,6.3,3,7.2,1.5.5-4.5-3.4-6.9a22.3,22.3,0,0,0-15.4-3.4A26.7,26.7,0,0,0,196.8,28a1,1,0,0,1-1.2-.1c-.5-.5,1.4-2.2,5.5-4.1s15.8-4.8,24.1.3,8.3,6.9,12.5,7.6S246.3,32.8,251.3,37.1Z"/><path id="_Path_15" data-name="&lt;Path&gt;" class="cls-4" d="M218.6,0s.6,3.7,8.9,5.4,12.2,4.7,10.9,13.9c0,0-1.7-3.7-9-4.8s-10.5-4.2-11.1-8.8S218.6,0,218.6,0Z"/></svg>