<svg id="Layer_1" data-name="Layer 1" xmlns="http://www.w3.org/2000/svg" viewBox="0 0 386.6 148.9"><defs><style>.cls-1{opacity:0.72;}.cls-2{fill:#ccc;}.cls-3{fill:#f2f2f2;}.cls-4,.cls-7{fill:none;stroke-miterlimit:10;}.cls-4{stroke:#b3b3b3;stroke-width:2px;}.cls-5{fill:gray;}.cls-6{fill:#b3b3b3;}.cls-7{stroke:#666;stroke-width:0.82px;}</style></defs><title> </title><g class="cls-1"><g id="_Group_" data-name="&lt;Group&gt;"><path id="_Path_" data-name="&lt;Path&gt;" class="cls-2" d="M274.3,76.3s-3.4,37.3-33.5,42.1c0,0-15.4-5.1-10.3-33.2S274.3,76.3,274.3,76.3Z"/><path id="_Path_2" data-name="&lt;Path&gt;" class="cls-3" d="M382.8,55.4a49.9,49.9,0,0,0-49.9-50,49.3,49.3,0,0,0-7.8.6c-13.5-3.8-31.9-6-57-6C209.4,0,122.5,35.1,82,64.1h-.1c-6.7,3.8-33.4,28.5-49,43.1A39.8,39.8,0,0,0,11,103.9a2.5,2.5,0,0,1-2-.6,13.9,13.9,0,0,1-3.9-4.6,2.6,2.6,0,0,0-4.4-.8,1.8,1.8,0,0,0-.6,2c1,2.3-3.5,19.9,16.8,21.1a2.7,2.7,0,0,1,2.1,4.2c-2.3,3.6-4.3,9-.3,14.3,6.3,8.4,12,5.9,17.3,9a3,3,0,0,0,2.9,0c1-.7,2.1-1.7,1.3-2.7s-9.5-1.9-6-12.6c2.3-7,6-13.3,5.7-18.1l79.2-11.2c26.5-.4,58.7-2.8,89.8-4.7,3.3,8.4,9.3,10.5,9.3,10.5a34,34,0,0,0,21.3-12.1c10-.4,19.7-.7,28.6-.7,17.5,0,31.7-1.1,43.3-3a70.2,70.2,0,0,0,21.5,3.3c19.5,0,42.1-6.7,50.3-20.6a43.2,43.2,0,0,0,3.2-6.9C387.7,65.5,382.8,60.4,382.8,55.4Z"/><circle id="_Path_3" data-name="&lt;Path&gt;" cx="354.6" cy="43.5" r="4.6"/><path id="_Path_4" data-name="&lt;Path&gt;" class="cls-4" d="M384.3,70.7s-18.9,7.2-38.9-1.5"/></g><g id="_Group_2" data-name="&lt;Group&gt;"><path id="_Path_5" data-name="&lt;Path&gt;" class="cls-5" d="M183,107.8s-1.4,15.3-13.7,17.3c0,0-6.4-2.1-4.3-13.7S183,107.8,183,107.8Z"/><path id="_Path_6" data-name="&lt;Path&gt;" class="cls-6" d="M227.7,99.2a20.6,20.6,0,0,0-20.6-20.6l-3.2.2c-5.5-1.5-13.1-2.4-23.4-2.4-24.2,0-59.9,14.4-76.5,26.4h-.1c-2.7,1.6-13.7,11.7-20.1,17.7a16.9,16.9,0,0,0-9-1.4,1,1,0,0,1-.9-.2,6,6,0,0,1-1.5-1.9,1.2,1.2,0,0,0-1.9-.4,1,1,0,0,0-.2.9c.4.9-1.5,8.2,6.9,8.7a1.1,1.1,0,0,1,.8,1.7c-.9,1.5-1.7,3.7-.1,5.9s5,2.4,7.2,3.7a1.1,1.1,0,0,0,1.1,0c.5-.3.9-.7.6-1.2s-3.9-.8-2.5-5.1,2.5-5.5,2.3-7.5l32.6-4.6c10.9-.2,24.2-1.2,37-1.9a6.9,6.9,0,0,0,3.8,4.3,13.8,13.8,0,0,0,8.7-5l11.8-.3a109.7,109.7,0,0,0,17.8-1.2,28,28,0,0,0,8.8,1.3c8.1,0,17.4-2.7,20.7-8.4a15.1,15.1,0,0,0,1.3-2.9C229.7,103.3,227.7,101.2,227.7,99.2Z"/><circle id="_Path_7" data-name="&lt;Path&gt;" cx="216.1" cy="94.3" r="1.9"/><path id="_Path_8" data-name="&lt;Path&gt;" class="cls-7" d="M228.3,105.5a23.2,23.2,0,0,1-16-.7"/></g></g></svg>