<svg id="Layer_1" data-name="Layer 1" xmlns="http://www.w3.org/2000/svg" viewBox="0 0 32.9 32.9"><defs><style>.cls-1{fill:#ff1d25;}.cls-2{fill:#39b54a;}.cls-3{fill:#ff0;}.cls-4{fill:#fff;}</style></defs><title> </title><g id="_Group_" data-name="&lt;Group&gt;"><path id="_Path_" data-name="&lt;Path&gt;" class="cls-1" d="M12.2,10.1a3,3,0,0,1,1.6.5,27.1,27.1,0,0,1,8.6-9.5A16.4,16.4,0,0,0,7.2,2.9,35.3,35.3,0,0,1,11,10.4,2.1,2.1,0,0,1,12.2,10.1Z"/><path id="_Path_2" data-name="&lt;Path&gt;" class="cls-2" d="M10.9,15.2a2.7,2.7,0,0,1-1.4-2.4v-.5a24,24,0,0,0-8-2.8,17.9,17.9,0,0,0-1.5,7,16.4,16.4,0,0,0,7.9,14C7.6,26.5,7.6,19.8,10.9,15.2Z"/><path id="_Path_3" data-name="&lt;Path&gt;" class="cls-3" d="M14.8,12.4a.8.8,0,0,1,.1.4,2.9,2.9,0,0,1-1.2,2.3,32.2,32.2,0,0,1,9.8,16.3,16.5,16.5,0,0,0,9.4-14.9,15.7,15.7,0,0,0-.7-4.9C29,11,23.5,10.7,14.8,12.4Z"/><path id="_Path_4" data-name="&lt;Path&gt;" class="cls-4" d="M13.9,14.8a2.2,2.2,0,0,0,1-2,.8.8,0,0,0-.1-.4c8.7-1.7,14.2-1.4,17.4-.8A16.5,16.5,0,0,0,22.4,1.1a27.1,27.1,0,0,0-8.6,9.5,3,3,0,0,0-1.6-.5,2.1,2.1,0,0,0-1.2.3A35.3,35.3,0,0,0,7.2,2.9,15.9,15.9,0,0,0,1.5,9.5a24,24,0,0,1,8,2.8v.5a2.7,2.7,0,0,0,1.4,2.4c-3.3,4.6-3.3,11.3-3,15.3a15.7,15.7,0,0,0,8.6,2.4,16.6,16.6,0,0,0,7-1.5A33.5,33.5,0,0,0,13.9,14.8Z"/></g></svg>