<svg id="Layer_1" data-name="Layer 1" xmlns="http://www.w3.org/2000/svg" viewBox="0 0 32.4 32.9"><defs><style>.cls-1{fill:#662d91;}</style></defs><title> </title><path id="_Path_" data-name="&lt;Path&gt;" class="cls-1" d="M31.5,18l-6.4-1.1a2.2,2.2,0,0,0,.1-.8h0l6.3-1.1a1.1,1.1,0,0,0-.4-2.2l-6.2,1.1-.3-.9L30,9.8a1.2,1.2,0,0,0,.5-1.6h0a1.3,1.3,0,0,0-1.6-.4l-5.4,3.1c-.2-.2-.3-.5-.6-.7l4-4.8A1.1,1.1,0,1,0,25.2,4l-4,4.7-.8-.5,2.1-5.8a1.1,1.1,0,1,0-2.1-.7L18.3,7.4l-.9-.2V1.1a1.2,1.2,0,0,0-2.4,0V7.2l-.9.2L12,1.7A1.1,1.1,0,0,0,10.6,1a1.1,1.1,0,0,0-.7,1.4L12,8.2l-.8.5L7.2,4a1.1,1.1,0,0,0-1.6-.2,1.2,1.2,0,0,0-.1,1.6l4,4.8-.6.7L3.5,7.8A1.1,1.1,0,0,0,2,8.2H2a1.1,1.1,0,0,0,.4,1.6l5.4,3.1a2.9,2.9,0,0,0-.2.9L1.3,12.7a1.1,1.1,0,0,0-.4,2.2L7.3,16h0v.8L.9,18A1.1,1.1,0,0,0,0,19.3H0a1.1,1.1,0,0,0,1.3.9l6.5-1.1.3.7L2.4,23.1a1.1,1.1,0,0,0,1.1,2l5.8-3.3a1.2,1.2,0,0,0,.5.5L5.5,27.5A1.1,1.1,0,0,0,5.6,29h0a1,1,0,0,0,1.6-.1l4.4-5.1.6.3L9.9,30.5a1.1,1.1,0,0,0,.7,1.4,1.1,1.1,0,0,0,1.4-.7l2.3-6.3H15v6.8a1.2,1.2,0,0,0,2.4,0V25h.7l2.3,6.3a1.1,1.1,0,1,0,2.1-.7l-2.3-6.4.7-.3,4.3,5.1a1,1,0,0,0,1.6.1h0a1,1,0,0,0,.1-1.5l-4.3-5.2.6-.5,5.7,3.3a1.3,1.3,0,0,0,1.6-.4,1.2,1.2,0,0,0-.5-1.6l-5.6-3.3.3-.7,6.4,1.1a1.1,1.1,0,0,0,1.3-.9h0A1.1,1.1,0,0,0,31.5,18Z"/></svg>