<svg id="Layer_1" data-name="Layer 1" xmlns="http://www.w3.org/2000/svg" viewBox="0 0 77.6 142.8"><defs><style>.cls-1{fill:#1a1a1a;}.cls-2{fill:#e6e6e6;stroke-width:9.01px;}.cls-2,.cls-3{stroke:#1a1a1a;stroke-miterlimit:10;}.cls-3{fill:none;stroke-width:9px;}.cls-4{fill:#f2f2f2;}</style></defs><title> </title><g id="_Group_" data-name="&lt;Group&gt;"><path id="_Path_" data-name="&lt;Path&gt;" class="cls-1" d="M29.7,126.5,18.1,136a2,2,0,0,0,.8,3.6l13.3,3.1a1.9,1.9,0,0,0,2.5-1.9V128.1a2,2,0,0,0-2-2.1H31A2.4,2.4,0,0,0,29.7,126.5Z"/><path id="_Path_2" data-name="&lt;Path&gt;" class="cls-1" d="M48.2,126.5,59.9,136a2.1,2.1,0,0,1-.8,3.6l-13.4,3.1a2,2,0,0,1-2.5-1.9V128.1a2.1,2.1,0,0,1,2.1-2.1h1.6A2.1,2.1,0,0,1,48.2,126.5Z"/><path id="_Path_3" data-name="&lt;Path&gt;" class="cls-1" d="M19,53.4S3.1,72.4.3,101.3s13-7.5,13-7.5Z"/><path id="_Path_4" data-name="&lt;Path&gt;" class="cls-1" d="M58.7,53.4s15.8,19,18.6,47.9-13-7.5-13-7.5Z"/><path id="_Path_5" data-name="&lt;Path&gt;" class="cls-2" d="M66.6,95c0,34.7-13.1,39.2-28.3,39.2s-27-4.5-27-39.2S23.7,32.1,39,32.1,66.6,60.3,66.6,95Z"/><ellipse id="_Path_6" data-name="&lt;Path&gt;" class="cls-1" cx="39" cy="24.8" rx="21.3" ry="24.8"/><path id="_Path_7" data-name="&lt;Path&gt;" class="cls-3" d="M9.7,79.4S21,54.2,36.4,53.9,63.5,69.3,66.5,79.4"/><path id="_Path_8" data-name="&lt;Path&gt;" class="cls-1" d="M26.1,26.5s-15.6,1.4-24.3,15c0,0,23.7-7.8,26.7-5Z"/><circle id="_Path_9" data-name="&lt;Path&gt;" class="cls-4" cx="39.8" cy="19.5" r="5.2"/><circle id="_Path_10" data-name="&lt;Path&gt;" class="cls-4" cx="24.3" cy="19.5" r="5.2"/><circle id="_Path_11" data-name="&lt;Path&gt;" cx="39.8" cy="19.5" r="3.8"/><circle id="_Path_12" data-name="&lt;Path&gt;" cx="24.3" cy="19.5" r="3.8"/><path id="_Path_13" data-name="&lt;Path&gt;" class="cls-4" d="M57.8,22.1a2.7,2.7,0,0,0-4-2.1c-4.3,2.2-12,6.6-13.9,11.3s-6.1,6.8-9.4,8.4a2.9,2.9,0,0,0-.3,4.9c3.1,2,8.2,3.8,15.5,1.1C56.1,41.9,58.7,28.8,57.8,22.1Z"/></g></svg>