<svg id="Layer_1" data-name="Layer 1" xmlns="http://www.w3.org/2000/svg" xmlns:xlink="http://www.w3.org/1999/xlink" viewBox="0 0 1366 768"><defs><style>.cls-1{fill:url(#radial-gradient);}.cls-2{fill:#998675;}.cls-3{fill:#00bbd6;}.cls-3,.cls-4{opacity:0.79;}.cls-4{fill:url(#linear-gradient);}.cls-5{fill:#736357;}.cls-6{fill:#1a1a1a;}.cls-10,.cls-7{fill:#e6e6e6;}.cls-10,.cls-11,.cls-7,.cls-8{stroke:#1a1a1a;stroke-miterlimit:10;}.cls-7{stroke-width:3.62px;}.cls-11,.cls-8{fill:none;}.cls-8{stroke-width:4.9px;}.cls-9{fill:#f2f2f2;}.cls-10{stroke-width:4.27px;}.cls-11{stroke-width:5.78px;}.cls-12{fill:#0071bc;}.cls-13{fill:#c7b299;}.cls-14{fill:#009245;}.cls-15{fill:#006837;}</style><radialGradient id="radial-gradient" cx="682.5" cy="384" r="554.36" gradientUnits="userSpaceOnUse"><stop offset="0" stop-color="#89deff"/><stop offset="1" stop-color="#94c1ee"/></radialGradient><linearGradient id="linear-gradient" x1="641.28" y1="357" x2="641.28" y2="768" gradientUnits="userSpaceOnUse"><stop offset="0" stop-color="#29abe2"/><stop offset="0.16" stop-color="#29a7df"/><stop offset="0.32" stop-color="#279ad4"/><stop offset="0.49" stop-color="#2686c3"/><stop offset="0.66" stop-color="#2369ab"/><stop offset="0.82" stop-color="#1f438b"/><stop offset="0.99" stop-color="#1b1666"/><stop offset="1" stop-color="#1b1464"/></linearGradient></defs><title> </title><rect class="cls-1" x="-1" width="1367" height="768"/><path id="_Path_" data-name="&lt;Path&gt;" class="cls-2" d="M1366,768H-1V426.8h0c438.9-170.7,887.9-175.6,1327.5-14.5l39.5,14.5Z"/><path id="_Path_2" data-name="&lt;Path&gt;" class="cls-3" d="M1280.6,768H0V439.6l22.2,9.5c165.4,70.9,385.6,28.9,578.6-15l55.3-12.6c132-30,279.1-32.1,413.8-6l210.7,40.8Z"/><path id="_Path_3" data-name="&lt;Path&gt;" class="cls-4" d="M1.6,768H1281V446.5l-22.2,10.6c-225.3,34.1-385.3-10.7-578.1-59.3l-55.2-14c-132-33.3-278.9-35.7-413.5-6.7L1.6,422.4Z"/><g id="_Group_" data-name="&lt;Group&gt;"><path class="cls-5" d="M243.2,785c-17.4,18.1-32.4-17.2-57.5-17.2s-25.1,20.4-50.2,20.4-25.1-20.4-50.2-20.4-25,20.4-50.1,20.4-27.5,4.6-41.9-16C-27.2,742.6-25.2,742-25.2,706s20.4-36,20.4-72.1-20.4-36-20.4-72,20.4-36,20.4-72-42.5-53.1-17.5-79.1c18.7-19.5,28.6,26.4,53.7,36.3s32.6-8.9,57.7,1,17.6,28.8,42.7,38.7,32.5-8.9,57.6,1,22.7,13,38.1,35.1S246,543.2,246,569.3s-20.3,26.1-20.3,52.2S246,647.6,246,673.6s-26.9,29.7-20,54.9C234.5,759.2,261.3,766.2,243.2,785Z"/></g><g id="_Group_2" data-name="&lt;Group&gt;"><path id="_Path_4" data-name="&lt;Path&gt;" class="cls-6" d="M172.9,486.8l-8.7,5.2a1.3,1.3,0,0,0,.2,2.4l8.5,3.5a1.4,1.4,0,0,0,1.9-1.1l1.3-8.5a1.3,1.3,0,0,0-1.2-1.5l-1.1-.2A1,1,0,0,0,172.9,486.8Z"/><path id="_Path_5" data-name="&lt;Path&gt;" class="cls-6" d="M185.2,488.6l6.8,7.5a1.3,1.3,0,0,1-.9,2.3l-9.1.8a1.4,1.4,0,0,1-1.5-1.6l1.2-8.4a1.5,1.5,0,0,1,1.6-1.2l1.1.2A1.2,1.2,0,0,1,185.2,488.6Z"/><path id="_Path_6" data-name="&lt;Path&gt;" class="cls-6" d="M195.5,440.4a64.3,64.3,0,0,1,7.6,33.7c-1,19.5-7.9-6.3-7.9-6.3Z"/><path id="_Path_7" data-name="&lt;Path&gt;" class="cls-7" d="M196.8,468.9c-3.5,23.1-11.8,24.9-21.1,23.6s-15.9-5.5-12.4-28.6,13.7-40.7,23-39.4S200.2,445.8,196.8,468.9Z"/><ellipse id="_Path_8" data-name="&lt;Path&gt;" class="cls-6" cx="190.9" cy="418.2" rx="16.7" ry="14.3" transform="translate(-266 367.9) rotate(-59.2)"/><path id="_Path_9" data-name="&lt;Path&gt;" class="cls-8" d="M166.1,453.1s11.3-14.9,21.2-13.6,11.3,12.2,12.3,19.2"/><path id="_Path_10" data-name="&lt;Path&gt;" class="cls-6" d="M197.8,423.6s8.5,6.2,8.9,17c0,0-11.1-12.6-13.8-12.1Z"/><circle id="_Path_11" data-name="&lt;Path&gt;" class="cls-9" cx="192.3" cy="414.8" r="3.5"/><circle id="_Path_12" data-name="&lt;Path&gt;" class="cls-9" cx="201.2" cy="420.2" r="3.5"/><circle id="_Path_13" data-name="&lt;Path&gt;" cx="192.3" cy="414.8" r="2.5"/><circle id="_Path_14" data-name="&lt;Path&gt;" cx="201.2" cy="420.2" r="2.5"/><path id="_Path_15" data-name="&lt;Path&gt;" class="cls-9" d="M180.9,410.1a1.9,1.9,0,0,1,3.1.2c1.7,2.7,4.6,8,4.2,11.3s1.1,6,2.5,8.1a1.9,1.9,0,0,1-1.5,2.9c-2.5.1-6.1-.6-9.4-4.7C175.1,422.1,178.1,413.7,180.9,410.1Z"/><path id="_Path_16" data-name="&lt;Path&gt;" class="cls-6" d="M170,438.1a64.2,64.2,0,0,1-1.1,34.6c-5.9,18.6-6.1-8.1-6.1-8.1Z"/></g><g id="_Group_3" data-name="&lt;Group&gt;"><path class="cls-5" d="M848.4,769.4c45.5,28.7,48.4,18.8,102.2,18.8s53.8-20.4,107.6-20.4,53.8,20.4,107.6,20.4,53.8-20.4,107.6-20.4,73.1,52.7,114.2,18c34.7-29.4-16.8-53.3-16.8-98.8s20.4-45.5,20.4-91-20.4-45.5-20.4-91,20.4-45.5,20.4-91,10.1-49-18.2-84.7c-22.4-28.3-28.1-16.5-64.2-16.5s-36.1,20.4-72.2,20.4-36.1-20.4-72.2-20.4-36.1,20.4-72.2,20.4-47.1-38-77.6-18.8c-19.3,12.1,15.6,31.3,15.6,54.1s-20.4,22.7-20.4,45.5,20.4,22.7,20.4,45.5-20.4,22.7-20.4,45.5,27.9,28,19.7,49.2C1019,581,994.3,567,976.6,589.8s-1.7,35.2-19.4,57.9-33.7,10.3-51.4,33.1,1.8,42.6-21.3,59.8S824,754,848.4,769.4Z"/></g><g id="_Group_4" data-name="&lt;Group&gt;"><path id="_Path_17" data-name="&lt;Path&gt;" class="cls-6" d="M62.2,457.2l8.9,7.2a1.6,1.6,0,0,1-.6,2.7l-10.1,2.4a1.5,1.5,0,0,1-1.9-1.5v-9.6a1.5,1.5,0,0,1,1.5-1.5h1.3A1.4,1.4,0,0,1,62.2,457.2Z"/><path id="_Path_18" data-name="&lt;Path&gt;" class="cls-6" d="M48.3,457.2l-8.9,7.2a1.5,1.5,0,0,0,.7,2.7l10,2.4A1.5,1.5,0,0,0,52,468v-9.6a1.5,1.5,0,0,0-1.5-1.5H49.3A1.7,1.7,0,0,0,48.3,457.2Z"/><path id="_Path_19" data-name="&lt;Path&gt;" class="cls-6" d="M70.4,401.9a72.1,72.1,0,0,1,14.1,36.3c2.1,21.8-9.8-5.7-9.8-5.7Z"/><path id="_Path_20" data-name="&lt;Path&gt;" class="cls-6" d="M40.3,401.9a73.2,73.2,0,0,0-14.1,36.3c-2.1,21.8,9.9-5.7,9.9-5.7Z"/><path id="_Path_21" data-name="&lt;Path&gt;" class="cls-10" d="M34.3,433.4c0,26.3,9.9,29.7,21.5,29.7s20.4-3.4,20.4-29.7-9.4-47.6-21-47.6S34.3,407.1,34.3,433.4Z"/><ellipse id="_Path_22" data-name="&lt;Path&gt;" class="cls-6" cx="55.2" cy="380.3" rx="16.1" ry="18.8"/><path id="_Path_23" data-name="&lt;Path&gt;" class="cls-11" d="M78.3,421.6s-9.1-19.1-21.4-19.4-21.7,11.7-24.2,19.4"/><path id="_Path_24" data-name="&lt;Path&gt;" class="cls-6" d="M65,381.5s11.8,1.1,18.4,11.4c0,0-17.9-5.9-20.2-3.8Z"/><circle id="_Path_25" data-name="&lt;Path&gt;" class="cls-9" cx="54.7" cy="376.2" r="3.9"/><circle id="_Path_26" data-name="&lt;Path&gt;" class="cls-9" cx="66.4" cy="376.2" r="3.9"/><circle id="_Path_27" data-name="&lt;Path&gt;" cx="54.7" cy="376.2" r="2.9"/><circle id="_Path_28" data-name="&lt;Path&gt;" cx="66.4" cy="376.2" r="2.9"/><path id="_Path_29" data-name="&lt;Path&gt;" class="cls-9" d="M41,378.2a2.1,2.1,0,0,1,3.1-1.6c3.2,1.7,9,5,10.5,8.6s4.6,5.1,7.1,6.3a2.2,2.2,0,0,1,.2,3.7c-2.3,1.5-6.2,2.9-11.8.8C42.3,393.2,40.3,383.3,41,378.2Z"/></g><path id="_Path_30" data-name="&lt;Path&gt;" class="cls-12" d="M781.9,181.6c2.9-19.4,1.6-18.4-1.4-19.1s-2.6-1.6-9.4,16.6-3.6,19.1.7,20.1h.3C775.1,200,779,200.8,781.9,181.6Z"/><path id="_Path_31" data-name="&lt;Path&gt;" class="cls-12" d="M810.9,184.2c.6-19.6,1.7-18.4,4.7-18.6s2.9-1.1,6.4,18,.1,19.5-4.4,19.7h-.3C814.3,203.5,810.3,203.6,810.9,184.2Z"/><g id="_Rectangle_" data-name="&lt;Rectangle&gt;"><path class="cls-13" d="M918.5,182.4a709,709,0,0,1-231.7-19.7c.6-3.8,1.3-7.7,2-11.5a700.4,700.4,0,0,0,229.8,20.4C918.6,175.2,918.5,178.8,918.5,182.4Z"/></g><path class="cls-5" d="M901.9,128s35.8,105.6-4,201.4c0,0,55.3-12.1,67.6,19.1,0,0-22.9-180.7-49.2-224.3S901.9,128,901.9,128Z"/><path id="_Path_32" data-name="&lt;Path&gt;" class="cls-14" d="M951.5,132.4a153.1,153.1,0,0,1-48-18.2,146.4,146.4,0,0,1,99.4,18.7A151,151,0,0,1,951.5,132.4Z"/><path id="_Path_33" data-name="&lt;Path&gt;" class="cls-15" d="M937.8,139.6a106.5,106.5,0,0,1-34-25.3,101.6,101.6,0,0,1,75.3,34.6A105.9,105.9,0,0,1,937.8,139.6Z"/><path id="_Path_34" data-name="&lt;Path&gt;" class="cls-15" d="M942.5,122.5A107.8,107.8,0,0,1,901.7,111a101.2,101.2,0,0,1,82.7,5.3A105.9,105.9,0,0,1,942.5,122.5Z"/><path id="_Path_35" data-name="&lt;Path&gt;" class="cls-14" d="M950.1,114.9a156.2,156.2,0,0,1-50.9-7.1,148.9,148.9,0,0,1,101.1-3.5A155,155,0,0,1,950.1,114.9Z"/><path id="_Path_36" data-name="&lt;Path&gt;" class="cls-14" d="M878.2,137.6a120.9,120.9,0,0,0,30.4-26.9,120.6,120.6,0,0,0-37.8,14.8,118.5,118.5,0,0,0-30.3,27A119.4,119.4,0,0,0,878.2,137.6Z"/><path id="_Path_37" data-name="&lt;Path&gt;" class="cls-15" d="M890.5,138.1a83.1,83.1,0,0,0,17.9-28.3,85.3,85.3,0,0,0-27.9,18.5,83.7,83.7,0,0,0-17.8,28.3A84.3,84.3,0,0,0,890.5,138.1Z"/><path id="_Path_38" data-name="&lt;Path&gt;" class="cls-15" d="M877.5,126.7a83.5,83.5,0,0,0,28.9-16.8,79.9,79.9,0,0,0-62.2,20.3A84.5,84.5,0,0,0,877.5,126.7Z"/><path id="_Path_39" data-name="&lt;Path&gt;" class="cls-14" d="M872.2,116.6a121.4,121.4,0,0,0,39.5-9.2,117.1,117.1,0,0,0-79.7,4.4A121.5,121.5,0,0,0,872.2,116.6Z"/><path class="cls-5" d="M705,132.2s-38.4,104.6-1.1,201.5c0,0-55-13.5-68,17.4,0,0,27.5-180.2,54.8-223S705,132.2,705,132.2Z"/><path id="_Path_40" data-name="&lt;Path&gt;" class="cls-14" d="M655.3,135.3a150.9,150.9,0,0,0,48.5-16.9,146.5,146.5,0,0,0-99.9,16.2A152.8,152.8,0,0,0,655.3,135.3Z"/><path id="_Path_41" data-name="&lt;Path&gt;" class="cls-15" d="M668.9,142.9a106.8,106.8,0,0,0,34.6-24.5,101.9,101.9,0,0,0-76.2,32.8A106.3,106.3,0,0,0,668.9,142.9Z"/><path id="_Path_42" data-name="&lt;Path&gt;" class="cls-15" d="M664.6,125.7a106.7,106.7,0,0,0,41.1-10.5,102.1,102.1,0,0,0-82.9,3.2A106.1,106.1,0,0,0,664.6,125.7Z"/><path id="_Path_43" data-name="&lt;Path&gt;" class="cls-14" d="M657.2,117.9a154.8,154.8,0,0,0,51-5.9,152.3,152.3,0,0,0-49.9-11.8,154.2,154.2,0,0,0-51.1,5.8A154.9,154.9,0,0,0,657.2,117.9Z"/><path id="_Path_44" data-name="&lt;Path&gt;" class="cls-14" d="M728.4,142.4a119.5,119.5,0,0,1-29.6-27.7,115.7,115.7,0,0,1,67,43.5A121.6,121.6,0,0,1,728.4,142.4Z"/><path id="_Path_45" data-name="&lt;Path&gt;" class="cls-15" d="M716.1,142.6A84.3,84.3,0,0,1,699,113.9a79.1,79.1,0,0,1,44.5,47.9A86,86,0,0,1,716.1,142.6Z"/><path id="_Path_46" data-name="&lt;Path&gt;" class="cls-15" d="M729.5,131.5A82.9,82.9,0,0,1,701,114a80.4,80.4,0,0,1,61.6,21.9A83.3,83.3,0,0,1,729.5,131.5Z"/><path id="_Path_47" data-name="&lt;Path&gt;" class="cls-14" d="M735,121.5a121.2,121.2,0,0,1-39.3-10.1,120.5,120.5,0,0,1,40.4-3.8,122.7,122.7,0,0,1,39.3,10.2A122.1,122.1,0,0,1,735,121.5Z"/><path class="cls-2" d="M1366,549.6l-258.5,28.2A412.8,412.8,0,0,0,855.3,701.6l-64,66.4H1366Z"/></svg>