<svg id="Layer_1" data-name="Layer 1" xmlns="http://www.w3.org/2000/svg" viewBox="0 0 123.1 108.6"><defs><style>.cls-1{fill:#959a8f;}.cls-2{fill:#acdee0;}</style></defs><title> </title><path id="_Path_" data-name="&lt;Path&gt;" class="cls-1" d="M25.6,87.1s38,14.1,67.6-6.7c0,0-.9-10.1-2-21.2-.8-8.4-4-17.9,5.5-21.1,27.8-9.1,29.1-17,24.1-18.5s-24.5.5-24.5.5S90.2-5.1,56.4.9C26.8,6.2,26,46.7,26,46.7S-2.9,60.8.2,82.4c0,0,17.7-17.9,29.8-12.1C30,70.3,23.3,82.9,25.6,87.1Z"/><ellipse id="_Path_2" data-name="&lt;Path&gt;" cx="78.9" cy="20.9" rx="2.4" ry="3.5"/><g id="_Group_" data-name="&lt;Group&gt;"><path class="cls-2" d="M19.9,84.6a6.7,6.7,0,0,0,1.8,5.9,14.9,14.9,0,0,0,5.2,3.3A32.8,32.8,0,0,0,33,95.6c2.1.4,4.2.7,6.4.9,4.2.4,8.6.6,12.9.6s8.6-.1,12.9-.3,8.7-.6,12.9-1.3a63.3,63.3,0,0,0,12.3-3.1A32.5,32.5,0,0,0,96,89.6a16.8,16.8,0,0,0,4.5-4.3,9.8,9.8,0,0,0,1.6-5.8,7.9,7.9,0,0,0-.8-3,3.5,3.5,0,0,0-.8-1.3,2.8,2.8,0,0,0-1.3-.9,2.6,2.6,0,0,1,1.5.7,6.3,6.3,0,0,1,1.1,1.2,9.6,9.6,0,0,1,1.2,3.2,10.7,10.7,0,0,1-1.1,6.8,17.2,17.2,0,0,1-4.6,5.1,28.9,28.9,0,0,1-5.8,3.5l-3.2,1.3-3.2,1c-2.1.6-4.3,1.1-6.5,1.5a118.5,118.5,0,0,1-13.2,1.5,130,130,0,0,1-26.4-1,45.8,45.8,0,0,1-12.8-3.8A13.5,13.5,0,0,1,21,91a6.8,6.8,0,0,1-1.4-3.1A6.2,6.2,0,0,1,19.9,84.6Z"/></g><g id="_Group_2" data-name="&lt;Group&gt;"><path class="cls-2" d="M13,89.9a8.1,8.1,0,0,0,.3,3.8,9.4,9.4,0,0,0,1.9,3.2,17.9,17.9,0,0,0,6.3,4,42.7,42.7,0,0,0,7.2,2.1c2.5.4,5,.9,7.6,1.1,5.1.5,10.2.7,15.3.7s10.3-.1,15.5-.4,10.2-.8,15.2-1.6A70.3,70.3,0,0,0,97,99.1a32.1,32.1,0,0,0,6.7-3.3,19.5,19.5,0,0,0,5.3-5,12.2,12.2,0,0,0,1.9-6.9,8.1,8.1,0,0,0-.9-3.7,7.8,7.8,0,0,0-1-1.5,2.5,2.5,0,0,0-1.6-1,2.5,2.5,0,0,1,1.8.8,4.7,4.7,0,0,1,1.3,1.5,8.5,8.5,0,0,1,1.5,3.7,13,13,0,0,1-1.3,8,20.5,20.5,0,0,1-5.5,6.2,30.6,30.6,0,0,1-7,4.1c-1.2.6-2.4,1-3.7,1.5s-2.5.9-3.8,1.2-5.1,1.3-7.7,1.8a119.8,119.8,0,0,1-15.7,1.8c-10.5.5-21,.5-31.4-1.1-5.2-.9-10.5-2.1-15.3-4.6a17.6,17.6,0,0,1-6.2-5,10.4,10.4,0,0,1-1.7-3.7A9,9,0,0,1,13,89.9Z"/></g></svg>