<svg id="Layer_1" data-name="Layer 1" xmlns="http://www.w3.org/2000/svg" xmlns:xlink="http://www.w3.org/1999/xlink" viewBox="0 0 147.3 134.9"><defs><style>.cls-1,.cls-10,.cls-2,.cls-5,.cls-6,.cls-9{fill:none;stroke:#e6e6e6;stroke-linecap:round;stroke-miterlimit:10;}.cls-1{stroke-width:2.46px;}.cls-2{stroke-width:3.7px;}.cls-3{fill:url(#radial-gradient);}.cls-4{fill:url(#radial-gradient-2);}.cls-5{stroke-width:1.68px;}.cls-6{stroke-width:2.52px;}.cls-7{fill:url(#radial-gradient-3);}.cls-8{fill:url(#radial-gradient-4);}.cls-9{stroke-width:1.45px;}.cls-10{stroke-width:2.18px;}.cls-11{fill:url(#radial-gradient-5);}.cls-12{fill:url(#radial-gradient-6);}</style><radialGradient id="radial-gradient" cx="745.09" cy="1982.16" r="37.34" gradientTransform="translate(153.1 -2106) rotate(22.1)" gradientUnits="userSpaceOnUse"><stop offset="0" stop-color="#fff" stop-opacity="0"/><stop offset="0.26" stop-color="#f8f8f8" stop-opacity="0.27"/><stop offset="0.77" stop-color="#ebebeb" stop-opacity="0.79"/><stop offset="1" stop-color="#e6e6e6"/></radialGradient><radialGradient id="radial-gradient-2" cx="744.99" cy="1990.75" r="25.21" xlink:href="#radial-gradient"/><radialGradient id="radial-gradient-3" cx="797.08" cy="2030.72" r="25.42" xlink:href="#radial-gradient"/><radialGradient id="radial-gradient-4" cx="797.02" cy="2036.57" r="17.16" xlink:href="#radial-gradient"/><radialGradient id="radial-gradient-5" cx="700.88" cy="2061.05" r="21.96" xlink:href="#radial-gradient"/><radialGradient id="radial-gradient-6" cx="700.82" cy="2066.1" r="14.83" xlink:href="#radial-gradient"/></defs><title> </title><g id="_Group_" data-name="&lt;Group&gt;"><path id="_Path_" data-name="&lt;Path&gt;" class="cls-1" d="M104,38.3A50.4,50.4,0,0,1,96.2,61C89,71.8,82.7,88.4,86.5,97.1"/><path id="_Path_2" data-name="&lt;Path&gt;" class="cls-2" d="M83.7,30.1A50.3,50.3,0,0,0,73.5,51.8c-2.4,12.7-9.4,29.1-18.2,32.7"/><path id="_Path_3" data-name="&lt;Path&gt;" class="cls-2" d="M95.4,36.4S84.6,53.6,85.7,66.9,80.6,91.6,70.8,93.1"/><path id="_Path_4" data-name="&lt;Path&gt;" class="cls-2" d="M101.8,36.3S96.8,56.6,88,61.8,68.3,72.5,64.1,79.6,61.2,89,61.2,89"/><path id="_Path_5" data-name="&lt;Path&gt;" class="cls-2" d="M79,26.5S68.6,38,75.4,51.5s2.5,33.4-3.5,38.6"/><path id="_Path_6" data-name="&lt;Path&gt;" class="cls-2" d="M89.2,33.6s.7,18.2-10.9,24.6-21.1,5.7-26,17.1"/><path id="_Path_7" data-name="&lt;Path&gt;" class="cls-3" d="M124.5,38.5c-5,12.3-18,4.5-35.4-2.5S56.6,25.3,61.6,13,84.8-3.7,102.1,3.4,129.5,26.1,124.5,38.5Z"/><path id="_Path_8" data-name="&lt;Path&gt;" class="cls-4" d="M113,37.4c-3.4,8.4-12.1,3.1-23.9-1.7S67.2,28.6,70.6,20.2,86.2,9,97.9,13.7,116.4,29.1,113,37.4Z"/></g><g id="_Group_2" data-name="&lt;Group&gt;"><path id="_Path_9" data-name="&lt;Path&gt;" class="cls-5" d="M132.5,94.1a34.1,34.1,0,0,1-5.3,15.4c-4.9,7.4-9.2,18.7-6.7,24.6"/><path id="_Path_10" data-name="&lt;Path&gt;" class="cls-6" d="M118.7,88.5a33.1,33.1,0,0,0-7,14.7c-1.6,8.7-6.4,19.9-12.3,22.3"/><path id="_Path_11" data-name="&lt;Path&gt;" class="cls-6" d="M126.6,92.8s-7.3,11.7-6.6,20.7-3.5,16.9-10.1,17.9"/><path id="_Path_12" data-name="&lt;Path&gt;" class="cls-6" d="M131,92.7s-3.4,13.8-9.4,17.4-13.4,7.2-16.3,12.1-2,6.4-2,6.4"/><path id="_Path_13" data-name="&lt;Path&gt;" class="cls-6" d="M115.4,86s-7,7.9-2.4,17.1,1.7,22.7-2.4,26.2"/><path id="_Path_14" data-name="&lt;Path&gt;" class="cls-6" d="M122.4,90.9s.5,12.4-7.4,16.7-14.4,3.9-17.7,11.6"/><path id="_Path_15" data-name="&lt;Path&gt;" class="cls-7" d="M146.4,94.2c-3.4,8.4-12.2,3.1-24-1.7s-22.2-7.3-18.8-15.7,15.8-11.3,27.6-6.5S149.8,85.8,146.4,94.2Z"/><path id="_Path_16" data-name="&lt;Path&gt;" class="cls-8" d="M138.6,93.5c-2.3,5.6-8.3,2.1-16.2-1.2s-15-4.9-12.7-10.5,10.7-7.7,18.6-4.4S140.9,87.8,138.6,93.5Z"/></g><g id="_Group_3" data-name="&lt;Group&gt;"><path id="_Path_17" data-name="&lt;Path&gt;" class="cls-9" d="M31.5,83.5a29.8,29.8,0,0,1-4.6,13.3c-4.2,6.4-7.9,16.2-5.7,21.3"/><path id="_Path_18" data-name="&lt;Path&gt;" class="cls-10" d="M19.6,78.7a29.2,29.2,0,0,0-6,12.7C12.2,98.9,8,108.6,2.9,110.7"/><path id="_Path_19" data-name="&lt;Path&gt;" class="cls-10" d="M26.4,82.4s-6.3,10.1-5.7,17.9-3,14.6-8.7,15.5"/><path id="_Path_20" data-name="&lt;Path&gt;" class="cls-10" d="M30.2,82.4s-2.9,11.9-8.1,15S10.5,103.6,8,107.8s-1.7,5.5-1.7,5.5"/><path id="_Path_21" data-name="&lt;Path&gt;" class="cls-10" d="M16.8,76.6s-6.1,6.7-2.1,14.7,1.4,19.6-2.1,22.7"/><path id="_Path_22" data-name="&lt;Path&gt;" class="cls-10" d="M22.8,80.8s.4,10.7-6.4,14.4S4,98.6,1.1,105.3"/><path id="_Path_23" data-name="&lt;Path&gt;" class="cls-11" d="M43.5,83.6c-2.9,7.3-10.5,2.7-20.7-1.5S3.6,75.9,6.6,68.6,20.2,58.9,30.4,63,46.5,76.4,43.5,83.6Z"/><path id="_Path_24" data-name="&lt;Path&gt;" class="cls-12" d="M36.8,83c-2,4.9-7.1,1.8-14-1S9.9,77.8,11.9,72.9s9.1-6.6,16-3.8S38.8,78.1,36.8,83Z"/></g></svg>