<svg id="Layer_1" data-name="Layer 1" xmlns="http://www.w3.org/2000/svg" viewBox="0 0 111.8 70.4"><defs><style>.cls-1{opacity:0.59;}.cls-2{fill:#ef7c32;}.cls-3{fill:#a17a94;}.cls-4{fill:#ccc;}.cls-5{fill:#f9a01b;}</style></defs><title> </title><g id="_Group_" data-name="&lt;Group&gt;" class="cls-1"><path id="_Path_" data-name="&lt;Path&gt;" class="cls-2" d="M87.5,18.4,110,5.3a1.3,1.3,0,0,1,1.8,1.1v26a1.2,1.2,0,0,1-1.8,1.1L87.5,20.4A1.1,1.1,0,0,1,87.5,18.4Z"/><path id="_Path_2" data-name="&lt;Path&gt;" class="cls-2" d="M75.1,8.5S85.1-1.3,97.2.2c.7,0,1.1.9.8,1.6l-2.5,7Z"/><ellipse id="_Path_3" data-name="&lt;Path&gt;" class="cls-3" cx="86.4" cy="19.1" rx="18.7" ry="13.9"/><circle id="_Path_4" data-name="&lt;Path&gt;" class="cls-4" cx="76" cy="15.2" r="3.4"/><circle id="_Path_5" data-name="&lt;Path&gt;" cx="75.7" cy="15.2" r="1.8"/><ellipse id="_Path_6" data-name="&lt;Path&gt;" class="cls-3" cx="67.5" cy="19.4" rx="1.3" ry="2.4" transform="translate(33.8 81.1) rotate(-77.4)"/><ellipse id="_Path_7" data-name="&lt;Path&gt;" class="cls-3" cx="67.7" cy="21.9" rx="2.4" ry="1.3" transform="translate(-1.8 6.8) rotate(-5.7)"/><path id="_Path_8" data-name="&lt;Path&gt;" class="cls-5" d="M84.5,19.1s3.2,1.4,8.4-.6c0,0,6.7,3.2,4,6C91.9,29.9,84.5,19.1,84.5,19.1Z"/></g><g id="_Group_2" data-name="&lt;Group&gt;" class="cls-1"><path id="_Path_9" data-name="&lt;Path&gt;" class="cls-2" d="M24.4,55.1,1.8,42.1A1.2,1.2,0,0,0,0,43.2v26a1.2,1.2,0,0,0,1.8,1l22.6-13A1.2,1.2,0,0,0,24.4,55.1Z"/><path id="_Path_10" data-name="&lt;Path&gt;" class="cls-2" d="M36.7,45.2s-9.9-9.8-22-8.3a1.3,1.3,0,0,0-.9,1.7l2.5,7Z"/><ellipse id="_Path_11" data-name="&lt;Path&gt;" class="cls-3" cx="25.4" cy="55.9" rx="18.7" ry="13.9"/><circle id="_Path_12" data-name="&lt;Path&gt;" class="cls-4" cx="35.9" cy="51.9" r="3.4"/><circle id="_Path_13" data-name="&lt;Path&gt;" cx="36.2" cy="51.9" r="1.8"/><ellipse id="_Path_14" data-name="&lt;Path&gt;" class="cls-3" cx="44.4" cy="56.2" rx="2.4" ry="1.3" transform="translate(-11.2 11) rotate(-12.6)"/><ellipse id="_Path_15" data-name="&lt;Path&gt;" class="cls-3" cx="44.1" cy="58.7" rx="1.3" ry="2.4" transform="translate(-18.6 96.7) rotate(-84.3)"/><path id="_Path_16" data-name="&lt;Path&gt;" class="cls-5" d="M27.4,55.9s-3.3,1.4-8.5-.6c0,0-6.7,3.2-4,6C20,66.7,27.4,55.9,27.4,55.9Z"/></g></svg>