<svg id="Layer_1" data-name="Layer 1" xmlns="http://www.w3.org/2000/svg" viewBox="0 0 188.1 125"><defs><style>.cls-1{fill:#3d3430;}.cls-2{fill:#534741;}.cls-3{fill:#736357;}.cls-4{fill:#cfc1ab;}.cls-5{fill:none;stroke:#3d3430;stroke-miterlimit:10;stroke-width:2.43px;}</style></defs><title> </title><path class="cls-1" d="M146,92.3l30.8,17.2a6.1,6.1,0,0,0,8.4-3l2.3-5.1a6.1,6.1,0,0,0-3.2-8.3l-33.1-12a6.2,6.2,0,0,0-7.6,3.3h0A6.1,6.1,0,0,0,146,92.3Z"/><path class="cls-1" d="M144.8,107.1l30.7,17.2a6,6,0,0,0,8.4-3l2.4-5.1a6.1,6.1,0,0,0-3.3-8.3l-33.1-12a6.2,6.2,0,0,0-7.6,3.3h0A6.2,6.2,0,0,0,144.8,107.1Z"/><path id="_Path_" data-name="&lt;Path&gt;" class="cls-2" d="M48.3,85.2c55.6,32.8,105.2,46.1,119.3,15.1C181,71.1,124.9,41.9,83.5,21.1,6.6-17.5,60.6,24.5,50.9,42.2S-34.8,36.1,48.3,85.2Z"/><path id="_Path_2" data-name="&lt;Path&gt;" class="cls-3" d="M26,1.8S31.8-.7,35.1.2,33.3,2.4,33,3.3,27.5,4.5,26,1.8Z"/><path id="_Path_3" data-name="&lt;Path&gt;" class="cls-3" d="M2,46.7S3.5,52.9,6.2,55s.7-2.8,1.3-3.6S5.1,46.3,2,46.7Z"/><path id="_Path_4" data-name="&lt;Path&gt;" class="cls-4" d="M15.8,61.9c15.7,8.9,30.7.3,39.6-15.4s8.4-32.7-7.3-41.6S13.5,3.1,4.6,18.8,0,52.9,15.8,61.9Z"/><ellipse id="_Path_5" data-name="&lt;Path&gt;" cx="32.1" cy="16.6" rx="3.2" ry="5.1" transform="translate(0.8 34.6) rotate(-57.2)"/><path id="_Path_6" data-name="&lt;Path&gt;" class="cls-5" d="M35.8,33.5s7.5,1.1,12.9-3.8"/><path id="_Path_7" data-name="&lt;Path&gt;" class="cls-5" d="M35.7,32.6s5.8,4.8,5.8,12.1"/><ellipse id="_Path_8" data-name="&lt;Path&gt;" cx="19.5" cy="39.4" rx="3.2" ry="5.1" transform="translate(-24.2 34.4) rotate(-57.2)"/><path id="_Path_9" data-name="&lt;Path&gt;" d="M30.6,32.2l2.3,4.3a1.8,1.8,0,0,0,3.1-.1v-.6a7.2,7.2,0,0,1,2.2-4.3l.5-.4a1.7,1.7,0,0,0-1.9-2.5l-5.1,1.1A1.7,1.7,0,0,0,30.6,32.2Z"/><path id="_Path_10" data-name="&lt;Path&gt;" class="cls-1" d="M78.7,18l.7.2a37.8,37.8,0,0,1,18.4,9.2l1.2,1S75.3,45.3,71.4,43.8,62.8,39.3,66.3,33,78.7,18,78.7,18Z"/><path id="_Path_11" data-name="&lt;Path&gt;" class="cls-1" d="M43.6,83l.5.5A40.3,40.3,0,0,0,62.4,93l1.6.3s-.3-29.1-3.8-31.4-8.8-4.3-11.8,2.2S43.6,83,43.6,83Z"/></svg>