<svg id="Layer_1" data-name="Layer 1" xmlns="http://www.w3.org/2000/svg" viewBox="0 0 33.1 33.1"><defs><style>.cls-1{fill:#fff;}.cls-2{fill:none;stroke:#000;stroke-miterlimit:10;stroke-width:1.67px;}.cls-3{fill:#4d4d4d;}</style></defs><title> </title><g id="_Group_" data-name="&lt;Group&gt;"><circle id="_Path_" data-name="&lt;Path&gt;" cx="16.5" cy="16.5" r="16.5"/><circle id="_Path_2" data-name="&lt;Path&gt;" class="cls-1" cx="12.9" cy="12.6" r="10.7"/><circle id="_Path_3" data-name="&lt;Path&gt;" class="cls-2" cx="12" cy="8.8" r="3.1"/><circle id="_Path_4" data-name="&lt;Path&gt;" class="cls-2" cx="10.3" cy="15.9" r="4"/><g id="_Group_2" data-name="&lt;Group&gt;"><path class="cls-3" d="M27.9,6.4a17.1,17.1,0,0,1,3.9,7.4,11.8,11.8,0,0,1,.4,4.2,12.3,12.3,0,0,1-1,4.2,16,16,0,0,1-5.1,6.7,13.7,13.7,0,0,1-7.7,2.8,17.1,17.1,0,0,0,7.1-3.6,15.5,15.5,0,0,0,4.6-6.4,14.4,14.4,0,0,0,.8-7.7A21.6,21.6,0,0,0,27.9,6.4Z"/></g></g></svg>