<svg id="Layer_1" data-name="Layer 1" xmlns="http://www.w3.org/2000/svg" viewBox="0 0 276.3 146.8"><defs><style>.cls-1{fill:#cfc1ab;}.cls-2,.cls-5{fill:none;stroke-miterlimit:10;}.cls-2{stroke:#ccc;stroke-width:0.55px;}.cls-3{fill:#736962;}.cls-4{fill:#fff;}.cls-5{stroke:#3d3430;stroke-width:1.18px;}.cls-6{fill:#3d3430;}.cls-7{fill:#333;}.cls-8{fill:#4d4d4d;}.cls-9{fill:#ff1d25;}.cls-10{fill:#fbb03b;}.cls-11{fill:#ff7bac;}.cls-12{fill:red;}</style></defs><title> </title><path id="_Path_" data-name="&lt;Path&gt;" class="cls-1" d="M72.9,66.5c22.1,2.8,60.2-8.2,59.6-16.2-.3-3.6-2.4-5.1-4.7-5.6a9.1,9.1,0,0,0-7.8,1.6C105.4,56.9,69.2,54,69.2,54Z"/><g id="_Group_" data-name="&lt;Group&gt;"><path id="_Path_2" data-name="&lt;Path&gt;" class="cls-2" d="M133.4,57.8s-12.2-1.7-28.1,8.8"/><path id="_Path_3" data-name="&lt;Path&gt;" class="cls-2" d="M133.4,57.9s-12.2.4-26.1,13.5"/><path id="_Path_4" data-name="&lt;Path&gt;" class="cls-2" d="M132.6,58s-11.9,2.6-23.1,18.2"/><path id="_Path_5" data-name="&lt;Path&gt;" class="cls-3" d="M134.5,39.8s15.7-9.7,28.8-2.6,29.9,44.5,45.6,48.6,46.8-6.7,48.7-19.4c0,0-3-16.5-2.6-18.7s21.3,12.7,21.3,20.9,3.4,51.3-38.2,59.5c-19.2,3.8-39.1,4.4-55.1,3.8a43.7,43.7,0,0,1-39.7-29C139.6,92.5,134.8,81,129.2,72c-17.9.7-15.7-13.8-19.8-15Z"/><path id="_Path_6" data-name="&lt;Path&gt;" class="cls-3" d="M182.7,104.5c-7.8,23,13.3,39.2,17.1,41.9a1.7,1.7,0,0,0,1.2.4l33.1-3.9a1.8,1.8,0,0,0,.7-3.3c-13.6-7.8-29.1-32.5-32.4-37.8a1.6,1.6,0,0,0-1.7-.8l-16.5,2.3A1.8,1.8,0,0,0,182.7,104.5Z"/><path id="_Path_7" data-name="&lt;Path&gt;" class="cls-3" d="M174.9,97c-2.9,23.5-23.5,32.9-27.1,34.4a1.2,1.2,0,0,1-1,0l-21.6-12.6c-1.1-.6-.6-2.9.7-3.3,12.3-3.5,32.1-22.3,36.3-26.4a1.2,1.2,0,0,1,1.5-.3l10.6,6.7A1.4,1.4,0,0,1,174.9,97Z"/><circle id="_Path_8" data-name="&lt;Path&gt;" cx="142.5" cy="48.5" r="3.9"/><circle id="_Path_9" data-name="&lt;Path&gt;" class="cls-4" cx="144.1" cy="47.4" r="1.3"/><path id="_Path_10" data-name="&lt;Path&gt;" class="cls-5" d="M129.2,72s11-.1,13.4-9.9"/><circle id="_Path_11" data-name="&lt;Path&gt;" class="cls-6" cx="112.1" cy="56.9" r="2.3"/><path id="_Path_12" data-name="&lt;Path&gt;" class="cls-2" d="M123.4,57.8s12.2-1.7,28.1,8.8"/><path id="_Path_13" data-name="&lt;Path&gt;" class="cls-2" d="M123.4,57.9s12.2.4,26.1,13.5"/><path id="_Path_14" data-name="&lt;Path&gt;" class="cls-2" d="M124.2,58s11.9,2.6,23.1,18.2"/></g><g id="_Group_2" data-name="&lt;Group&gt;"><path id="_Path_15" data-name="&lt;Path&gt;" class="cls-7" d="M91.7,138.8H73.8a2.8,2.8,0,0,1-2.7-2.8v-9.3H83.6a9.8,9.8,0,0,1,9.8,9.8v.5A1.7,1.7,0,0,1,91.7,138.8Z"/><path id="_Path_16" data-name="&lt;Path&gt;" class="cls-7" d="M.1,126.4l5.6-17a2.8,2.8,0,0,1,3.5-1.8l8.8,3-3.9,11.9a9.9,9.9,0,0,1-12.4,6.2H1.2A1.8,1.8,0,0,1,.1,126.4Z"/><path id="_Path_17" data-name="&lt;Path&gt;" class="cls-8" d="M46.6,126.5l-36,.3,3.2-17.7H26.9A12.1,12.1,0,0,0,38.8,98.6l.5-4.2H63.7v15A17.1,17.1,0,0,1,46.6,126.5Z"/><path id="_Path_18" data-name="&lt;Path&gt;" class="cls-8" d="M88.2,100.5l.2,27.5-17.6-.3V117.5c0-3.8-4.5-7.1-10.5-7.6l-4.2-.3v-20h15C80.6,89.6,88.2,94.5,88.2,100.5Z"/><path id="_Rectangle_" data-name="&lt;Rectangle&gt;" class="cls-9" d="M60.1,46.1h0A20.9,20.9,0,0,1,81,67V85.9A13.5,13.5,0,0,1,67.5,99.4H52.7A13.5,13.5,0,0,1,39.2,85.9V67A20.9,20.9,0,0,1,60.1,46.1Z" transform="translate(14.7 -9.9) rotate(10.8)"/><ellipse id="_Path_19" data-name="&lt;Path&gt;" class="cls-1" cx="67.1" cy="29.4" rx="16.4" ry="19.7"/><ellipse id="_Path_20" data-name="&lt;Path&gt;" class="cls-6" cx="63.1" cy="28.3" rx="2.3" ry="4.2"/><ellipse id="_Path_21" data-name="&lt;Path&gt;" class="cls-6" cx="74.4" cy="25.9" rx="2.3" ry="4.2"/><path id="_Path_22" data-name="&lt;Path&gt;" class="cls-10" d="M74,13.5S63.4,29.3,53.8,30.7c0,0-1.4,20.6,10.5,23.2,0,0-18.1-.5-23.8-7.2S37.9,2.7,61.6.1,92.4,30,90.1,46.5L80.4,41S83.2,16,74,13.5Z"/><path id="_Path_23" data-name="&lt;Path&gt;" class="cls-11" d="M65,37.6l9.9-3.5s-.2,8.1-4.6,8.5S65,37.6,65,37.6Z"/><path id="_Path_24" data-name="&lt;Path&gt;" class="cls-1" d="M46.1,60.9C54,77.1,78.4,98,83.5,94.1a4.6,4.6,0,0,0,1.7-5.7,7.6,7.6,0,0,0-4.5-4.6C67.1,78.6,52.9,52.9,52.9,52.9Z"/><path id="_Rectangle_2" data-name="&lt;Rectangle&gt;" class="cls-12" d="M51.6,52.7h0a7.5,7.5,0,0,1,7.5,7.5v9.4a0,0,0,0,1,0,0H44a0,0,0,0,1,0,0V60.2A7.5,7.5,0,0,1,51.6,52.7Z" transform="translate(-23 32.2) rotate(-28.6)"/></g></svg>