<svg id="Layer_1" data-name="Layer 1" xmlns="http://www.w3.org/2000/svg" viewBox="0 0 308.7 119.3"><defs><style>.cls-1,.cls-7{fill:#b3e6e6;}.cls-1{opacity:0.61;}.cls-2,.cls-3,.cls-4{fill:none;stroke:#29abe2;stroke-miterlimit:10;}.cls-2{stroke-width:0.75px;}.cls-3{stroke-width:0.85px;}.cls-4{stroke-width:0.61px;}.cls-5{fill:#fff;opacity:0.14;}.cls-6{fill:#0071bc;}.cls-7{opacity:0.6;}.cls-8{fill:#00af64;}.cls-9{fill:#007042;}.cls-10{fill:#8dc63f;}.cls-11{fill:#39b54a;}.cls-12{fill:#006837;}.cls-13{fill:#009245;}.cls-14{fill:#8cc63f;}.cls-15{fill:#39eb8e;}.cls-16{fill:#22b573;}.cls-17{fill:#ff7bac;}.cls-18{fill:#93278f;}.cls-19{fill:#999;}.cls-20{fill:gray;}.cls-21{fill:#ccc;}</style></defs><title> </title><path id="_Path_" data-name="&lt;Path&gt;" class="cls-1" d="M160.5,82.3H.5V23.6h0a299.6,299.6,0,0,0,159.7.1h.3Z"/><path id="_Path_2" data-name="&lt;Path&gt;" class="cls-2" d="M160.5,9.6V72.9C93.9,93.1.5,73.6.5,73.6V8.9"/><ellipse id="_Path_3" data-name="&lt;Path&gt;" class="cls-3" cx="80.5" cy="8.9" rx="80.1" ry="8.5"/><ellipse id="_Path_4" data-name="&lt;Path&gt;" class="cls-4" cx="250.2" cy="17.5" rx="58" ry="6.1"/><path id="_Path_5" data-name="&lt;Path&gt;" class="cls-2" d="M192.3,17.6V64.4s67.8,14.1,116-.5v-46"/><path id="_Path_6" data-name="&lt;Path&gt;" class="cls-5" d="M159.7,9.4a1,1,0,0,0,.2-.7C159.9,4,124.1.2,80,.2S.1,4,.1,8.7V73.3s93.4,19.4,160.1-.8V9.4Z"/><path id="_Path_7" data-name="&lt;Path&gt;" class="cls-6" d="M.1,72.5v34.8s86.6,27.3,160.8-.4v-34S88.2,93.6.1,72.5Z"/><path id="_Path_8" data-name="&lt;Path&gt;" class="cls-7" d="M308.2,72.2h-116V29.6h0a215.4,215.4,0,0,0,115.7.1h.3Z"/><path id="_Path_9" data-name="&lt;Path&gt;" class="cls-5" d="M308,17.8a.9.9,0,0,0,.1-.5c0-3.4-25.8-6.1-57.7-6.1s-57.8,2.7-57.8,6.1c0,.1.1.2.1.3V64s67.4,14,115.6-.6V17.8Z"/><g id="_Group_" data-name="&lt;Group&gt;"><g id="_Group_2" data-name="&lt;Group&gt;"><path id="_Path_10" data-name="&lt;Path&gt;" class="cls-8" d="M13.1,75.6a6.4,6.4,0,0,1-2.5-3.1,7.3,7.3,0,0,1-.5-4.4,12,12,0,0,1,1.8-4l.7-.8a2.7,2.7,0,0,1,.7-.8l1.5-1.4A18,18,0,0,1,18.3,59a30.6,30.6,0,0,0,3.1-1.5,1.6,1.6,0,0,0,.8-.8,3,3,0,0,0,.4-1.5c.2-1.1.2-2.4.3-3.7a5.6,5.6,0,0,0,.5.8l.4.9a11.8,11.8,0,0,1,.7,2,7.7,7.7,0,0,1,.1,2.2,5.1,5.1,0,0,1-1.2,2.3,9.8,9.8,0,0,1-1.8,1.4l-1.6,1-1.5.9-1.4,1-1.3,1.1-1.1,1.2a15.1,15.1,0,0,0-1.8,2.6A9.2,9.2,0,0,0,13.1,75.6Z"/><path id="_Path_11" data-name="&lt;Path&gt;" class="cls-9" d="M14.3,75.7a6,6,0,0,1-2.3-.2,8.1,8.1,0,0,1-2.1-1,8.6,8.6,0,0,1-3.2-3.6l-.3-.6-.2-.6c-.1-.4-.3-.7-.4-1.2a5.1,5.1,0,0,1-.2-1.3V65.9a2,2,0,0,0,.1-.7l.2-.7c.1-.5.3-.9.4-1.3a19.6,19.6,0,0,1,1.2-2.1,9.3,9.3,0,0,0,1.1-1.6l.2-.3.2-.3v-.3c.1-.1.1-.1.1-.2s.1-.2,0-.2v-.3c.1-.1,0-.2,0-.3s0-.2-.1-.3-.1-.2-.1-.3v-.2H8.7c0-.1-.1-.2-.1-.3s-.2-.2-.2-.3a.1.1,0,0,1-.1-.1H8.2l-.3-.3-.3-.2H7.3a4.7,4.7,0,0,0-1.7-.4,5.5,5.5,0,0,0-1.8.1,3.8,3.8,0,0,0-1.8.9A3.3,3.3,0,0,1,3.2,54a5.5,5.5,0,0,1,2.1-1.2,5.7,5.7,0,0,1,2.6-.3,6.4,6.4,0,0,1,2.6,1l.6.5.5.5.3.3v.3l.4.6.3.7.3.7c0,.2.1.5.1.8s0,.5,0,.8v.4a.6.6,0,0,1-.1.4c0,.3-.1.5-.1.8l-.3.7-.3.6c-.4.7-.9,1.3-1.2,1.9a7.3,7.3,0,0,0-1.5,2.9c0,.2-.1.5-.1.7v.8c0,.3.1.6.1.9a.6.6,0,0,1,.1.4v.5A9.7,9.7,0,0,0,11.3,73,9.9,9.9,0,0,0,14.3,75.7Z"/><path id="_Path_12" data-name="&lt;Path&gt;" class="cls-8" d="M13.2,75.5a3.7,3.7,0,0,0,1.6-1,6.7,6.7,0,0,0,.9-1.4c.2-.4.4-1,.7-1.5v-.8a6.7,6.7,0,0,1,.6-1.2,5.2,5.2,0,0,1,1.9-1.7,3.9,3.9,0,0,1,2.5-.6,5.7,5.7,0,0,1,4,1.9,12.4,12.4,0,0,0-3.7.6,4.2,4.2,0,0,0-2.1,1.6l-.3.6a.3.3,0,0,0-.1.2l-.2.3c-.1.1-.1.3-.2.5a8,8,0,0,1-1.5,1.7,4.5,4.5,0,0,1-2.1,1.2A2.6,2.6,0,0,1,13.2,75.5Z"/><path id="_Path_13" data-name="&lt;Path&gt;" class="cls-10" d="M28.6,62.1,25,61.8a7,7,0,0,0-3,.2l-.4.3c-.1,0-.1,0-.1.1l-.2.2-1,1.2-.3.5a2,2,0,0,0-.1.5,12.2,12.2,0,0,0-.5,1.7v-.4l-.3,1.6-.5,1.5a11.1,11.1,0,0,1-1.4,2.9,8.4,8.4,0,0,1-2.2,2.4,5.3,5.3,0,0,1-2.9,1.2,11.3,11.3,0,0,0,1.7-2.3,18.4,18.4,0,0,0,.9-2.5l.6-2.5a6.8,6.8,0,0,1,.2-1.4c0-.4.1-.9.1-1.2v-.4l.4-1.8.5-1.1a4.3,4.3,0,0,1,.7-1,9.6,9.6,0,0,1,1.5-1.4l.5-.5.7-.3,1.3-.4a5.3,5.3,0,0,1,2.2.2l1.9.7A10,10,0,0,1,28.6,62.1Z"/></g><g id="_Group_3" data-name="&lt;Group&gt;"><path id="_Path_14" data-name="&lt;Path&gt;" class="cls-11" d="M66.1,81.6a3.3,3.3,0,0,0,1.4,0,3.4,3.4,0,0,0,1.5-.7,8.3,8.3,0,0,0,2.5-3.2l.2-.5a1.4,1.4,0,0,0,.2-.6,3.6,3.6,0,0,0,.4-1.1l.3-1.3a5.7,5.7,0,0,0,.1-1.3,2,2,0,0,0,.1-.7v-.7a5.3,5.3,0,0,0-.1-1.3,13.2,13.2,0,0,0-.5-2.3c-.2-.7-.4-1.2-.5-1.7s-.1-.3-.1-.4v-.3c-.1-.1-.1-.1-.1-.2v-1a.6.6,0,0,0,.1-.4c.1,0,.1-.2.1-.3h.1c0-.1,0-.1.1-.1s.1-.2.1-.3a.2.2,0,0,1,.2-.2v-.2h.1l.2-.2.2-.2H73a1.2,1.2,0,0,1,1-.2,2.7,2.7,0,0,1,1.2.3,2,2,0,0,1,1,1.2,3.5,3.5,0,0,0-.5-2.1A3.3,3.3,0,0,0,74.5,60a2.5,2.5,0,0,0-1.6-.6,2.3,2.3,0,0,0-1.8.7l-.4.3-.4.5-.2.3-.2.2-.3.6c-.1.2-.1.4-.2.6l-.3.7a1.9,1.9,0,0,1-.2.7,2.8,2.8,0,0,1-.1.9v2.3c0,.2.1.4.1.6l.6,2.1a11.1,11.1,0,0,1,.5,3c.1.2,0,.5,0,.7a1.9,1.9,0,0,1-.1.8c0,.3-.1.6-.1.9a.6.6,0,0,0-.1.4l-.2.4a10.7,10.7,0,0,1-1.3,3.1A7.3,7.3,0,0,1,66.1,81.6Z"/><path id="_Path_15" data-name="&lt;Path&gt;" class="cls-8" d="M66.8,81.5a2.2,2.2,0,0,1-.9-1.2,5.7,5.7,0,0,1-.4-1.4l-.3-1.6v-.9a5,5,0,0,0-.2-1.2,4.7,4.7,0,0,0-1-2,2.2,2.2,0,0,0-1.5-.8,2.8,2.8,0,0,0-2.8,1.4,7,7,0,0,1,2.3,1A3.1,3.1,0,0,1,63,76.6a1.7,1.7,0,0,1,.1.7c.1,0,.1.1.1.2v.3a.9.9,0,0,0,.1.5,6.2,6.2,0,0,0,.7,1.9,3.3,3.3,0,0,0,1.2,1.4A1.2,1.2,0,0,0,66.8,81.5Z"/><path id="_Path_16" data-name="&lt;Path&gt;" class="cls-10" d="M58.6,66.4h2.3a3.3,3.3,0,0,1,1.9.6c.1.1.2.2.2.3h.1v.2c.1.5.3,1,.4,1.4l.2.5v.5a8.6,8.6,0,0,1,.1,1.7v1.3c0,.5.1,1,.1,1.5a15.5,15.5,0,0,0,.6,3.1,7.6,7.6,0,0,0,1.1,2.6,3,3,0,0,0,1.7,1.5,11.3,11.3,0,0,1-.8-2.4,23,23,0,0,1-.3-2.6v-4a4.5,4.5,0,0,1,.1-1.2v-.4a9.7,9.7,0,0,1-.1-1.8,5,5,0,0,0-.2-1.2l-.3-1.1L65,65.5l-.3-.4-.3-.5-.8-.5a2.6,2.6,0,0,0-1.5-.1l-1.3.5A6.4,6.4,0,0,0,58.6,66.4Z"/><path id="_Path_17" data-name="&lt;Path&gt;" class="cls-8" d="M66.8,81.6a6.7,6.7,0,0,0,2-2.8,11.2,11.2,0,0,0,.8-4.2,14.2,14.2,0,0,0-.6-4.2l-.4-.9-.3-.9-.8-1.5a13.7,13.7,0,0,0-2-2.6,15.2,15.2,0,0,1-1.8-1.8,1.9,1.9,0,0,1-.4-.9,6.6,6.6,0,0,1-.1-1.5c0-1.2.2-2.4.3-3.7a2.5,2.5,0,0,0-.4.7,3.6,3.6,0,0,0-.4.9,4.8,4.8,0,0,0-.6,1.8,7.8,7.8,0,0,0-.4,2.2,6.6,6.6,0,0,0,.5,2.5c.3.6.7,1.1,1,1.6l.9,1.1.8,1.1.8,1.2.6,1.2a4.9,4.9,0,0,1,.6,1.3,9,9,0,0,1,.8,2.8A13.1,13.1,0,0,1,66.8,81.6Z"/></g><g id="_Group_4" data-name="&lt;Group&gt;"><path id="_Path_18" data-name="&lt;Path&gt;" class="cls-8" d="M148.3,76.4a7.2,7.2,0,0,0,2.5-3.2,7,7,0,0,0,.5-4.3,9.7,9.7,0,0,0-1.8-4l-.6-.9a4.6,4.6,0,0,1-.7-.7,10.7,10.7,0,0,0-1.6-1.4,18.6,18.6,0,0,0-3.5-2.2L140,58.3a2,2,0,0,1-.8-.8,5.4,5.4,0,0,1-.4-1.5c-.2-1.2-.2-2.4-.3-3.8a4.1,4.1,0,0,1-.5.9,3.6,3.6,0,0,1-.4.9,6,6,0,0,0-.6,1.9,4.4,4.4,0,0,0-.1,2.3,4.3,4.3,0,0,0,1.2,2.3,17.7,17.7,0,0,0,1.7,1.4l1.7.9,1.4,1a7.1,7.1,0,0,1,1.4,1,6.9,6.9,0,0,1,1.3,1.1l1.2,1.2a9,9,0,0,1,1.7,2.6A8.7,8.7,0,0,1,148.3,76.4Z"/><path id="_Path_19" data-name="&lt;Path&gt;" class="cls-11" d="M147.2,76.5a8.3,8.3,0,0,0,2.2-.3,8.5,8.5,0,0,0,2.2-.9,9.3,9.3,0,0,0,3.1-3.7l.3-.5a1.4,1.4,0,0,0,.2-.6,5.6,5.6,0,0,0,.4-1.2,5.9,5.9,0,0,0,.2-1.3,6.6,6.6,0,0,0,0-1.4,2,2,0,0,0-.1-.7v-.6a5,5,0,0,0-.5-1.3l-1.2-2.2-1.1-1.6-.2-.3c0-.1-.1-.2-.1-.3s-.1-.1-.1-.2a.4.4,0,0,1-.1-.3v-.7a.6.6,0,0,0,.1-.4.4.4,0,0,0,.1-.3v-.2a.1.1,0,0,0,.1-.1c0-.1.1-.2.1-.3s.2-.1.2-.2v-.2h.2c.1,0,.1-.1.2-.2l.3-.2.4-.2a6.2,6.2,0,0,1,1.6-.4,6.5,6.5,0,0,1,1.9.2,2.6,2.6,0,0,1,1.7.9,2.8,2.8,0,0,0-1.2-2,5.3,5.3,0,0,0-2.1-1.1,5.7,5.7,0,0,0-2.6-.3,5.2,5.2,0,0,0-2.6,1l-.6.4-.5.6-.2.3-.2.3-.4.6-.3.6a2.5,2.5,0,0,0-.2.7c-.1.3-.1.6-.2.8v1.3c0,.1.1.2.1.4a1.9,1.9,0,0,0,.2.7l.2.7.3.6,1.3,1.9a9.5,9.5,0,0,1,1.4,2.9,2.2,2.2,0,0,1,.1.8v.8c0,.2-.1.5-.1.8a.9.9,0,0,1-.1.5v.4a8.1,8.1,0,0,1-1.4,3.3A13.5,13.5,0,0,1,147.2,76.5Z"/><path id="_Path_20" data-name="&lt;Path&gt;" class="cls-12" d="M148.2,76.2a3.7,3.7,0,0,1-1.6-1l-.9-1.3-.6-1.6c-.1-.1-.1-.2-.2-.4v-.2a.3.3,0,0,0-.1-.2,5.4,5.4,0,0,0-.5-1.1,5.3,5.3,0,0,0-4.5-2.4,5.6,5.6,0,0,0-4,2,16.5,16.5,0,0,1,3.7.5,4.4,4.4,0,0,1,2.1,1.6,2.5,2.5,0,0,0,.4.7.3.3,0,0,0,.1.2v.2l.3.5a7.9,7.9,0,0,0,1.4,1.8,4.3,4.3,0,0,0,2.1,1.1A2.6,2.6,0,0,0,148.2,76.2Z"/><path id="_Path_21" data-name="&lt;Path&gt;" class="cls-13" d="M132.8,62.8l3.7-.3a8.3,8.3,0,0,1,2.9.3l.4.2a.1.1,0,0,1,.1.1l.2.2,1,1.2.3.5.2.5c.1.4.3,1.1.4,1.7v-.3a9,9,0,0,0,.3,1.6,8.3,8.3,0,0,0,.4,1.5,15.5,15.5,0,0,0,1.4,2.9,10,10,0,0,0,2.2,2.4,5.5,5.5,0,0,0,3,1.1,8.2,8.2,0,0,1-1.7-2.2,13,13,0,0,1-1-2.5,20,20,0,0,1-.5-2.6,5.9,5.9,0,0,1-.2-1.3c-.1-.4-.1-.9-.2-1.3h0v-.2c-.2-.6-.3-1.1-.5-1.8a6.1,6.1,0,0,0-.5-1.2,8.6,8.6,0,0,0-.7-1,9.6,9.6,0,0,0-1.5-1.4l-.5-.4-.6-.4-1.3-.3a5.7,5.7,0,0,0-2.3.2,6.2,6.2,0,0,0-1.9.7A13.4,13.4,0,0,0,132.8,62.8Z"/></g><g id="_Group_5" data-name="&lt;Group&gt;"><path id="_Path_22" data-name="&lt;Path&gt;" class="cls-8" d="M120.9,79.7a10.7,10.7,0,0,0,2.4-4.9,20.3,20.3,0,0,0,.3-7,22.2,22.2,0,0,0-2-6.6,9.1,9.1,0,0,0-.7-1.4l-.7-1.3-1.6-2.3a24.5,24.5,0,0,0-3.6-3.6,36.3,36.3,0,0,1-3.2-2.5,2.4,2.4,0,0,1-.8-1.3,7.8,7.8,0,0,1-.5-2.4c-.2-1.9-.3-4-.4-6.1a6.9,6.9,0,0,0-.5,1.3c-.1.5-.3,1-.4,1.5s-.4,1.9-.6,3a22.8,22.8,0,0,0,0,3.7,9.6,9.6,0,0,0,1.4,3.8,11.5,11.5,0,0,0,1.8,2.3l1.7,1.7,1.5,1.6,1.4,1.6a12.7,12.7,0,0,1,1.3,1.9,21.4,21.4,0,0,1,1.3,1.9,32.5,32.5,0,0,1,1.8,4.3A21.8,21.8,0,0,1,120.9,79.7Z"/><path id="_Path_23" data-name="&lt;Path&gt;" class="cls-11" d="M119.8,79.8a3.4,3.4,0,0,0,2.2-.2,6.2,6.2,0,0,0,2.1-1.5,12.8,12.8,0,0,0,3.1-5.8l.2-.9a2.9,2.9,0,0,0,.2-.9,10.8,10.8,0,0,0,.3-1.9,13.6,13.6,0,0,0,.2-2.1,17,17,0,0,0-.1-2.2,4.1,4.1,0,0,0-.1-1.1l-.2-1.1a12.9,12.9,0,0,0-.5-2.1c-.4-1.3-.9-2.5-1.3-3.5l-1.2-2.6a1.4,1.4,0,0,0-.2-.6c0-.1-.1-.3-.1-.4a.9.9,0,0,1-.1-.5.4.4,0,0,1-.1-.3c0-.2-.1-.3-.1-.4v-.4c0-.2.1-.3.1-.5v-.5a1.1,1.1,0,0,0,.1-.5v-.3c0-.1.1-.1.1-.2s.1-.3.1-.5.1-.3.2-.4.1-.1.1-.2.1-.1.1-.2l.3-.3.3-.3.3-.3a4.4,4.4,0,0,1,1.6-.6,6.3,6.3,0,0,1,1.9.3,3.8,3.8,0,0,1,1.8,1.6,6.6,6.6,0,0,0-1.3-3.2,6.9,6.9,0,0,0-2.2-2,4.2,4.2,0,0,0-5.2.9,3.5,3.5,0,0,1-.5.8l-.5.8-.2.4-.2.5-.4,1c-.1.3-.1.7-.2,1a5,5,0,0,0-.2,1.2c-.1.4-.1.8-.2,1.2a6.6,6.6,0,0,0,.1,1.4V53c0,.3.1.5.1.7s.1.9.2,1.2l.3,1.2.3,1,1.4,3.1A16.5,16.5,0,0,1,124,65c.1.4.1.8.2,1.2v1.3a5.7,5.7,0,0,1-.1,1.3v1.5a18,18,0,0,1-1.3,5.2A13,13,0,0,1,119.8,79.8Z"/><path id="_Path_24" data-name="&lt;Path&gt;" class="cls-12" d="M120.8,79.5a4.4,4.4,0,0,1-1.6-1.7,7.3,7.3,0,0,1-.9-2.2,24.1,24.1,0,0,1-.8-2.5c-.1-.2-.1-.5-.2-.7v-.3a.8.8,0,0,0-.1-.4,12.7,12.7,0,0,0-.6-1.8,8.3,8.3,0,0,0-2-3,3.4,3.4,0,0,0-2.6-1,4.7,4.7,0,0,0-3.9,2.9,10,10,0,0,1,3.8,1.1,5.2,5.2,0,0,1,2.1,2.7,4.2,4.2,0,0,1,.4,1c0,.1.1.3.1.4l.2.4.3.8a15.9,15.9,0,0,0,1.5,2.9,5.9,5.9,0,0,0,2.2,2A1.7,1.7,0,0,0,120.8,79.5Z"/><path id="_Path_25" data-name="&lt;Path&gt;" class="cls-10" d="M104.8,57.1l3.6-.3a5.4,5.4,0,0,1,3,.6.8.8,0,0,1,.4.4c.1,0,.1.1.1.2s.1,0,.2.3l1.1,2,.3.8a4.5,4.5,0,0,1,.2.8c.1.7.3,1.8.5,2.7v-.5c.1,1,.2,1.7.3,2.6s.3,1.7.5,2.5a26,26,0,0,0,1.6,4.7,13.1,13.1,0,0,0,2.3,4,4.7,4.7,0,0,0,3,2,14.6,14.6,0,0,1-1.8-3.8,26.2,26.2,0,0,1-1.1-4c-.2-1.4-.5-2.8-.6-4.2l-.3-2.1c-.1-.7-.1-1.5-.2-2.1v-.5c-.1-.9-.3-1.8-.5-3a10.1,10.1,0,0,0-.6-1.9,12.6,12.6,0,0,0-.7-1.6,16.7,16.7,0,0,0-1.5-2.4l-.6-.7-.7-.6a3.8,3.8,0,0,0-1.3-.6,3.2,3.2,0,0,0-2.2.2,6.9,6.9,0,0,0-1.9,1A12.9,12.9,0,0,0,104.8,57.1Z"/></g><g id="_Group_6" data-name="&lt;Group&gt;"><path id="_Path_26" data-name="&lt;Path&gt;" class="cls-13" d="M34.9,79.3a10.6,10.6,0,0,0,2.4-5,16.3,16.3,0,0,0,.3-7,23.1,23.1,0,0,0-2-6.6,5.4,5.4,0,0,0-.7-1.3c-.2-.5-.5-.9-.7-1.3a22.9,22.9,0,0,0-1.6-2.3A21.2,21.2,0,0,0,29,52.1a37.8,37.8,0,0,1-3.2-2.4,3.2,3.2,0,0,1-.8-1.4,12.5,12.5,0,0,1-.5-2.4c-.2-1.9-.3-3.9-.4-6.1l-.5,1.4c-.1.5-.3.9-.4,1.4l-.6,3.1a21.6,21.6,0,0,0,0,3.6A9.1,9.1,0,0,0,24,53.1a11.5,11.5,0,0,0,1.8,2.3,13.6,13.6,0,0,0,1.7,1.7L29,58.7c.5.5.9,1.1,1.4,1.7l1.4,1.8,1.2,2a24.1,24.1,0,0,1,1.8,4.3A21.8,21.8,0,0,1,34.9,79.3Z"/><path id="_Path_27" data-name="&lt;Path&gt;" class="cls-14" d="M33.8,79.4a4.2,4.2,0,0,0,2.2-.3,5.1,5.1,0,0,0,2.1-1.5,13,13,0,0,0,3.1-5.7l.2-.9a2.9,2.9,0,0,0,.2-.9,12,12,0,0,0,.3-2,12.3,12.3,0,0,0,.2-2,17.7,17.7,0,0,0-.1-2.3,4.5,4.5,0,0,0-.1-1.1l-.2-1.1a16,16,0,0,0-.5-2.1c-.4-1.3-.9-2.5-1.3-3.5l-1.2-2.6a.8.8,0,0,0-.2-.5,4.3,4.3,0,0,0-.1-.5,20551425019876.2,20551425019876.2,0,0,1-.2-.8c0-.1-.1-.2-.1-.4v-.4a4.3,4.3,0,0,0,.1-.5v-.5l.2-.5V49a.3.3,0,0,0,.1-.2,4.3,4.3,0,0,0,.1-.5.5.5,0,0,0,.2-.4v-.2a.1.1,0,0,0,.1-.1l.3-.4.3-.3.3-.3a3,3,0,0,1,1.6-.5,3.2,3.2,0,0,1,1.9.3A3.3,3.3,0,0,1,45.2,48a7.2,7.2,0,0,0-3.5-5.3,4.1,4.1,0,0,0-5.2,1l-.5.7-.5.8-.2.5-.2.4-.4,1c-.1.3-.1.7-.2,1.1a4.3,4.3,0,0,0-.2,1.1,5.7,5.7,0,0,0-.1,1.3,5.7,5.7,0,0,0,0,1.3v.7c0,.2.1.4.1.6s.1.9.2,1.3l.3,1.1.3,1,1.4,3.2A16.9,16.9,0,0,1,38,64.5c.1.4.1.8.2,1.2V67a7.1,7.1,0,0,1-.1,1.4v1.4a18.7,18.7,0,0,1-1.3,5.3A14.2,14.2,0,0,1,33.8,79.4Z"/><path id="_Path_28" data-name="&lt;Path&gt;" class="cls-8" d="M34.8,79a4.1,4.1,0,0,1-1.6-1.6,9.2,9.2,0,0,1-.9-2.3,14.7,14.7,0,0,1-.8-2.5,1.4,1.4,0,0,0-.2-.6v-.4a.8.8,0,0,0-.1-.4,12.7,12.7,0,0,0-.6-1.8,9.3,9.3,0,0,0-2-3,4.4,4.4,0,0,0-2.6-1,4.9,4.9,0,0,0-3.9,3,8.5,8.5,0,0,1,3.8,1.1,5,5,0,0,1,2.1,2.6,3.6,3.6,0,0,1,.4,1.1v.3l.2.4.3.8a11.3,11.3,0,0,0,1.5,2.9,5.2,5.2,0,0,0,2.2,2A1.7,1.7,0,0,0,34.8,79Z"/><path id="_Path_29" data-name="&lt;Path&gt;" class="cls-15" d="M18.8,56.7l3.6-.4a5.4,5.4,0,0,1,3,.6c.2.1.3.3.4.4l.2.2c0,.1,0,.1.1.3l1.1,2,.3.8c.1.2.1.5.2.8s.3,1.8.5,2.8v-.6c.1,1,.2,1.8.3,2.6s.4,1.7.5,2.5a26,26,0,0,0,1.6,4.7,15,15,0,0,0,2.3,4.1,5,5,0,0,0,3,1.9,14.1,14.1,0,0,1-1.8-3.7,18.9,18.9,0,0,1-1-4.1c-.3-1.3-.5-2.7-.7-4.2l-.3-2.1c-.1-.7-.1-1.5-.2-2v-.6a19.6,19.6,0,0,0-.5-2.9,8.9,8.9,0,0,0-.6-2c-.2-.6-.5-1.1-.7-1.6a23,23,0,0,0-1.5-2.3l-.6-.7a1.3,1.3,0,0,0-.7-.6,2.8,2.8,0,0,0-1.3-.7,4,4,0,0,0-2.2.2,7.2,7.2,0,0,0-1.9,1.1A11.6,11.6,0,0,0,18.8,56.7Z"/></g><g id="_Group_7" data-name="&lt;Group&gt;"><path id="_Path_30" data-name="&lt;Path&gt;" class="cls-10" d="M99.3,55.9c-1.2.2-2.4.3-3.5.6A5.7,5.7,0,0,0,93,57.9l-.3.4v.6c-.2.8-.4,1.6-.5,2.2a2.2,2.2,0,0,1-.1.9v.8c.1.7.2,1.8.3,2.8v-.5a23,23,0,0,1,.3,2.6,21.1,21.1,0,0,1,.2,2.5,27.9,27.9,0,0,1-.2,5,15,15,0,0,1-1.1,4.4A5,5,0,0,1,89,82.3a18.7,18.7,0,0,0,.7-4,29.5,29.5,0,0,0-.1-4.2c-.1-1.4-.2-2.8-.4-4.2s-.3-1.5-.4-2.2l-.3-2v-.6c-.1-.9-.2-1.7-.3-2.9a14.1,14.1,0,0,1,.1-2,4.8,4.8,0,0,1,.3-1.8,14.6,14.6,0,0,1,.8-2.7c0-.1.2-.5.3-.8l.5-.7a3.3,3.3,0,0,1,1.1-1,3.6,3.6,0,0,1,2.2-.4,5,5,0,0,1,2.1.5A10.3,10.3,0,0,1,99.3,55.9Z"/><path id="_Path_31" data-name="&lt;Path&gt;" class="cls-8" d="M89.8,82a10.9,10.9,0,0,1-3.6-4.2,19.7,19.7,0,0,1-2.1-6.6,26.3,26.3,0,0,1,.1-6.9c.1-.6.2-1,.3-1.5a8.3,8.3,0,0,1,.4-1.5l.9-2.6a24,24,0,0,1,2.5-4.5A37.8,37.8,0,0,0,90.7,51a3.8,3.8,0,0,0,.5-1.5A25,25,0,0,0,91,47c-.3-1.9-.8-3.9-1.2-6l.8,1.2c.2.4.5.8.7,1.3a18.3,18.3,0,0,1,1.4,2.8,16.1,16.1,0,0,1,1,3.5,8.9,8.9,0,0,1-.3,4,10,10,0,0,1-1.1,2.7c-.4.8-.8,1.4-1.2,2.1l-1,1.9a8.8,8.8,0,0,0-.9,2,14.3,14.3,0,0,0-.8,2.2,14.2,14.2,0,0,0-.7,2.2,17.6,17.6,0,0,0-.6,4.6A22.8,22.8,0,0,0,89.8,82Z"/><path id="_Path_32" data-name="&lt;Path&gt;" class="cls-9" d="M91,81.7a3.7,3.7,0,0,1-2.3.4,6.5,6.5,0,0,1-2.4-.9,12.6,12.6,0,0,1-4.4-4.7l-.5-.8-.5-.8c-.2-.6-.5-1.1-.8-1.8s-.5-1.3-.7-2a16,16,0,0,1-.5-2.1c-.1-.4-.1-.8-.2-1.1V66.8a17,17,0,0,1-.1-2.2c.1-1.3.2-2.6.4-3.7s.3-2.1.4-2.9v-.5a.7.7,0,0,1,.1-.5c0-.2-.1-.3-.1-.5v-.7c-.1-.1-.1-.3-.2-.4s-.1-.3-.1-.5-.1-.3-.2-.4l-.3-.5v-.3h-.1l-.3-.5-.3-.3a.3.3,0,0,1-.1-.2h-.2l-.3-.3-.4-.2-.4-.2a4.7,4.7,0,0,0-1.7-.1,5.3,5.3,0,0,0-1.7.8,3.7,3.7,0,0,0-1.3,2,6.4,6.4,0,0,1,.3-3.4,6.7,6.7,0,0,1,1.6-2.5,3.9,3.9,0,0,1,2.4-1.2,4.1,4.1,0,0,1,2.9.7l.7.5.7.7.3.4.3.4.6.8.6,1a9.3,9.3,0,0,0,.5,1c.1.4.3.8.4,1.2a5,5,0,0,1,.4,1.3V56a2,2,0,0,1,.1.7c0,.4.1.9.1,1.2v2.3c-.1,1.3-.3,2.4-.4,3.4a14.5,14.5,0,0,0-.3,5,5.2,5.2,0,0,0,.2,1.1l.3,1.3a6.9,6.9,0,0,0,.5,1.3,1.9,1.9,0,0,0,.2.7l.3.6a16.1,16.1,0,0,0,2.7,4.8A12.3,12.3,0,0,0,91,81.7Z"/><path id="_Path_33" data-name="&lt;Path&gt;" class="cls-8" d="M89.9,81.7A3.9,3.9,0,0,0,91,79.6a8.8,8.8,0,0,0,.3-2.4,21.7,21.7,0,0,0,.1-2.6V73.2a12.1,12.1,0,0,1,.1-1.9,8.5,8.5,0,0,1,1.1-3.4,3.9,3.9,0,0,1,2.2-1.7c1.6-.4,3.2.3,4.6,1.8A12.2,12.2,0,0,0,96,70a5.8,5.8,0,0,0-1.3,3.2,4.5,4.5,0,0,1-.1,1.1v.8a2.5,2.5,0,0,0-.1.8,11.4,11.4,0,0,1-.7,3.3,5.3,5.3,0,0,1-1.6,2.4A1.7,1.7,0,0,1,89.9,81.7Z"/></g><g id="_Group_8" data-name="&lt;Group&gt;"><path id="_Path_34" data-name="&lt;Path&gt;" class="cls-8" d="M47.3,80.3a7.5,7.5,0,0,1-1.5-3.1,12.3,12.3,0,0,1-.1-4.3,13.1,13.1,0,0,1,1.2-4.1c.1-.3.3-.5.4-.8a5.6,5.6,0,0,1,.5-.8l1-1.5A15.2,15.2,0,0,1,51,63.5,20.7,20.7,0,0,0,53,62a2.2,2.2,0,0,0,.5-.8c.1-.4.2-1,.3-1.5l.3-3.8.3.9a3.1,3.1,0,0,0,.2.8,10.6,10.6,0,0,1,.4,1.9,9.2,9.2,0,0,1-.1,2.3,5.7,5.7,0,0,1-.8,2.3A5.8,5.8,0,0,1,53,65.6l-1,1-1,1-.9,1-.8,1.1-.8,1.2a21.8,21.8,0,0,0-1.1,2.7A13.6,13.6,0,0,0,47.3,80.3Z"/><path id="_Path_35" data-name="&lt;Path&gt;" class="cls-15" d="M48,80.3a2.4,2.4,0,0,1-1.4-.2,2.6,2.6,0,0,1-1.3-.9,8.3,8.3,0,0,1-1.8-3.5l-.2-.6a4.3,4.3,0,0,1-.1-.5,5,5,0,0,1-.2-1.2c0-.4-.1-.8-.1-1.3V70.7A1.5,1.5,0,0,0,43,70v-.6l.3-1.3c.3-.8.6-1.6.9-2.2a12.6,12.6,0,0,1,.7-1.6V64c0-.1.1-.2.1-.3a.4.4,0,0,1,.1-.3v-.7c.1-.1,0-.2,0-.3v-.3c0-.1-.1-.2-.1-.3v-.2a.1.1,0,0,0-.1-.1,24725056409660.8,24725056409660.8,0,0,1-.2-.6h-.1c-.1-.1-.1-.2-.2-.2v-.2l-.3-.2a1.5,1.5,0,0,0-1-.3,1.5,1.5,0,0,0-1.1.2,2.4,2.4,0,0,0-1.2.9,5.2,5.2,0,0,1,.9-2,3.7,3.7,0,0,1,1.3-1.2,2.2,2.2,0,0,1,1.6-.3,2.4,2.4,0,0,1,1.6.9l.4.4.3.5v.6l.2.6a1.4,1.4,0,0,1,.2.7,1.5,1.5,0,0,1,.1.7,1.7,1.7,0,0,1,.1.7v1.3c0,.1-.1.2-.1.4s-.1.5-.1.7l-.2.7-.2.7-.8,1.9a14.3,14.3,0,0,0-1,2.9c0,.3-.1.5-.1.8v1.6a.9.9,0,0,1,.1.5v.4a12.4,12.4,0,0,0,.9,3.3A7.8,7.8,0,0,0,48,80.3Z"/><path id="_Path_36" data-name="&lt;Path&gt;" class="cls-8" d="M47.4,80.1a2.4,2.4,0,0,0,1-1l.6-1.4c.2-.5.3-1,.5-1.5a.9.9,0,0,1,.1-.5v-.2a.3.3,0,0,0,.1-.2,3.6,3.6,0,0,1,.4-1.1,6.2,6.2,0,0,1,1.2-1.9,2.7,2.7,0,0,1,1.6-.6,2.8,2.8,0,0,1,2.4,1.8,6.9,6.9,0,0,0-2.3.7,3.3,3.3,0,0,0-1.3,1.7,3.3,3.3,0,0,0-.3.6V77c-.1.1-.1.3-.2.4a11.4,11.4,0,0,1-1,1.9,3,3,0,0,1-1.3,1.2A1.2,1.2,0,0,1,47.4,80.1Z"/><path id="_Path_37" data-name="&lt;Path&gt;" class="cls-14" d="M57.3,66.3l-2.2-.2a3.8,3.8,0,0,0-1.9.4.2.2,0,0,0-.2.2h-.1c0,.1,0,.1-.1.2l-.7,1.3-.2.4a.9.9,0,0,1-.1.5l-.3,1.7v-.3a7.8,7.8,0,0,1-.2,1.6L51,73.7c-.3,1-.6,2-1,3a7.2,7.2,0,0,1-1.4,2.4,2.5,2.5,0,0,1-1.9,1.2A10.1,10.1,0,0,0,47.9,78l.6-2.5a20.2,20.2,0,0,0,.4-2.6c.1-.4.1-.8.2-1.3s.1-.9.1-1.2V70a16.8,16.8,0,0,1,.3-1.8c.1-.3.2-.8.3-1.2l.5-1a8.5,8.5,0,0,1,.9-1.4l.4-.5.4-.3a2,2,0,0,1,.8-.4,3.2,3.2,0,0,1,1.4.1l1.2.7A6.3,6.3,0,0,1,57.3,66.3Z"/></g><g id="_Group_9" data-name="&lt;Group&gt;"><path id="_Path_38" data-name="&lt;Path&gt;" class="cls-15" d="M102.5,81.3a6.4,6.4,0,0,1-1.5-3.1,12.2,12.2,0,0,1-.2-4.3,16.4,16.4,0,0,1,1.3-4.1,3,3,0,0,1,.4-.8,2.2,2.2,0,0,1,.5-.8l.9-1.5a15.8,15.8,0,0,1,2.3-2.2,18.1,18.1,0,0,0,1.9-1.5,2.4,2.4,0,0,0,.6-.8l.3-1.5c.1-1.2.1-2.5.2-3.8l.3.9.3.8.3,1.9a8.8,8.8,0,0,1,0,2.3,5.7,5.7,0,0,1-.8,2.3,11.8,11.8,0,0,1-1.1,1.5l-1.1,1-.9,1-.9,1a7.6,7.6,0,0,0-.8,1.1l-.8,1.2a21.8,21.8,0,0,0-1.1,2.7A13.7,13.7,0,0,0,102.5,81.3Z"/><path id="_Path_39" data-name="&lt;Path&gt;" class="cls-11" d="M103.2,81.3a2.3,2.3,0,0,1-1.4-.2,2.6,2.6,0,0,1-1.3-.9,8.4,8.4,0,0,1-1.9-3.5v-.6a.7.7,0,0,1-.1-.5,5,5,0,0,1-.2-1.2,5.3,5.3,0,0,1-.1-1.3V71.7a2,2,0,0,1,.1-.7v-.6l.3-1.3c.3-.8.5-1.6.8-2.2a7.1,7.1,0,0,0,.7-1.6l.2-.3a.4.4,0,0,1,.1-.3V63.4a.4.4,0,0,0-.1-.3v-.5h0c0-.1-.1-.2-.1-.3s-.1-.2-.1-.3H100c-.1-.1-.1-.2-.2-.2l-.2-.2-.2-.2a1.7,1.7,0,0,0-1-.3,1.7,1.7,0,0,0-1.2.2,2.2,2.2,0,0,0-1.1.9,5,5,0,0,1,.8-2,5.3,5.3,0,0,1,1.4-1.2,2.2,2.2,0,0,1,1.6-.3,2.6,2.6,0,0,1,1.6.9l.3.4.3.6.2.2v.3l.2.6a6.4,6.4,0,0,1,.2.7c0,.2.1.4.1.7s.1.5.1.8v1.2c-.1.1-.1.2-.1.4s-.1.5-.1.8l-.2.6a2.5,2.5,0,0,0-.2.7,17.2,17.2,0,0,1-.9,1.9,9.5,9.5,0,0,0-.9,2.9,2.2,2.2,0,0,0-.1.8v2.5a11.4,11.4,0,0,0,.8,3.3A8.1,8.1,0,0,0,103.2,81.3Z"/><path id="_Path_40" data-name="&lt;Path&gt;" class="cls-16" d="M102.6,81.1a3.2,3.2,0,0,0,1-1l.6-1.4c.1-.5.3-1,.4-1.5a.9.9,0,0,0,.1-.5v-.4l.3-1.1a9.1,9.1,0,0,1,1.3-1.9,2.7,2.7,0,0,1,1.6-.6,3.1,3.1,0,0,1,2.4,1.8,6.9,6.9,0,0,0-2.3.7,2.8,2.8,0,0,0-1.3,1.7,3.3,3.3,0,0,0-.3.6V78a4.3,4.3,0,0,0-.1.5,16.2,16.2,0,0,1-1,1.8,3.7,3.7,0,0,1-1.3,1.2A1.1,1.1,0,0,1,102.6,81.1Z"/><path id="_Path_41" data-name="&lt;Path&gt;" class="cls-10" d="M112.5,67.3l-2.2-.2a3.6,3.6,0,0,0-1.9.4l-.3.2h0c0,.1,0,.1-.1.2a8.3,8.3,0,0,0-.7,1.3l-.2.5c0,.1-.1.2-.1.4l-.3,1.7v-.3c-.1.6-.1,1.1-.2,1.6l-.3,1.5c-.3,1-.6,2-1,3a8,8,0,0,1-1.4,2.4,2.7,2.7,0,0,1-1.9,1.2A9.7,9.7,0,0,0,103,79a18.2,18.2,0,0,0,.7-2.5c.1-.8.3-1.7.4-2.5a6.6,6.6,0,0,0,.1-1.4c.1-.4.1-.9.2-1.2V71c.1-.5.2-1,.4-1.8a3,3,0,0,1,.3-1.2,3.1,3.1,0,0,1,.5-1,8.5,8.5,0,0,1,.9-1.4l.3-.5.5-.3a1.2,1.2,0,0,1,.8-.4,3.2,3.2,0,0,1,1.4.1,4.1,4.1,0,0,1,1.1.7A6.5,6.5,0,0,1,112.5,67.3Z"/></g></g><g id="_Group_10" data-name="&lt;Group&gt;"><g id="_Group_11" data-name="&lt;Group&gt;"><path id="_Compound_Path_" data-name="&lt;Compound Path&gt;" class="cls-17" d="M281.6,65.9a1.6,1.6,0,0,1-1.6-1.1c0-.1-1.4-5.7-1.3-6.8h0c.1-.4,0-3.7-.1-6.6a1.6,1.6,0,0,1,1.6-1.8,1.7,1.7,0,0,1,1.7,1.6c.2,4,.2,6.4.2,7.1s1,4.8,1.1,5.4a1.6,1.6,0,0,1-1.1,2.1Zm.5-7.6v0Z"/></g><g id="_Group_12" data-name="&lt;Group&gt;"><path id="_Path_42" data-name="&lt;Path&gt;" class="cls-17" d="M283.1,67.3h-.2a1.7,1.7,0,0,1-1.4-1.9l.8-6a57.2,57.2,0,0,1,1.3-7.3c.3-1-.8-4.1-2-6.4a1.6,1.6,0,0,1,.7-2.3,1.6,1.6,0,0,1,2.2.7c.8,1.4,3.1,6.1,2.3,8.9a66.9,66.9,0,0,0-1.2,6.9l-.8,5.9A1.6,1.6,0,0,1,283.1,67.3Z"/></g><g id="_Group_13" data-name="&lt;Group&gt;"><path id="_Path_43" data-name="&lt;Path&gt;" class="cls-17" d="M284.8,67.5a1.2,1.2,0,0,1-.8-.2,1.8,1.8,0,0,1-.7-2.3,51.7,51.7,0,0,0,3.2-6.4,41.4,41.4,0,0,0,1.4-7.2,1.7,1.7,0,0,1,1.8-1.5,1.6,1.6,0,0,1,1.5,1.8,39.4,39.4,0,0,1-1.5,8.1,68.1,68.1,0,0,1-3.4,6.8A1.6,1.6,0,0,1,284.8,67.5Z"/></g></g><g id="_Group_14" data-name="&lt;Group&gt;"><g id="_Group_15" data-name="&lt;Group&gt;"><path id="_Compound_Path_2" data-name="&lt;Compound Path&gt;" class="cls-14" d="M256,65.2a1.7,1.7,0,0,1-1.6-1.2s-1.4-5.7-1.3-6.8h0c.1-.5,0-3.8-.1-6.7a1.5,1.5,0,0,1,1.6-1.7,1.6,1.6,0,0,1,1.7,1.6c.2,3.9.2,6.3.2,7s1,4.9,1.1,5.5a1.6,1.6,0,0,1-1.1,2.1Zm.5-7.6h0Z"/></g><g id="_Group_16" data-name="&lt;Group&gt;"><path id="_Path_44" data-name="&lt;Path&gt;" class="cls-14" d="M257.5,66.5h-.2a1.6,1.6,0,0,1-1.4-1.9l.8-5.9a57.8,57.8,0,0,1,1.3-7.4c.3-1-.8-4.1-2-6.4a1.6,1.6,0,0,1,2.9-1.5c.8,1.3,3.1,6.1,2.3,8.8s-1.2,6.9-1.2,6.9l-.8,6A1.6,1.6,0,0,1,257.5,66.5Z"/></g><g id="_Group_17" data-name="&lt;Group&gt;"><path id="_Path_45" data-name="&lt;Path&gt;" class="cls-14" d="M259.2,66.8l-.8-.2a1.8,1.8,0,0,1-.7-2.3,65.3,65.3,0,0,0,3.2-6.5,39.7,39.7,0,0,0,1.4-7.2,1.7,1.7,0,0,1,1.8-1.5,1.7,1.7,0,0,1,1.5,1.9,40,40,0,0,1-1.5,8,73.5,73.5,0,0,1-3.4,6.9A1.9,1.9,0,0,1,259.2,66.8Z"/></g></g><g id="_Group_18" data-name="&lt;Group&gt;"><g id="_Group_19" data-name="&lt;Group&gt;"><path id="_Compound_Path_3" data-name="&lt;Compound Path&gt;" class="cls-18" d="M219.6,65.5a1.9,1.9,0,0,1-1.1-2.1c.2-.6,1.1-4.7,1.2-5.5s0-3.1.1-7a1.7,1.7,0,0,1,3.4.1c-.1,2.9-.2,6.2-.2,6.7h0c.2,1.1-1.2,6.7-1.2,6.8a1.7,1.7,0,0,1-1.6,1.1Zm.1-7.4h0Z"/></g><g id="_Group_20" data-name="&lt;Group&gt;"><path id="_Path_46" data-name="&lt;Path&gt;" class="cls-18" d="M218.6,66.9h.3a1.7,1.7,0,0,0,1.4-1.9l-.8-5.9c0-.2-.7-5-1.3-7.4s.8-4.1,2-6.4a1.7,1.7,0,0,0-3-1.6c-.7,1.4-3,6.1-2.3,8.9s1.3,6.9,1.3,6.9l.8,5.9A1.6,1.6,0,0,0,218.6,66.9Z"/></g><g id="_Group_21" data-name="&lt;Group&gt;"><path id="_Path_47" data-name="&lt;Path&gt;" class="cls-18" d="M217,67.1a1.3,1.3,0,0,0,.8-.2,1.5,1.5,0,0,0,.6-2.2c0-.1-2.3-4.4-3.2-6.5a40.7,40.7,0,0,1-1.3-7.2,1.7,1.7,0,0,0-3.4.4,52.1,52.1,0,0,0,1.6,8c.9,2.3,3.3,6.7,3.4,6.9A1.8,1.8,0,0,0,217,67.1Z"/></g></g><g id="_Group_22" data-name="&lt;Group&gt;"><path id="_Path_48" data-name="&lt;Path&gt;" class="cls-19" d="M214.6,65.8c-.4,3-6.3,2.2-11.8,1.4s-9.6-3.7-9.2-6.7,5.2-4.7,10.7-4S215,62.9,214.6,65.8Z"/><path id="_Path_49" data-name="&lt;Path&gt;" class="cls-20" d="M220.3,68.1c-.2,1.6-3.5,1.2-6.5.8s-5.4-2.1-5.1-3.7,2.8-2.6,5.9-2.2S220.5,66.5,220.3,68.1Z"/><path id="_Path_50" data-name="&lt;Path&gt;" class="cls-19" d="M287.4,66.2c.4,3,6.4,2.2,11.8,1.4s9.7-3.8,9.3-6.7-5.2-4.7-10.7-4S287,63.3,287.4,66.2Z"/><path id="_Path_51" data-name="&lt;Path&gt;" class="cls-19" d="M281.7,68.5c.2,1.6,3.5,1.2,6.6.8s5.3-2.1,5-3.8-2.8-2.6-5.9-2.2S281.5,66.9,281.7,68.5Z"/><path id="_Path_52" data-name="&lt;Path&gt;" class="cls-19" d="M218.3,65c-.2,3,5.8,3.4,11.4,3.8S239.8,67,240,64.1s-4.1-5.7-9.6-6.1S218.5,62,218.3,65Z"/><path id="_Path_53" data-name="&lt;Path&gt;" class="cls-20" d="M226,67.6c-.1,1.7,3.2,1.9,6.3,2.1s5.6-.9,5.7-2.6-2.2-3.1-5.3-3.3S226.2,66,226,67.6Z"/><path id="_Path_54" data-name="&lt;Path&gt;" class="cls-20" d="M221.8,67.8c-.2,1.1,2,1.4,4,1.6s3.7-.3,3.8-1.4-1.3-2.2-3.3-2.4S221.9,66.7,221.8,67.8Z"/><path id="_Path_55" data-name="&lt;Path&gt;" class="cls-21" d="M216.1,67c-.1,1.1,2,1.4,4,1.7s3.8-.4,3.9-1.4-1.3-2.2-3.3-2.5S216.3,66,216.1,67Z"/><path id="_Path_56" data-name="&lt;Path&gt;" class="cls-19" d="M233.8,68.2c-.1,1,2,1.4,4,1.6s3.7-.3,3.9-1.4-1.4-2.2-3.3-2.5S234,67.1,233.8,68.2Z"/><path id="_Path_57" data-name="&lt;Path&gt;" class="cls-20" d="M276.8,67.8c-.2,1.1,2,1.4,3.9,1.6s3.8-.3,3.9-1.4-1.3-2.2-3.3-2.4S276.9,66.7,276.8,67.8Z"/><path id="_Path_58" data-name="&lt;Path&gt;" class="cls-19" d="M246.2,67.3c-.2,3,5.8,3.4,11.3,3.7s10.2-1.7,10.4-4.7-4.1-5.7-9.7-6S246.4,64.3,246.2,67.3Z"/><path id="_Path_59" data-name="&lt;Path&gt;" class="cls-20" d="M240.2,68.3c-.1,1.7,3.2,1.9,6.2,2.1s5.7-.9,5.8-2.6-2.3-3.1-5.4-3.3S240.3,66.7,240.2,68.3Z"/><path id="_Path_60" data-name="&lt;Path&gt;" class="cls-20" d="M263.9,68.3c-.1,1.7,3.2,1.9,6.3,2.1s5.6-.9,5.7-2.6-2.3-3.1-5.4-3.3S264,66.7,263.9,68.3Z"/><path id="_Path_61" data-name="&lt;Path&gt;" class="cls-21" d="M271.9,67.8c-.2,1.1,2,1.4,4,1.6s3.7-.3,3.8-1.4-1.3-2.2-3.3-2.4S272,66.7,271.9,67.8Z"/></g><path id="_Path_62" data-name="&lt;Path&gt;" class="cls-6" d="M192,63.6V88.8s62.5,19.8,116.3-.3V63.9S255.8,78.9,192,63.6Z"/></svg>